<svg width="19" height="22" viewBox="0 0 19 22" fill="none" xmlns="http://www.w3.org/2000/svg">
<path fill-rule="evenodd" clip-rule="evenodd" d="M19 5.48483L9.5 0L0 5.48483L0 9.19009L4.69868 9.30942C5.39239 7.3164 7.28772 5.88612 9.51711 5.88612C11.7657 5.88612 13.6745 7.3412 14.3532 9.36115C15.1197 9.20621 17.0688 8.67049 19 7.70722V5.48483ZM19 15.1173L18.2796 14.9092L18.1978 14.5005C17.4589 13.9287 15.6746 12.7335 14.3954 12.4808C13.7567 14.5688 11.8143 16.0874 9.51711 16.0874C7.22418 16.0874 5.28463 14.5744 4.64232 12.4924L0 12.5544L0 16.4545L9.5 21.9393L19 16.4545V15.1173Z" fill="black"/>
</svg>
