<svg width="807" height="932" viewBox="0 0 807 932" fill="none" xmlns="http://www.w3.org/2000/svg">
<path fill-rule="evenodd" clip-rule="evenodd" d="M806.897 232.931L403.449 0L0 232.931V390.219L199.525 395.286C228.997 310.666 309.478 249.941 404.143 249.941C499.656 249.941 580.731 311.759 609.541 397.568C642.102 390.985 724.883 368.231 806.897 327.318V232.931ZM806.897 642.031L776.278 633.185L772.807 615.828C741.421 591.544 665.63 540.772 611.303 530.052C584.165 618.704 501.683 683.172 404.143 683.172C306.753 683.172 224.374 618.901 197.107 530.46L0 533.095V698.793L403.449 931.724L806.897 698.793V642.031Z" fill="#FFD100"/>
</svg>
