<svg width="30" height="30" viewBox="0 0 30 30" fill="none" xmlns="http://www.w3.org/2000/svg">
<path fill-rule="evenodd" clip-rule="evenodd" d="M18.4426 19.1374C17.9408 19.1374 17.5336 18.7302 17.5329 18.2277L17.5387 12.9198L10.7261 19.7324C10.3723 20.0862 9.7952 20.0882 9.43945 19.7324C9.0837 19.3767 9.08563 18.7996 9.43945 18.4458L16.2521 11.6332L10.9441 11.639C10.4417 11.6383 10.0338 11.2305 10.0345 10.7293C10.0403 10.2205 10.4456 9.81514 10.948 9.81578L18.2277 9.81319C18.5365 9.81319 18.7926 9.97917 18.954 10.2178C19.1927 10.3793 19.3587 10.6353 19.3587 10.9441L19.3561 18.2239C19.3567 18.7263 18.9514 19.1316 18.4426 19.1374ZM24.8789 4.29297C19.194 -1.39197 9.97983 -1.3939 4.29297 4.29297C-1.3939 9.97984 -1.39197 19.194 4.29297 24.8789C9.9779 30.5638 19.192 30.5658 24.8789 24.8789C30.5658 19.192 30.5638 9.9779 24.8789 4.29297Z" fill="#FFD100"/>
</svg>
