<svg width="18" height="18" viewBox="0 0 18 18" fill="none" xmlns="http://www.w3.org/2000/svg">
<g clip-path="url(#clip0_2385_9051)">
<path d="M15.3469 2.61905C14.5218 1.78559 13.539 1.12476 12.4557 0.6751C11.3726 0.225445 10.2107 -0.00403211 9.03787 5.36128e-05C4.12387 5.36128e-05 0.118875 4.00505 0.118875 8.91905C0.118875 10.4941 0.532875 12.0241 1.30687 13.3741L0.046875 18.0001L4.77187 16.7581C6.07687 17.4691 7.54387 17.8471 9.03787 17.8471C13.9519 17.8471 17.9569 13.8421 17.9569 8.92805C17.9569 6.54305 17.0299 4.30205 15.3469 2.61905ZM9.03787 16.3351C7.70587 16.3351 6.40087 15.9751 5.25787 15.3001L4.98787 15.1381L2.17987 15.8761L2.92687 13.1401L2.74687 12.8611C2.00685 11.6793 1.6139 10.3134 1.61287 8.91905C1.61287 4.83305 4.94287 1.50305 9.02887 1.50305C11.0089 1.50305 12.8719 2.27705 14.2669 3.68105C14.9576 4.36862 15.505 5.18645 15.8773 6.08713C16.2497 6.98783 16.4395 7.95345 16.4359 8.92805C16.4539 13.0141 13.1239 16.3351 9.03787 16.3351ZM13.1059 10.7911C12.8809 10.6831 11.7829 10.1431 11.5849 10.0621C11.3779 9.99009 11.2339 9.95409 11.0809 10.1701C10.9279 10.3951 10.5049 10.8991 10.3789 11.0431C10.2529 11.1961 10.1179 11.2141 9.89287 11.0971C9.66787 10.9891 8.94787 10.7461 8.10187 9.99009C7.43587 9.39609 6.99487 8.66706 6.85987 8.44205C6.73387 8.21706 6.84187 8.10005 6.95887 7.98305C7.05787 7.88405 7.18387 7.72205 7.29187 7.59605C7.39987 7.47005 7.44487 7.37105 7.51687 7.22705C7.58887 7.07405 7.55287 6.94805 7.49887 6.84005C7.44487 6.73205 6.99487 5.63405 6.81487 5.18405C6.63487 4.75205 6.44587 4.80605 6.31087 4.79705H5.87887C5.72587 4.79705 5.49187 4.85105 5.28487 5.07605C5.08687 5.30105 4.51087 5.84105 4.51087 6.93905C4.51087 8.03706 5.31187 9.09909 5.41987 9.24309C5.52787 9.39609 6.99487 11.6461 9.22687 12.6091C9.75787 12.8431 10.1719 12.9781 10.4959 13.0771C11.0269 13.2481 11.5129 13.2211 11.8999 13.1671C12.3319 13.1041 13.2229 12.6271 13.4029 12.1051C13.5919 11.5831 13.5919 11.1421 13.5289 11.0431C13.4659 10.9441 13.3309 10.8991 13.1059 10.7911Z" fill="white"/>
</g>
<defs>
<clipPath id="clip0_2385_9051">
<rect width="18" height="18" fill="white"/>
</clipPath>
</defs>
</svg>
