<svg width="18" height="26" viewBox="0 0 18 26" fill="none" xmlns="http://www.w3.org/2000/svg">
<path fill-rule="evenodd" clip-rule="evenodd" d="M9.00001 1.8C7.09044 1.8 5.25909 2.55857 3.90884 3.90884C2.55857 5.25909 1.8 7.09044 1.8 9.00001C1.8 9.90969 2.22911 11.2722 2.98271 12.9042C3.72042 14.5017 4.71184 16.2394 5.71482 17.8564C6.71592 19.4704 7.71849 20.9481 8.47156 22.0233C8.66597 22.3009 8.84357 22.5514 9.00001 22.7702C9.15644 22.5514 9.33405 22.3009 9.52846 22.0233C10.2815 20.9481 11.2841 19.4704 12.2852 17.8564C13.2882 16.2394 14.2796 14.5017 15.0173 12.9042C15.7709 11.2722 16.2 9.90969 16.2 9.00001C16.2 7.09044 15.4414 5.25909 14.0912 3.90884C12.7409 2.55857 10.9096 1.8 9.00001 1.8ZM9.00001 24.3C8.27958 24.8394 8.27938 24.8392 8.27938 24.8392L8.27285 24.8305L8.25462 24.806L8.18508 24.7122C8.12453 24.6301 8.0362 24.5099 7.92409 24.3558C7.69988 24.0475 7.38034 23.603 6.9972 23.056C6.23153 21.9628 5.2091 20.4559 4.18518 18.8051C3.16317 17.1574 2.12958 15.3502 1.34854 13.6588C0.583401 12.0019 0 10.3313 0 9.00001C5.36442e-08 6.61305 0.948213 4.32387 2.63604 2.63604C4.32387 0.948213 6.61305 0 9.00001 0C11.387 0 13.6762 0.948213 15.364 2.63604C17.0518 4.32387 18 6.61305 18 9.00001C18 10.3313 17.4166 12.0019 16.6514 13.6588C15.8705 15.3502 14.8369 17.1574 13.8148 18.8051C12.7909 20.4559 11.7685 21.9628 11.0028 23.056C10.6197 23.603 10.3001 24.0475 10.0759 24.3558C9.96381 24.5099 9.8755 24.6301 9.81493 24.7122L9.74539 24.806L9.72716 24.8305L9.72102 24.8387C9.72102 24.8387 9.72044 24.8394 9.00001 24.3ZM9.00001 24.3L9.72102 24.8387C9.55109 25.0656 9.28354 25.2 9.00001 25.2C8.71647 25.2 8.44932 25.0661 8.27938 24.8392L9.00001 24.3ZM9.00001 7.20001C8.0059 7.20001 7.20001 8.0059 7.20001 9.00001C7.20001 9.99413 8.0059 10.8 9.00001 10.8C9.99413 10.8 10.8 9.99413 10.8 9.00001C10.8 8.0059 9.99413 7.20001 9.00001 7.20001ZM5.4 9.00001C5.4 7.01178 7.01178 5.4 9.00001 5.4C10.9882 5.4 12.6 7.01178 12.6 9.00001C12.6 10.9882 10.9882 12.6 9.00001 12.6C7.01178 12.6 5.4 10.9882 5.4 9.00001Z" fill="white"/>
</svg>
