<svg width="203" height="97" viewBox="0 0 203 97" fill="none" xmlns="http://www.w3.org/2000/svg">
<path d="M0 45.8574H0.17206C0.498286 46.6912 0.553346 47.5177 0.12939 48.3353H0.0646948H0L0 45.8574Z" fill="#EAE9E8"/>
<path d="M194.508 -0.00390625C194.119 0.326668 193.683 0.107754 193.256 0.143016C193.267 0.0948113 193.273 0.0456124 193.275 -0.00390625L194.508 -0.00390625Z" fill="#7E7B7B"/>
<path d="M169.638 31.625C169.638 26.8556 169.638 22.0853 169.638 17.3139C169.638 15.3003 169.672 13.2867 169.657 11.2746C169.657 10.7645 169.795 10.6241 170.264 10.627C173.603 10.6487 176.942 10.6487 180.279 10.627C180.802 10.627 180.918 10.8059 180.915 11.3382C180.835 29.6804 180.769 48.0236 180.716 66.3678C180.716 67.0035 180.538 67.1351 179.978 67.1307C176.64 67.1031 173.302 67.1031 169.963 67.1307C169.43 67.1307 169.221 66.9503 169.055 66.4181C166.926 59.5503 164.782 52.6875 162.622 45.8296C162.56 45.5812 162.442 45.3528 162.279 45.1643V46.0041C162.26 52.7619 162.231 59.5198 162.235 66.2776C162.235 66.971 162.049 67.141 161.417 67.1336C158.206 67.0972 154.994 67.0972 151.782 67.1336C151.167 67.1336 150.956 67.0154 150.956 66.2924C151.004 59.7874 151.023 53.2779 151.014 46.764C151.014 46.0884 151.266 45.9553 151.776 45.8563C153.419 45.5414 155.013 45.0505 156.494 44.2019C157.266 43.7584 157.982 43.2365 158.558 42.3982C156.426 41.7714 154.342 41.1564 152.255 40.5473C151.032 40.191 151.025 40.1969 151.035 38.8559C151.044 37.4189 151.658 36.149 152.086 34.8406C152.308 34.159 152.993 34.3556 153.512 34.5005C155.439 35.0416 157.366 35.6197 159.293 36.1504C159.666 36.2539 160.132 36.6708 160.422 36.3131C160.741 35.9183 160.422 35.3698 160.273 34.9115C160.196 34.6795 160.082 34.4631 159.938 34.2714C158.229 32.039 156.278 30.1008 153.914 28.6889C153.153 28.235 152.352 27.8255 151.436 27.9378C151.024 27.9881 151.039 27.7575 151.04 27.4573C151.047 26.1342 151.04 24.8095 151.048 23.4863C151.057 19.4591 151.079 15.4319 151.061 11.4047C151.061 10.7749 151.23 10.6226 151.8 10.627C155.266 10.6546 158.733 10.6546 162.201 10.627C162.692 10.627 162.9 10.7749 163.059 11.2923C165.09 17.8486 167.137 24.4 169.199 30.9464C169.269 31.1741 169.336 31.4003 169.415 31.6265L169.638 31.625Z" fill="#010101"/>
<path d="M93.3157 33.8475C91.7906 34.3472 90.772 35.2816 90.3315 36.8132C89.5249 39.6119 91.4492 42.3351 94.2242 42.3321C95.5841 42.3321 96.9455 42.2878 98.3054 42.2257C98.7845 42.2035 98.962 42.3085 98.962 42.8821C98.9675 47.9028 98.9941 52.9235 99.0419 57.9442C99.053 58.1333 99.024 58.3227 98.9573 58.4981C98.8905 58.6735 98.7877 58.8303 98.6564 58.957C96.2118 61.4791 93.78 64.0131 91.3611 66.559C91.2313 66.7064 91.0736 66.8223 90.8986 66.8988C90.7236 66.9753 90.5354 67.0107 90.3466 67.0025C85.9557 66.9877 81.5638 66.9877 77.1709 67.0025C76.9949 67.0109 76.8194 66.9751 76.6584 66.8982C76.4974 66.8212 76.3553 66.7051 76.2432 66.559C74.1326 64.0752 72.0091 61.6013 69.8728 59.1373C69.747 59.0046 69.6483 58.8453 69.5829 58.6694C69.5175 58.4935 69.4869 58.305 69.4929 58.1157C69.5191 55.6024 69.5301 53.0891 69.5081 50.5862C69.5081 50.0643 69.6457 49.9504 70.1082 49.9534C73.4723 49.9751 76.8369 49.9751 80.202 49.9534C80.6273 49.9534 80.7828 50.0584 80.7663 50.5448C80.7319 51.6196 80.7663 52.6973 80.7415 53.7721C80.7264 54.2541 80.8186 54.4463 81.3224 54.4374C83.2743 54.4029 85.2261 54.4029 87.178 54.4374C87.6652 54.4374 87.7795 54.2792 87.7726 53.7795C87.7396 50.8833 87.7231 47.9856 87.7382 45.0894C87.7382 44.5379 87.5923 44.4005 87.0926 44.4049C83.7024 44.4271 80.3121 44.4049 76.9218 44.4256C76.7211 44.4377 76.5203 44.4024 76.3336 44.3222C76.1469 44.242 75.9789 44.1188 75.8413 43.9614C73.8876 41.8433 71.9238 39.739 69.9499 37.6485C69.8097 37.5144 69.6988 37.3486 69.6252 37.1631C69.5517 36.9775 69.5173 36.7767 69.5246 36.5752C69.5686 30.837 69.598 25.0992 69.6127 19.362C69.6078 19.1592 69.6447 18.9578 69.7209 18.7723C69.797 18.5867 69.9105 18.4215 70.0532 18.2886C72.3739 15.867 74.685 13.434 76.9865 10.9897C77.1241 10.8308 77.292 10.7055 77.4786 10.6223C77.6653 10.5391 77.8665 10.5001 78.0684 10.5077C82.3814 10.5245 86.6944 10.5245 91.0073 10.5077C91.1968 10.4972 91.3861 10.5314 91.5619 10.608C91.7376 10.6847 91.8956 10.8018 92.0246 10.9513C94.1498 13.2724 96.2857 15.5812 98.4321 17.8776C98.5643 18.0027 98.6697 18.1571 98.741 18.3301C98.8123 18.5032 98.8478 18.6908 98.845 18.88C98.845 21.4465 98.8629 24.0116 98.9125 26.5767C98.9235 27.1562 98.7748 27.3159 98.2242 27.3159C94.9106 27.2892 91.5974 27.2892 88.2847 27.3159C87.7726 27.3159 87.6281 27.168 87.646 26.624C87.6776 25.6334 87.6267 24.6385 87.646 23.6464C87.646 23.2162 87.5235 23.0699 87.116 23.0743C85.189 23.093 83.2619 23.093 81.3348 23.0743C80.9219 23.0743 80.8131 23.2325 80.8131 23.6509C80.8131 26.1893 80.8131 28.7278 80.7636 31.2647C80.7539 31.8369 80.9838 31.8753 81.4036 31.8723C84.3837 31.8531 87.3638 31.8723 90.3425 31.8339C91.061 31.8236 91.6157 31.9817 92.0824 32.5968C92.4265 33.0329 92.8628 33.3892 93.3157 33.8475Z" fill="#010101"/>
<path d="M0.129883 48.3353L0.172553 45.8574C3.76792 45.8574 7.36329 45.8574 10.9587 45.8264C11.4996 45.8264 11.5726 46.0275 11.5671 46.5286C11.5478 48.9281 11.5753 51.3276 11.5492 53.7271C11.5423 54.2652 11.6689 54.4278 12.1824 54.419C14.0819 54.3864 15.9828 54.3805 17.8824 54.419C18.4619 54.4323 18.5431 54.1957 18.5389 53.6576C18.5155 50.6238 18.5224 47.5887 18.5211 44.5549C18.5137 33.522 18.5009 22.4891 18.4825 11.4561C18.4825 10.6267 18.7014 10.4804 19.4158 10.4907C22.6257 10.5336 25.8357 10.5277 29.0511 10.4907C29.6485 10.4907 29.76 10.6755 29.7586 11.2772C29.7421 26.7514 29.7389 42.2255 29.749 57.6996C29.7595 57.888 29.7328 58.0767 29.6707 58.2532C29.6085 58.4298 29.5123 58.5903 29.3884 58.7241C27.0704 61.3034 24.7634 63.8951 22.4674 66.4991C22.3375 66.6631 22.1746 66.7934 21.991 66.8799C21.8074 66.9665 21.6079 67.0071 21.4075 66.9988C17.0679 66.9801 12.7279 66.9801 8.3874 66.9988C8.18729 67.0135 7.98675 66.978 7.80161 66.8951C7.61647 66.8122 7.45181 66.6842 7.32062 66.5213C5.08522 63.8956 2.83696 61.2837 0.575864 58.6857C0.43504 58.532 0.325583 58.3486 0.254482 58.147C0.18338 57.9453 0.152197 57.73 0.162919 57.5148C0.15879 54.4574 0.140895 51.3956 0.129883 48.3353Z" fill="#010101"/>
<path d="M113.845 42.0043C114.272 41.9955 114.451 42.1226 114.608 42.5647C116.576 48.1516 121.314 51.376 126.828 50.6146C131.318 49.9952 134.381 47.1891 136.061 42.6829C136.268 42.133 136.414 41.9969 136.974 42.1832C139.856 43.1457 142.316 44.9242 144.77 46.7234C144.834 46.7693 144.945 46.824 144.945 46.8713C144.955 47.9978 145.801 48.0658 146.509 48.3039C146.647 48.3512 146.737 48.4281 146.717 48.5892C146.579 49.7572 146.791 50.9872 145.793 51.9437C143.695 53.9559 141.347 55.5747 138.974 57.1596C134.888 59.8848 130.674 62.3817 126.349 64.6404C126.118 64.776 125.861 64.8522 125.599 64.863C125.336 64.8738 125.074 64.8188 124.835 64.7025C118.671 62.0916 113.08 58.3985 107.702 54.3003C106.614 53.4709 105.557 52.5972 104.467 51.7708C104.293 51.6587 104.15 51.4999 104.051 51.3101C103.952 51.1203 103.901 50.9061 103.903 50.6886C103.837 48.0688 103.765 45.4505 103.647 42.8337C103.622 42.2557 103.812 42.1507 104.287 42.1581C105.879 42.1862 112.248 42.0339 113.845 42.0043Z" fill="#010101"/>
<path d="M125.365 25.9398C123.095 25.9311 120.876 26.6548 118.994 28.0171C117.112 29.3795 115.654 31.3176 114.81 33.5803C114.601 34.1347 114.363 34.3047 113.812 34.287C110.709 34.1884 107.603 34.1248 104.495 34.0963C103.944 34.0963 103.83 33.9144 103.856 33.3423C103.963 31.0019 104.141 28.669 104.317 26.3346C104.383 25.4608 104.76 24.8325 105.281 24.2529C106.519 22.878 107.998 21.8239 109.495 20.8112C114.415 17.4833 119.63 14.7379 124.794 11.8889C125.039 11.7544 125.238 11.6968 125.508 11.8461C131.986 15.4401 138.524 18.9218 144.381 23.6586C144.688 23.9055 144.956 24.2086 145.258 24.4644C146.194 25.2598 146.557 26.3198 146.578 27.569C146.593 28.311 146.648 29.0515 146.743 29.7867C146.804 30.276 146.658 30.5185 146.242 30.7284C143.203 32.2541 140.1 33.5729 136.806 34.3313C136.371 34.4319 136.206 34.3668 136.027 33.8967C134.329 29.4378 131.262 26.8126 126.824 26.0211C126.345 25.9443 125.851 25.9679 125.365 25.9398Z" fill="#010101"/>
<path d="M124.501 95.2836C123.422 96.8507 121.512 96.762 120.247 96.2697C118.771 95.6917 118.236 94.3019 118.226 92.7023C118.201 88.8702 118.226 85.0367 118.201 81.2032C118.201 80.7434 118.307 80.6118 118.752 80.6029C120.654 80.5778 120.654 80.5615 120.654 82.5663C120.654 85.6808 120.654 88.7968 120.654 91.9143C120.654 92.3785 120.627 92.8427 120.782 93.3011C120.997 93.9279 121.379 94.2236 122.002 94.2058C122.647 94.1881 123 93.7815 123.132 93.171C123.225 92.6848 123.268 92.1889 123.258 91.6925C123.269 88.2449 123.282 84.7972 123.249 81.3436C123.249 80.7064 123.408 80.5763 123.97 80.5881C125.693 80.6207 125.695 80.5881 125.695 82.4125C125.695 85.5004 125.695 88.5888 125.695 91.6778C125.685 92.1189 125.71 92.5601 125.77 92.9965C125.89 93.718 126.245 94.197 127.009 94.1925C127.773 94.1881 128.11 93.6899 128.229 92.9743C128.284 92.5369 128.306 92.0953 128.292 91.6541C128.292 88.236 128.311 84.8149 128.278 81.3968C128.278 80.7389 128.442 80.5734 129.041 80.5867C130.729 80.6266 130.73 80.5955 130.73 82.4376C130.73 85.6089 130.73 88.7801 130.73 91.9513C130.73 92.6106 130.73 93.267 130.561 93.9176C130.112 95.5911 129.034 96.453 127.419 96.5063C126.259 96.5595 125.202 96.4427 124.501 95.2836Z" fill="#020201"/>
<path d="M84.6063 81.3284C85.2753 80.6631 85.9566 80.2861 86.7908 80.3585C88.5967 80.5064 89.6318 81.5915 89.6814 83.6243C89.764 86.7113 89.7364 89.8012 89.753 92.8881C89.753 93.8535 89.7392 94.8189 89.7612 95.7843C89.7695 96.1865 89.6938 96.3432 89.2643 96.355C87.329 96.4127 87.329 96.4319 87.329 94.3577C87.329 91.352 87.329 88.3449 87.329 85.3393C87.3356 84.8711 87.3047 84.4032 87.2368 83.9407C87.1253 83.2533 86.7715 82.792 86.0626 82.758C85.3744 82.724 84.9614 83.0537 84.7302 83.7485C84.5925 84.1536 84.6091 84.5617 84.6077 84.9712C84.6077 88.5297 84.5925 92.0868 84.6201 95.6439C84.6201 96.2352 84.4645 96.3653 83.9318 96.358C82.1534 96.3358 82.1534 96.358 82.1534 94.436C82.1534 88.2858 82.1617 82.1356 82.1396 75.9868C82.1396 75.3541 82.2622 75.1441 82.8885 75.1589C84.5994 75.2033 84.6008 75.1693 84.6008 77.0114L84.6063 81.3284Z" fill="#010101"/>
<path d="M66.8652 89.9051C66.8652 87.9477 66.7895 85.9873 66.8845 84.0358C67.0042 81.5595 68.3917 80.2747 70.7097 80.3072C72.9341 80.3383 74.3643 81.7221 74.4083 84.1275C74.4799 88.0408 74.4303 91.9631 74.4427 95.8705C74.4427 96.215 74.3684 96.3318 74.0215 96.3555C71.972 96.5033 71.9733 96.5122 71.9733 94.3212C71.9733 91.2342 71.9733 88.1473 71.9733 85.0589C71.9849 84.5899 71.9296 84.1217 71.8095 83.6706C71.6416 83.097 71.2934 82.7496 70.6877 82.7348C70.082 82.72 69.6705 82.9906 69.4489 83.6219C69.2823 84.1053 69.3112 84.6006 69.3112 85.0914C69.3112 88.5923 69.292 92.0947 69.3222 95.5882C69.3222 96.2165 69.1736 96.3658 68.6009 96.3555C66.8115 96.3229 66.8115 96.3555 66.8115 94.4483V89.9051H66.8652Z" fill="#020201"/>
<path d="M48.2448 85.822C48.2448 82.5147 48.2586 79.209 48.2324 75.9018C48.2324 75.3474 48.3797 75.2188 48.8739 75.2188C50.6853 75.2188 50.6853 75.1995 50.6853 77.1289C50.6853 83.2998 50.6757 89.4722 50.6991 95.6446C50.6991 96.2936 50.6082 96.5464 49.9269 96.5316C48.2462 96.4754 48.2448 96.5168 48.2448 94.6732V85.822Z" fill="#020202"/>
<path d="M24.3495 86.749C24.3495 83.7167 24.3605 80.6875 24.3398 77.6523C24.3398 77.1201 24.3922 76.8865 24.9813 76.8968C26.7845 76.9249 26.7858 76.8968 26.7858 78.8188V78.9015C26.7858 80.5278 26.7859 80.5485 28.2766 80.6032C28.6496 80.618 28.7983 80.7244 28.7446 81.1192C28.7405 81.1743 28.7405 81.2296 28.7446 81.2848C28.7652 82.8755 28.7652 82.911 27.28 82.9361C26.6757 82.9465 26.7858 83.3191 26.7858 83.6887C26.7858 87.6804 26.7735 91.6825 26.7969 95.6801C26.7969 96.2951 26.7005 96.5346 26.0563 96.5184C24.3509 96.4711 24.3495 96.508 24.3495 94.6836V86.749Z" fill="#020202"/>
<path d="M54.5659 88.1385C54.6306 86.7104 54.442 85.2748 54.7187 83.8511C55.144 81.6719 57.2115 80.1551 59.2184 80.5734C59.2432 80.5734 59.2817 80.5661 59.2927 80.5734C59.7208 81.1456 59.4042 81.8109 59.4855 82.4274C59.513 82.6388 59.5749 82.862 59.2019 82.9507C57.4896 83.3617 57.0849 83.9117 57.0532 85.8484C57.0215 87.8591 57.0628 89.8727 57.0215 91.8848C56.9596 94.815 55.3092 96.4383 52.581 96.3422C52.23 96.3304 52.0497 96.2639 52.0993 95.8455C52.124 95.626 52.124 95.4041 52.0993 95.1846C52.0125 94.3996 52.0759 93.8644 53.0518 93.8186C53.8364 93.7816 54.2507 93.0794 54.4283 92.2515C54.7104 90.8928 54.4806 89.5105 54.5659 88.1385Z" fill="#010101"/>
<path d="M142.732 90.0747C142.832 88.3361 142.552 86.2072 142.879 84.096C142.962 83.5286 143.152 82.9853 143.436 82.4992C143.721 82.0131 144.095 81.5945 144.535 81.2688C144.976 80.9431 145.473 80.7173 145.998 80.605C146.522 80.4927 147.062 80.4964 147.585 80.6158C147.61 80.6158 147.647 80.6069 147.66 80.6158C148.162 81.1658 147.784 81.8444 147.89 82.455C147.941 82.7506 147.89 82.9739 147.506 82.9842C145.869 83.0256 145.197 84.028 145.192 85.9913C145.182 89.2187 145.177 92.4461 145.201 95.6735C145.201 96.2087 145.082 96.3595 144.574 96.3565C142.732 96.3432 142.732 96.3669 142.732 94.4213V90.0747Z" fill="#020202"/>
<path d="M101.742 90.0916C101.836 88.4092 101.596 86.3423 101.869 84.2829C102.272 81.2492 104.346 80.5085 106.568 80.6105C106.619 80.6105 106.695 80.5987 106.717 80.6283C107.17 81.2196 106.814 81.9248 106.92 82.5694C106.978 82.9095 106.783 82.9701 106.508 82.9849C104.658 83.0928 104.229 84.28 104.213 85.924C104.183 89.1459 104.183 92.3679 104.213 95.5898C104.213 96.1916 104.103 96.3749 103.511 96.3616C101.738 96.3217 101.738 96.3616 101.738 94.4396L101.742 90.0916Z" fill="#020202"/>
<path d="M92.0195 38.1128C92.0319 36.7571 93.1097 35.6172 94.3857 35.5862C94.5369 35.5716 94.6891 35.5956 94.83 35.6563C94.9709 35.7169 95.0965 35.8124 95.1965 35.9351C95.5851 36.4126 96.0041 36.8607 96.4504 37.276C96.9776 37.7402 97.001 38.2577 96.8056 38.8919C96.6201 39.4835 96.2476 39.9868 95.7528 40.3143C95.258 40.6419 94.6721 40.7731 94.0966 40.6852C93.5217 40.5929 92.9964 40.2829 92.6156 39.8112C92.2347 39.3395 92.0233 38.7371 92.0195 38.1128Z" fill="#020202"/>
<path d="M195.801 0.276992C195.427 0.195679 194.989 0.328738 194.666 -0.00390625L194.509 -0.00390625C194.108 0.207507 193.662 -0.0290393 193.256 0.143935C193.026 0.150524 192.796 0.169769 192.568 0.201594C188.236 1.01177 185.309 5.55346 186.057 10.2933C186.766 14.7877 190.947 18.0313 195.149 17.3498C198.865 16.7466 201.843 13.3092 202.069 9.51415C202.38 4.34856 198.954 0.964456 195.801 0.276992ZM193.958 15.2282C192.366 15.213 190.845 14.5192 189.728 13.2993C188.612 12.0795 187.993 10.4334 188.006 8.72319C188.006 5.09515 190.678 2.26694 194.073 2.28764C195.665 2.29625 197.189 2.98255 198.311 4.1961C199.433 5.40966 200.061 7.05146 200.058 8.76163C200.041 10.4858 199.391 12.1332 198.248 13.3445C197.106 14.5559 195.564 15.233 193.958 15.2282Z" fill="#010101"/>
<path d="M66.22 66.0656C65.8607 63.9573 65.5317 61.8432 65.1848 59.7305C64.3424 54.4713 63.5 49.2155 62.6576 43.9632C61.7547 38.3551 60.8512 32.7475 59.9473 27.1403C59.0912 21.8313 58.2157 16.5253 57.3898 11.2104C57.2907 10.5732 57.0485 10.5037 56.5474 10.5052C51.9238 10.5214 47.3002 10.5392 42.678 10.4904C41.9292 10.483 41.7434 10.7757 41.6319 11.4691C40.5059 18.4571 39.3648 25.4426 38.2086 32.4256C36.3365 43.7385 34.4554 55.0499 32.565 66.3598C32.492 66.7929 32.5141 67.0073 33.022 67.0029C36.4127 66.9822 39.803 66.9822 43.1928 67.0029C43.6223 67.0029 43.7434 66.8417 43.8095 66.4115C44.1839 64.0268 44.6147 61.651 44.9808 59.2648C45.0607 58.7474 45.2121 58.5892 45.7049 58.5936C48.4009 58.6202 51.0975 58.6202 53.7945 58.5936C54.2748 58.5936 54.4689 58.7415 54.5446 59.2367C54.8998 61.5416 55.3058 63.8391 55.621 66.1498C55.7174 66.8565 55.9459 67.0369 56.5846 67.0177C58.0478 66.9615 59.5124 66.9999 60.9769 66.9999C62.4911 66.9999 64.0052 66.9423 65.5193 67.0236C66.3287 67.0591 66.3356 66.7072 66.22 66.0656ZM51.9293 46.2962C50.4923 46.2725 49.0566 46.2784 47.6196 46.2962C47.2507 46.2962 47.135 46.2148 47.2066 45.7787C48.0325 40.8615 48.8364 35.9398 49.6512 31.0197C49.7087 30.7656 49.7786 30.5149 49.8605 30.2686L52.3698 45.7196C52.4414 46.1557 52.3615 46.3021 51.9293 46.2962Z" fill="#010101"/>
<path d="M113.973 75.1641C113.432 75.1641 113.336 75.3696 113.343 75.8811C113.365 77.6434 113.351 79.4056 113.351 81.2906C111.432 79.5165 108.329 80.3533 108.082 83.3604C107.806 86.6824 107.859 90.0251 108.066 93.3545C108.117 94.0908 108.389 94.7894 108.843 95.3438C109.297 95.8981 109.908 96.2779 110.581 96.4252C111.17 96.5627 111.805 96.505 112.419 96.505C113.95 96.505 115.157 95.5056 115.6 93.9237C115.789 93.2495 115.782 92.5636 115.782 91.8776C115.782 86.9426 115.782 82.0077 115.782 77.0727C115.784 75.1419 115.784 75.1685 113.973 75.1641ZM113.325 92.4453C113.293 93.5585 112.788 94.1514 111.948 94.1928C111.074 94.2342 110.473 93.6694 110.424 92.5192C110.35 90.7303 110.383 88.9355 110.383 87.1422C110.383 86.2064 110.356 85.2631 110.441 84.3332C110.545 83.2067 111.069 82.7203 111.955 82.7572C112.766 82.7912 113.275 83.3619 113.308 84.4204C113.351 85.7702 113.318 87.123 113.318 88.4742H113.326C113.333 89.7989 113.362 91.1236 113.325 92.4453Z" fill="#020201"/>
<path d="M37.321 84.0203C37.2012 81.7894 36.0904 80.6199 34.0449 80.3538C31.643 80.0419 29.4434 81.2586 29.4434 84.5481C29.4434 85.8432 29.4434 87.1383 29.4434 88.4334C29.4434 89.8132 29.4434 91.1931 29.4434 92.5729C29.4434 92.6276 29.4434 92.6823 29.4434 92.7385C29.5094 94.6028 30.5074 96.0531 32.0876 96.4346C32.6753 96.575 33.3099 96.5129 33.9238 96.5129C35.6885 96.5129 37.1241 95.2385 37.2783 93.358C37.5343 90.2444 37.4889 87.125 37.321 84.0203ZM34.8667 92.4961C34.8323 93.596 34.3161 94.1711 33.4599 94.1948C32.5666 94.2184 31.9458 93.633 31.9265 92.5271C31.8806 89.798 31.8829 87.0683 31.9334 84.3382C31.9541 83.2663 32.5556 82.7237 33.4324 82.7326C34.3092 82.7415 34.8282 83.2885 34.8639 84.3914C34.908 85.7397 34.875 87.0925 34.875 88.4437C34.875 89.795 34.908 91.1522 34.8667 92.4961Z" fill="#020202"/>
<path d="M156.751 91.5398C156.711 91.352 156.66 91.2352 156.476 91.2441C155.788 91.2648 155.05 91.1332 154.43 91.3624C154.104 91.4836 154.366 92.2716 154.293 92.7521C154.284 92.8341 154.271 92.9156 154.254 92.996C154.049 93.716 153.671 94.2083 152.901 94.2113C152.132 94.2142 151.701 93.8254 151.485 92.9931C151.336 92.4209 151.413 91.8414 151.366 91.2692C151.326 90.7917 151.487 90.5492 151.899 90.3452C153.358 89.6178 154.79 88.8239 156.243 88.0877C156.611 87.9014 156.794 87.7092 156.766 87.2391C156.724 86.3313 156.766 85.4206 156.751 84.5114C156.725 81.9463 155.397 80.4724 153.014 80.3541C150.801 80.2447 149.322 81.5368 149.022 83.8609C148.823 85.3955 148.999 86.9434 148.938 88.2074C148.938 89.1181 148.938 89.7509 148.938 90.3851C148.938 91.0194 148.92 91.6536 148.938 92.2864C149.069 96.1924 151.441 97.0173 154.298 96.3579C156.093 95.9366 157.179 93.5933 156.751 91.5398ZM151.383 84.6223C151.412 83.9304 151.538 83.2459 152.232 82.897C153.16 82.4327 154.13 82.9975 154.267 84.1477C154.338 84.7391 154.291 85.36 154.3 85.9662C154.312 86.0607 154.296 86.157 154.254 86.2409C154.211 86.3248 154.145 86.3918 154.064 86.4319C153.185 86.9123 152.313 87.4135 151.372 87.9443C151.373 86.7615 151.34 85.6897 151.384 84.6223H151.383Z" fill="#010201"/>
<path d="M46.6954 88.8617C46.6954 87.1734 46.7064 85.8236 46.6954 84.4738C46.672 82.1187 45.5502 80.6772 43.3918 80.3623C41.2734 80.0533 38.9431 80.998 38.7999 84.0214C38.654 87.1261 38.5948 90.2426 38.8522 93.3472C38.91 94.0964 39.1947 94.8046 39.6628 95.3634C40.1309 95.9223 40.7566 96.301 41.4441 96.4416C42.0126 96.5643 42.6183 96.5066 43.206 96.5081C44.9197 96.5081 46.1916 95.4318 46.5522 93.6296C46.8867 91.9413 46.5977 90.2248 46.6954 88.8617ZM44.2384 91.9767C44.2486 92.335 44.2082 92.6929 44.1186 93.0382C43.8764 93.878 43.3795 94.2639 42.5797 94.2003C41.8777 94.1456 41.3739 93.6444 41.2996 92.8135C41.2397 92.0446 41.2163 91.2728 41.2294 90.5013C41.2294 88.4049 41.217 86.3085 41.2968 84.2151C41.3395 83.0708 42.1888 82.4927 43.1812 82.7795C43.8048 82.9599 44.2109 83.6266 44.2301 84.6127C44.2535 85.8812 44.2301 87.1497 44.2301 88.4182C44.2356 89.6059 44.2384 90.792 44.2384 91.9767Z" fill="#010101"/>
<path d="M99.4058 95.16C99.3851 94.8288 99.3783 94.4977 99.3741 94.1665C99.3342 90.8578 99.3328 87.5461 99.2461 84.2374C99.1677 81.2392 97.2764 79.7652 94.5537 80.4882C92.8014 80.9672 91.235 83.7762 91.9811 85.469C92.2949 86.183 93.33 85.6168 94.0306 85.7321C94.4684 85.8016 94.328 85.4054 94.3472 85.1644C94.3665 84.9234 94.339 84.6632 94.3775 84.4252C94.4367 84.0497 94.4573 83.6579 94.6528 83.3179C94.9116 82.8743 95.2874 82.7176 95.7636 82.7413C96.1559 82.7605 96.4519 82.9069 96.6349 83.2957C97.1855 84.4237 96.8139 86.2141 95.8338 86.9311C95.264 87.348 94.6404 87.6777 94.0444 88.0532C91.9645 89.3631 91.1689 91.2008 91.5736 93.754C91.8489 95.5 92.9501 96.4714 94.584 96.5305C95.5737 96.566 96.3004 96.1269 97.1029 95.1748C96.9557 96.2762 97.3782 96.4728 98.0513 96.3501C98.1536 96.3435 98.2561 96.3435 98.3583 96.3501L99.5035 96.2925C99.4732 95.9125 99.4306 95.5399 99.4058 95.16ZM96.7905 92.5417C96.7561 93.5012 96.2124 94.1355 95.4925 94.2094C94.7423 94.2863 94.2206 93.9477 94.0788 93.1582C93.8655 91.9755 94.0045 90.8667 94.9708 90.0358C95.5214 89.5583 96.1917 89.2567 96.8015 88.5574C96.8029 90.0299 96.8359 91.291 96.7919 92.5476L96.7905 92.5417Z" fill="#010101"/>
<path d="M140.285 91.9074C140.262 89.3719 140.285 86.8364 140.243 84.3024C140.204 82.2326 139.321 80.7882 137.888 80.4925C134.657 79.8228 132.684 81.6753 132.954 85.3299C133.022 86.2421 134.155 85.5472 134.775 85.7291C135.088 85.8193 135.407 85.772 135.326 85.2545C135.308 85.1177 135.308 84.9789 135.326 84.842C135.374 84.434 135.385 84.0112 135.499 83.6238C135.681 83.0103 136.093 82.7146 136.726 82.7294C137.359 82.7442 137.629 83.1729 137.762 83.7377C138.12 85.259 137.652 86.4313 136.378 87.2312C135.965 87.4943 135.526 87.7323 135.106 87.9911C132.939 89.3216 132.142 91.149 132.562 93.7953C132.837 95.4955 133.938 96.4565 135.524 96.526C136.534 96.5718 137.271 96.112 138.039 95.2383C137.901 96.4787 138.581 96.3722 139.223 96.3456C139.655 96.3279 140.087 96.3456 140.521 96.3456C140.302 94.8258 140.299 93.3651 140.285 91.9074ZM137.437 93.6061C137.08 94.1797 136.546 94.3113 135.955 94.1975C135.411 94.0866 135.118 93.6504 135.042 93.1093C134.861 91.8143 135.06 90.6552 136.175 89.8568C136.697 89.4828 137.267 89.1812 137.804 88.5263C137.804 89.9455 137.804 91.1238 137.804 92.3021C137.807 92.767 137.679 93.222 137.437 93.6076V93.6061Z" fill="#010101"/>
<path d="M195.34 9.17567C196.865 8.73214 197.432 7.89536 197.283 6.40364C197.163 5.20464 196.383 4.5157 195.008 4.46691C193.777 4.42256 192.544 4.44325 191.313 4.41664C190.968 4.40777 190.812 4.48909 190.816 4.91339C190.833 7.4267 190.816 9.92966 190.826 12.4371C190.826 12.6411 190.766 12.8481 191.086 12.919C192.174 13.1615 192.483 12.919 192.483 11.7452C192.483 11.2484 192.483 10.7531 192.483 10.2564C192.483 9.39743 192.775 9.17271 193.539 9.46987C193.828 9.59309 194.073 9.81154 194.238 10.0938C194.613 10.6851 194.994 11.2765 195.366 11.8679C196.077 13.0048 196.585 13.1984 197.89 12.7697C197.099 11.553 196.572 10.1381 195.34 9.17567ZM193.085 7.9811C192.647 8.01363 192.464 7.91901 192.467 7.372C192.479 5.89358 192.449 5.89358 193.805 5.92463C194.112 5.92463 194.417 5.91428 194.724 5.92463C195.305 5.9468 195.616 6.26023 195.62 6.90186C195.62 7.57454 195.304 7.91901 194.693 7.94562C194.157 7.97076 193.619 7.93971 193.085 7.9811Z" fill="#020202"/>
</svg>
