<svg width="1483" height="666" viewBox="0 0 1483 666" fill="none" xmlns="http://www.w3.org/2000/svg">
<path d="M331.203 665.41H16.6215C10.24 665.41 6.87874 657.847 11.155 653.11L596.149 5.13775C598.942 2.04433 602.914 0.278809 607.082 0.278809H918.677C925.05 0.278809 928.415 7.82366 924.156 12.5646L342.161 660.523C339.367 663.634 335.383 665.41 331.203 665.41Z" fill="#F3F3F3"/>
<path d="M878.185 665.131H563.604C557.222 665.131 553.861 657.568 558.137 652.832L1143.13 4.85894C1145.92 1.76552 1149.9 0 1154.06 0H1465.66C1472.03 0 1475.4 7.54486 1471.14 12.2858L889.143 660.245C886.35 663.355 882.366 665.131 878.185 665.131Z" fill="#F3F3F3"/>
<path d="M1459.98 665.409H1118.37C1111.98 665.409 1108.62 657.833 1112.91 653.1L1454.52 276.079C1459.05 271.086 1467.35 274.287 1467.35 281.024V658.045C1467.35 662.112 1464.05 665.409 1459.98 665.409Z" fill="#F3F3F3"/>
</svg>
