<svg width="98" height="44" viewBox="0 0 98 44" fill="none" xmlns="http://www.w3.org/2000/svg">
<path d="M21.7346 43.9976H3.00587C1.84829 43.9976 1.23857 42.6257 2.01428 41.7665L39.3067 0.459253C39.56 0.178685 39.9203 0.0185547 40.2983 0.0185547H58.8367C59.9926 0.0185547 60.603 1.38716 59.8305 2.24716L22.7285 43.5544C22.4751 43.8364 22.1138 43.9976 21.7346 43.9976Z" fill="#336799"/>
<path d="M57.9026 43.979H39.1738C38.0163 43.979 37.4065 42.6071 38.1822 41.7479L75.4747 0.440698C75.728 0.16013 76.0883 0 76.4663 0H95.0046C96.1606 0 96.7709 1.36861 95.9985 2.2286L58.8964 43.5358C58.6431 43.8179 58.2817 43.979 57.9026 43.979Z" fill="#336799"/>
<path d="M95.6826 43.9974H75.8589C74.7002 43.9974 74.0909 42.6231 74.8689 41.7645L94.6926 19.8858C95.5132 18.9802 97.0185 19.5607 97.0185 20.7828V42.6614C97.0185 43.3993 96.4204 43.9974 95.6826 43.9974Z" fill="#336799"/>
</svg>
