<svg width="43" height="19" viewBox="0 0 43 19" fill="none" xmlns="http://www.w3.org/2000/svg">
<path d="M20.7706 18.9896C19.4117 18.9896 18.0525 18.9896 16.6929 18.9896C16.5487 18.9892 16.4047 18.9781 16.2622 18.9562C16.2376 18.9499 16.2147 18.9379 16.1956 18.9211C16.1765 18.9043 16.1616 18.8833 16.1522 18.8597C16.1427 18.8361 16.139 18.8105 16.1413 18.7852C16.1436 18.7599 16.1518 18.7355 16.1653 18.7139C16.212 18.6413 16.2657 18.5735 16.3257 18.5115C16.7123 18.1045 17.1096 17.7082 17.4865 17.2936C17.845 16.8985 18.167 16.4721 18.5471 16.0952C18.8064 15.8241 19.0478 15.5364 19.2696 15.2338C19.5074 14.9438 19.7681 14.6733 20.0492 14.4251C20.2934 14.2034 20.5152 13.9581 20.7114 13.6929C20.9802 13.3353 21.2819 13.0036 21.6127 12.7023C21.8986 12.4163 22.1645 12.1108 22.4084 11.7881C22.5538 11.6083 22.7099 11.4382 22.8606 11.2637C23.1158 10.9709 23.4496 10.7609 23.6736 10.4292C23.8973 10.1285 24.1382 9.84086 24.395 9.56783C24.4801 9.46984 24.5727 9.37724 24.6664 9.28679C25.2048 8.76456 25.6904 8.18849 26.1814 7.61996C26.2891 7.50043 26.4054 7.39491 26.5109 7.27647C26.8942 6.84576 27.27 6.40751 27.6576 5.98434C27.9494 5.66131 28.2596 5.36197 28.5524 5.04432C28.8453 4.72668 29.1059 4.41549 29.3891 4.10646C29.8866 3.56807 30.3453 2.98877 30.8643 2.46546C31.2293 2.09828 31.5459 1.68265 31.8937 1.29824C32.2167 0.945064 32.5397 0.602651 32.8735 0.261315C32.9495 0.183644 33.0414 0.12332 33.1428 0.0844768C33.2443 0.0456332 33.353 0.029189 33.4614 0.0362706C34.0537 0.0470383 34.6459 0.0362706 35.2402 0.0362706H41.661C41.8064 0.0362706 41.9507 0.036269 42.0917 0.0481135C42.2565 0.064265 42.3275 0.191324 42.2392 0.323766C42.1076 0.548214 41.9416 0.7506 41.7472 0.923527C41.6142 1.03422 41.4923 1.15755 41.3832 1.29178C41.0602 1.67619 40.721 2.05198 40.3829 2.4267C39.9091 2.95108 39.4138 3.44855 38.9648 3.99986C38.7332 4.2951 38.4794 4.57227 38.2057 4.82897C37.8934 5.11431 37.6802 5.48041 37.3787 5.77222C37.3066 5.84221 37.2473 5.92512 37.173 5.99403C36.7273 6.42464 36.3135 6.88708 35.9348 7.37768C35.7968 7.54397 35.6479 7.70081 35.489 7.84715C35.1725 8.16479 34.8727 8.49868 34.591 8.84747C34.2679 9.22003 33.9234 9.56675 33.5863 9.92424C33.3913 10.1167 33.2163 10.3285 33.0641 10.5563C32.9601 10.713 32.8338 10.8537 32.6894 10.9741C32.375 11.2508 32.1122 11.576 31.828 11.8753C31.6508 12.0462 31.4952 12.2382 31.365 12.4471C31.3095 12.5315 31.2449 12.6095 31.1722 12.6797C31.0129 12.8477 30.8578 13.0178 30.6887 13.175C30.1267 13.6962 29.7121 14.3498 29.1544 14.8752C28.9767 15.0432 28.8249 15.2381 28.6493 15.4082C28.5201 15.5233 28.411 15.659 28.3263 15.8099C28.2314 15.9729 28.1065 16.1165 27.9581 16.233C27.6285 16.5323 27.3221 16.8563 27.0417 17.2021C26.611 17.7244 26.1351 18.2111 25.6721 18.7096C25.5867 18.8061 25.4807 18.8822 25.362 18.9324C25.2433 18.9825 25.1149 19.0053 24.9862 18.9993C23.5864 18.9896 22.1801 18.9993 20.7771 18.9993L20.7706 18.9896Z" fill="black"/>
<path d="M5.2627 18.9816C3.88767 18.9816 2.51371 18.9816 1.13976 18.9816C0.985778 18.9816 0.768269 19.0516 0.697202 18.9019C0.615367 18.7318 0.811341 18.5983 0.917942 18.4712C1.2862 18.0459 1.67168 17.6356 2.03778 17.2125C2.28436 16.9293 2.61062 16.7193 2.81628 16.4027C3.02195 16.0862 3.29437 15.8245 3.5431 15.5413C3.59876 15.4749 3.65846 15.412 3.72185 15.3529C4.1041 15.0202 4.4099 14.6175 4.7437 14.2406C4.85892 14.1103 4.96767 13.9757 5.08504 13.8487C5.51574 13.3824 5.97445 12.9388 6.37716 12.4489C6.88755 11.8211 7.49592 11.2816 7.97724 10.6291C8.15274 10.3996 8.35118 10.1885 8.56946 9.9992C8.89249 9.7074 9.12938 9.34022 9.42011 9.02042C9.63008 8.78999 9.78836 8.50142 10.0856 8.34959C10.1448 8.31944 10.1825 8.24191 10.2298 8.19346C10.5593 7.82843 10.8759 7.45587 11.1742 7.06285C11.3084 6.89221 11.4599 6.73596 11.6264 6.59661C12.0087 6.26281 12.3091 5.8558 12.6364 5.47354C12.8357 5.22723 13.0515 4.99482 13.2825 4.77795C13.4257 4.65651 13.5544 4.51884 13.6658 4.3677C14.1073 3.73887 14.7017 3.24786 15.1927 2.66533C15.379 2.44459 15.562 2.2217 15.7504 2.00311C15.8588 1.8677 15.9768 1.74031 16.1036 1.62194C16.4585 1.30278 16.7728 0.941137 17.0393 0.545168C17.0713 0.496615 17.1073 0.450868 17.147 0.40842C17.2524 0.289807 17.3815 0.194671 17.526 0.129189C17.6705 0.0637063 17.8272 0.0293416 17.9858 0.0283203C20.7628 0.039088 23.5409 0.0347807 26.3179 0.0347807C26.376 0.0347807 26.4341 0.0347807 26.4912 0.0347807C26.5774 0.042318 26.6721 0.0412396 26.7184 0.130611C26.7776 0.245826 26.6829 0.309356 26.629 0.394421C26.306 0.897272 25.8462 1.27953 25.4974 1.75761C25.282 1.8739 25.2045 2.11402 25.0354 2.26154C24.8707 2.40119 24.7149 2.55116 24.5692 2.71055C24.5366 2.73897 24.5064 2.76993 24.4787 2.80315C24.1815 3.25109 23.7821 3.60858 23.4256 4.00483L21.8105 5.80842C21.387 6.28076 20.9634 6.75346 20.5399 7.22652C20.4635 7.31159 20.3741 7.38588 20.2901 7.46557C20.2384 7.5151 20.1684 7.55601 20.1383 7.61631C20.0037 7.8812 19.7776 8.06748 19.5805 8.27637C19.0949 8.77308 18.6349 9.2942 18.2022 9.83769C18.1761 9.87247 18.1469 9.9049 18.115 9.9346C17.7328 10.2867 17.4463 10.7282 17.0469 11.0652C16.9534 11.1556 16.868 11.2539 16.7917 11.3592C16.7464 11.4141 16.7131 11.4819 16.6625 11.5325C16.2371 11.9632 15.884 12.4628 15.4328 12.8709C15.334 12.9549 15.2467 13.0516 15.1733 13.1584C15.0916 13.2772 15.0009 13.3896 14.9019 13.4944C14.1859 14.288 13.4849 15.0945 12.7484 15.8633C12.3791 16.2477 12.0679 16.6838 11.663 17.038C11.4143 17.2534 11.2183 17.5312 10.9965 17.7789C10.7187 18.09 10.429 18.3905 10.1792 18.7264C10.1201 18.8097 10.0407 18.8764 9.94858 18.9203C9.85642 18.9642 9.75457 18.9838 9.65269 18.9773C9.46533 18.9719 9.2769 18.9773 9.08846 18.9773L5.2627 18.9816Z" fill="black"/>
<path d="M42.4125 13.2709C42.4125 14.9047 42.4125 16.5381 42.4125 18.1712C42.4167 18.3298 42.4095 18.4885 42.391 18.6461C42.3555 18.8873 42.2596 18.9691 42.0184 18.9842C41.9032 18.9928 41.7869 18.9896 41.6717 18.9896H32.867C32.7231 18.9894 32.5793 18.9811 32.4363 18.9648C32.4151 18.9608 32.3951 18.9518 32.3779 18.9386C32.3608 18.9254 32.347 18.9084 32.3377 18.8889C32.3284 18.8694 32.3238 18.848 32.3243 18.8264C32.3247 18.8048 32.3303 18.7836 32.3404 18.7645C32.3855 18.6914 32.4386 18.6235 32.4987 18.5621C32.7884 18.2595 33.0802 17.9613 33.3709 17.6608C33.4104 17.6186 33.4464 17.5732 33.4786 17.5252C33.8446 17.0231 34.2677 16.5652 34.7395 16.1609C34.8651 16.0424 34.976 15.9094 35.0701 15.7646C35.3697 15.3406 35.7165 14.952 36.1038 14.606C36.4333 14.2842 36.7388 13.9387 37.0179 13.5723C37.308 13.213 37.6291 12.8797 37.9773 12.5763C38.036 12.5345 38.0876 12.4836 38.1302 12.4256C38.4005 11.9583 38.8054 11.6029 39.1564 11.2045C39.3276 11.0096 39.5236 10.8374 39.7088 10.6554C39.7302 10.6359 39.7504 10.6151 39.7691 10.5929C40.2601 9.91241 40.8986 9.3611 41.4187 8.70535C41.5802 8.50292 41.76 8.31341 41.9398 8.12605C42.0215 8.0447 42.1117 7.97249 42.209 7.9107C42.2302 7.89638 42.2547 7.88802 42.2802 7.88649C42.3057 7.88495 42.3311 7.89031 42.3538 7.90198C42.3765 7.91366 42.3956 7.93123 42.4092 7.95284C42.4227 7.97446 42.4302 7.99932 42.4309 8.02483C42.4309 8.24019 42.4147 8.45554 42.4147 8.67089C42.4118 10.2056 42.4111 11.739 42.4125 13.2709Z" fill="black"/>
</svg>
