<svg width="314" height="57" viewBox="0 0 314 57" fill="none" xmlns="http://www.w3.org/2000/svg">
<path d="M126.326 2.72053H145.678C146.374 2.69108 147.07 2.7671 147.743 2.946C148.245 3.05674 148.761 3.09396 149.274 3.05647C150.036 3.06023 150.794 3.16485 151.529 3.36762C152.082 3.5131 152.625 3.69538 153.154 3.91325C153.463 4.03416 153.779 4.13803 154.099 4.22439C154.535 4.349 154.957 4.5151 155.362 4.72041C155.979 5.03156 156.615 5.30437 157.226 5.6358C157.944 6.01998 158.629 6.46344 159.273 6.96154C160.001 7.50051 160.697 8.08013 161.359 8.69763C161.706 9.03583 162.035 9.37403 162.387 9.7235C162.928 10.2624 163.237 10.9613 163.679 11.5701C164.45 12.6388 164.831 13.8856 165.241 15.1144C165.313 15.4093 165.338 15.7136 165.316 16.0163C165.316 17.5314 165.316 19.0443 165.316 20.5594C165.316 27.4947 165.316 34.4301 165.316 41.3654C165.316 41.6675 165.316 41.9719 165.316 42.2673C165.284 42.9076 165.149 43.0316 164.479 43.0677C164.328 43.0677 164.177 43.0677 164.028 43.0677H155.655C154.437 43.0677 154.399 43.0271 154.399 41.769C154.399 33.5936 154.399 25.4174 154.399 17.2405C154.399 16.8753 154.399 16.5123 154.399 16.1493C154.367 14.8303 153.966 13.6692 152.987 12.738C152.965 12.7173 152.944 12.6955 152.924 12.6726C152.122 11.6851 150.996 11.1327 149.959 10.4653C149.77 10.3683 149.57 10.2927 149.364 10.2398C149.129 10.1833 148.902 10.0985 148.688 9.9873C148.165 9.63557 147.56 9.53637 146.972 9.45069C146.58 9.41579 146.195 9.32467 145.829 9.18013C145.349 8.95466 144.816 9.01103 144.309 8.95466C143.138 8.80514 141.959 8.72983 140.778 8.7292C139.698 8.754 139.561 8.88026 139.543 9.92417C139.543 10.197 139.543 10.4698 139.543 10.7426C139.543 20.9788 139.543 31.2149 139.543 41.4511C139.543 41.7848 139.543 42.1275 139.523 42.4499C139.489 42.8467 139.342 42.9955 138.963 43.0361C138.722 43.0552 138.48 43.062 138.237 43.0564H130.148C129.905 43.0621 129.663 43.0531 129.422 43.0293C129.267 43.0283 129.119 42.9681 129.008 42.8611C128.897 42.7541 128.831 42.6085 128.824 42.4544C128.791 42.0924 128.778 41.7288 128.786 41.3654C128.786 31.493 128.786 21.6206 128.786 11.7482C128.786 11.1417 128.786 10.5374 128.786 9.93093C128.788 9.71931 128.777 9.50775 128.754 9.29737C128.754 9.15814 128.699 9.02456 128.602 8.92485C128.505 8.82514 128.373 8.76712 128.233 8.76302C128.053 8.73972 127.87 8.72992 127.688 8.73371H116.694C116.572 8.73371 116.451 8.73371 116.331 8.74498C115.88 8.78331 115.74 8.90281 115.709 9.35374C115.689 9.65361 115.698 9.95799 115.698 10.2556C115.698 20.6451 115.698 31.033 115.698 41.4195C115.698 41.7825 115.698 42.1478 115.668 42.5085C115.668 42.5773 115.654 42.6453 115.627 42.7087C115.601 42.7721 115.562 42.8295 115.513 42.8777C115.463 42.9259 115.405 42.964 115.342 42.9896C115.278 43.0152 115.209 43.028 115.141 43.0271C114.96 43.0485 114.777 43.0576 114.595 43.0541H105.962C105.75 43.0579 105.538 43.0458 105.328 43.0181C105.207 43.0026 105.093 42.9477 105.006 42.8618C104.918 42.7759 104.861 42.6637 104.844 42.5423C104.818 42.4244 104.804 42.3044 104.801 42.1838C104.801 41.9426 104.801 41.6991 104.801 41.4578V4.48142C104.801 4.26948 104.801 4.05754 104.801 3.8456C104.839 2.99109 105.098 2.74082 105.98 2.71827C106.253 2.71827 106.526 2.71827 106.798 2.71827L126.326 2.72053Z" fill="#33669A"/>
<path d="M224.509 29.8754C224.509 21.4249 224.509 12.9752 224.509 4.52626C224.5 4.16296 224.51 3.79939 224.541 3.43726C224.545 3.25146 224.621 3.07451 224.754 2.94459C224.887 2.81467 225.065 2.7422 225.251 2.74283C225.492 2.72177 225.733 2.71424 225.975 2.72028H248.612C249.127 2.69997 249.642 2.76862 250.134 2.9232C250.426 3.01172 250.73 3.05208 251.035 3.04269C251.642 3.06655 252.245 3.14198 252.839 3.26816C252.99 3.28373 253.138 3.32252 253.277 3.38315C253.994 3.77771 254.794 3.96711 255.531 4.30756C256.165 4.5931 256.78 4.91842 257.373 5.28157C258.793 6.19076 260.094 7.27388 261.245 8.50574C262.097 9.44797 262.88 10.4509 263.587 11.5067C264.206 12.4005 264.706 13.3715 265.073 14.3949C265.224 14.7895 265.4 15.1742 265.598 15.547C266.013 16.357 266.269 17.2385 266.354 18.1444C266.396 18.6273 266.514 19.1005 266.703 19.5468C266.843 19.8842 266.908 20.2482 266.892 20.6133C266.866 21.2192 266.942 21.8253 267.118 22.4057C267.262 22.8416 267.256 23.3132 267.1 23.745C266.943 24.2049 266.867 24.6885 266.874 25.1744C266.873 25.5993 266.797 26.0206 266.649 26.419C266.531 26.7303 266.439 27.0508 266.374 27.3772C266.179 28.3838 265.877 29.3664 265.472 30.3083C265.215 30.9531 264.902 31.5754 264.595 32.1954C264.073 33.2483 263.423 34.2328 262.66 35.1265C262.461 35.3916 262.276 35.6671 262.106 35.9517C261.389 37.0091 260.44 37.8637 259.495 38.6911C258.593 39.4825 257.691 40.3122 256.611 40.8736C255.597 41.399 254.582 41.9536 253.482 42.2828C253.392 42.2977 253.305 42.3219 253.22 42.3549C252.041 43.0471 250.729 43.0313 249.432 43.0313C245.191 43.0494 240.953 43.0313 236.712 43.0313C236.409 43.0313 236.105 43.0313 235.81 43.0539C235.463 43.0832 235.311 43.2252 235.28 43.5612C235.251 43.8611 235.255 44.1654 235.255 44.463C235.255 48.0705 235.255 51.678 235.255 55.2854C235.279 55.6487 235.253 56.0136 235.178 56.3699C235.147 56.5354 235.061 56.6855 234.934 56.7957C234.806 56.9059 234.646 56.9696 234.477 56.9764C234.265 56.9922 234.053 56.999 233.841 56.999H225.844C225.633 57.0038 225.421 56.9963 225.211 56.9764C224.76 56.9268 224.575 56.7509 224.534 56.2775C224.505 55.946 224.516 55.6123 224.516 55.2787C224.512 46.8252 224.509 38.3574 224.509 29.8754ZM235.26 22.9694C235.26 27.0864 235.26 31.2041 235.26 35.3227C235.26 36.45 235.293 36.4838 236.446 36.4861C239.897 36.4861 243.349 36.4861 246.801 36.4861C247.387 36.4861 247.947 36.4545 248.436 36.0735C248.587 35.9708 248.759 35.9017 248.939 35.8705C249.261 35.7843 249.555 35.613 249.789 35.3745C250.24 34.9664 250.643 34.5245 251.087 34.1187C252.44 32.8831 253.297 31.3094 253.888 29.6296C254.339 28.331 254.853 27.0142 254.909 25.6006C254.909 25.4784 254.937 25.3578 254.992 25.2488C255.254 24.7979 255.243 24.3222 255.243 23.8374C255.243 23.2332 255.243 22.6267 255.243 22.0202C255.273 21.5667 255.195 21.1125 255.017 20.6944C254.938 20.4667 254.895 20.2277 254.891 19.9865C254.876 19.6844 254.845 19.3834 254.798 19.0846C254.471 17.4828 253.926 15.9331 253.18 14.4783C253.022 14.1875 252.857 13.8966 252.729 13.5968C252.543 13.1818 252.284 12.8043 251.962 12.483C251.335 11.8697 250.722 11.2429 250.088 10.6341C249.928 10.4984 249.75 10.3854 249.559 10.2982C249.263 10.1426 248.957 10.0164 248.657 9.84726C248.388 9.70699 248.091 9.62987 247.789 9.62179C247.457 9.60827 247.112 9.59473 246.79 9.59473C243.399 9.59473 240.008 9.59473 236.617 9.59473C235.264 9.59473 235.264 9.59474 235.264 10.9746C235.266 14.9744 235.267 18.9726 235.269 22.9694H235.26Z" fill="#336799"/>
<path d="M299.183 43.0693H286.645C286.042 43.0775 285.44 43.0489 284.841 42.9836C283.987 42.8799 283.225 42.4989 282.433 42.2035C282.33 42.1408 282.223 42.0851 282.113 42.0367C280.882 41.7413 279.899 40.9567 278.828 40.3524C278.721 40.2906 278.623 40.2148 278.537 40.127C277.721 39.322 276.864 38.5487 276.113 37.6807C275.683 37.1756 275.347 36.6029 274.898 36.1137C274.776 35.9805 274.676 35.8281 274.603 35.6627C274.283 34.9119 273.953 34.1679 273.669 33.4081C273.011 31.6314 272.993 29.8006 273.085 27.9495C273.112 27.1325 273.29 26.3274 273.611 25.5754C273.985 24.7186 274.287 23.8258 274.835 23.0614C275.225 22.5248 275.689 22.0378 276.055 21.4832C276.291 21.0966 276.592 20.7528 276.943 20.4663C277.8 19.8035 278.584 19.0436 279.561 18.5363C280.043 18.2861 280.494 17.9772 280.965 17.7021C281.431 17.4204 281.931 17.2006 282.453 17.0483C283.037 16.8904 283.608 16.6808 284.192 16.5297C284.961 16.3555 285.749 16.2797 286.537 16.3042C291.141 16.3042 295.745 16.3042 300.349 16.3042C300.736 16.3042 301.136 16.3719 301.514 16.2186C301.674 15.8082 301.375 15.479 301.289 15.1115C301.099 14.1533 300.612 13.3213 300.162 12.46C299.823 11.8107 299.345 11.2718 298.955 10.6698C298.658 10.1388 298.201 9.71449 297.65 9.45683C297.383 9.31298 297.139 9.13149 296.924 8.91796C295.966 8.12883 294.843 7.70947 293.652 7.44116C293.298 7.36225 292.933 7.31941 292.586 7.2157C291.533 6.90732 290.412 6.91988 289.366 7.25177C289.135 7.3236 288.899 7.37861 288.661 7.41637C287.504 7.57194 286.451 8.02062 285.423 8.5437C284.08 9.23665 282.829 10.094 281.698 11.096C281.612 11.1818 281.516 11.2575 281.412 11.3214C281.334 11.3688 281.242 11.3902 281.151 11.3825C281.06 11.3748 280.974 11.3384 280.904 11.2786C280.836 11.2199 280.772 11.1558 280.713 11.087C279.599 9.89499 278.486 8.70227 277.374 7.5088C277.026 7.13227 276.697 6.74673 276.355 6.35667C276.313 6.31234 276.28 6.25996 276.259 6.20272C276.238 6.14548 276.229 6.08455 276.232 6.02364C276.235 5.96272 276.251 5.90309 276.278 5.84833C276.304 5.79357 276.342 5.74484 276.388 5.70507C276.536 5.55217 276.699 5.41537 276.875 5.29698C277.48 4.89791 278.07 4.47403 278.706 4.13133C279.398 3.75931 280.016 3.2723 280.756 2.97243C281.847 2.5215 282.929 2.07057 284.034 1.65571C284.82 1.34147 285.645 1.1337 286.487 1.03793C286.608 1.03051 286.727 1.00308 286.839 0.956763C287.905 0.447209 289.048 0.366046 290.203 0.341245C290.839 0.327717 291.472 0.341244 292.083 0.093231C292.284 0.0236352 292.498 -0.00324268 292.71 0.0143165C293.7 0.0368631 294.703 -0.123216 295.675 0.26233C295.969 0.339014 296.274 0.361926 296.577 0.329967C297.364 0.326052 298.15 0.397018 298.924 0.541906C299.284 0.592747 299.633 0.700837 299.959 0.862071C300.116 0.951146 300.289 1.01002 300.468 1.03568C302.2 1.29722 303.755 2.01871 305.271 2.85745C305.453 2.95891 305.652 3.03331 305.841 3.12575C306.066 3.21623 306.282 3.32717 306.486 3.45718C307.284 4.05015 308.084 4.64539 308.858 5.27218C309.683 5.94858 310.344 6.78055 311.004 7.6035C311.432 8.14816 311.81 8.73078 312.132 9.3441C312.516 10.0633 312.842 10.812 313.108 11.583C313.372 12.3473 313.669 13.1184 313.62 13.9616C313.589 14.2954 313.632 14.6317 313.746 14.9469C313.921 15.4328 313.997 15.9486 313.971 16.4643V41.7165C313.971 41.9284 313.971 42.1404 313.956 42.3523C313.906 42.8032 313.73 43.0107 313.279 43.0558C312.979 43.0851 312.673 43.0761 312.377 43.0761H299.183V43.0693ZM295.158 23.2531H289.707C289.222 23.2411 288.738 23.295 288.268 23.4132C285.75 24.1144 284.379 25.9339 283.515 28.2517C283.478 28.3681 283.462 28.4903 283.468 28.6124C283.468 29.5413 283.31 30.4928 283.788 31.3699C284.169 33.0225 285.141 34.24 286.543 35.1554C287.054 35.5362 287.642 35.7988 288.266 35.9243C288.922 36.0408 289.586 36.1079 290.252 36.1249C293.634 36.1249 297.037 36.1249 300.428 36.1249C300.67 36.1302 300.912 36.1219 301.154 36.1001C301.546 36.0573 301.701 35.9107 301.738 35.5342C301.765 35.2637 301.76 34.9908 301.76 34.718C301.76 31.324 301.76 27.9315 301.76 24.5405C301.76 23.2644 301.76 23.2599 300.518 23.2576C298.732 23.2508 296.944 23.2531 295.158 23.2531Z" fill="#33669A"/>
<path d="M215.463 23.0387C215.463 29.2165 215.463 35.3935 215.463 41.5698C215.467 41.9024 215.454 42.235 215.424 42.5664C215.42 42.6898 215.369 42.807 215.282 42.8947C215.196 42.9824 215.079 43.0342 214.956 43.0398C214.745 43.065 214.534 43.0755 214.322 43.0714C206.417 43.0714 198.514 43.0714 190.612 43.0714C189.734 43.055 188.858 42.9668 187.994 42.8076C187.442 42.7152 186.926 42.4153 186.391 42.2056C186.258 42.1358 186.119 42.0769 185.976 42.0297C184.398 41.7096 183.045 40.9498 181.711 40.0998C181.453 39.9399 181.185 39.7982 180.908 39.6759C180.605 39.5379 180.327 39.3496 180.087 39.119C180.027 39.0511 179.96 38.9899 179.887 38.9364C178.583 38.1788 177.675 36.9748 176.554 36.0053C176.278 35.7255 176.033 35.4163 175.824 35.0831C175.337 34.4248 175.03 33.6604 174.586 32.9773C174.532 32.9038 174.49 32.8224 174.462 32.736C174.2 31.7508 173.785 30.8083 173.801 29.7509C173.826 25.8142 173.801 21.8776 173.801 17.941V4.59564C173.801 4.29126 173.801 3.98913 173.815 3.69377C173.855 3.11658 174.139 2.81896 174.717 2.74681C174.927 2.72767 175.139 2.7209 175.35 2.72652C177.925 2.72652 180.5 2.7423 183.072 2.72652C184.533 2.71299 184.59 3.2699 184.588 4.28675C184.574 12.4621 184.574 20.6375 184.588 28.8129C184.588 29.2075 184.588 29.6021 184.588 29.9944C184.558 30.3598 184.666 30.7231 184.89 31.0135C185.017 31.1833 185.112 31.3752 185.169 31.5794C185.405 32.2043 185.764 32.7756 186.224 33.2591C187.047 34.1893 188.013 34.9824 189.086 35.6085C189.582 35.8971 190.147 36.0459 190.625 36.3773C190.789 36.4567 190.969 36.4954 191.151 36.49C191.421 36.5103 191.694 36.5058 191.967 36.5058H203.414C203.684 36.5058 203.96 36.5058 204.228 36.4788C204.289 36.4788 204.349 36.4665 204.405 36.4426C204.461 36.4187 204.512 36.3837 204.554 36.3396C204.596 36.2956 204.629 36.2434 204.65 36.1864C204.672 36.1293 204.682 36.0685 204.679 36.0076C204.708 35.6761 204.706 35.3311 204.706 35.0087C204.706 24.8958 204.706 14.7822 204.706 4.66779C204.706 4.33635 204.706 3.99138 204.719 3.66897C204.713 3.43934 204.796 3.21623 204.952 3.04758C205.108 2.87894 205.324 2.77823 205.554 2.7671C205.734 2.74573 205.915 2.73669 206.097 2.74005H214.092C214.182 2.74005 214.275 2.74005 214.365 2.74005C215.125 2.78965 215.4 3.0557 215.438 3.79523C215.454 4.06804 215.438 4.34086 215.438 4.61367L215.463 23.0387Z" fill="#33669A"/>
<path d="M42.7495 42.3686C39.9041 42.3686 37.058 42.3686 34.2111 42.3686C33.9092 42.3679 33.6077 42.3445 33.3092 42.2987C33.2576 42.2855 33.2099 42.2603 33.1699 42.2252C33.1298 42.1901 33.0987 42.146 33.0789 42.0966C33.0591 42.0472 33.0513 41.9937 33.056 41.9407C33.0608 41.8877 33.078 41.8365 33.1063 41.7914C33.2041 41.6394 33.3166 41.4974 33.4423 41.3675C34.2517 40.5152 35.0837 39.6855 35.8728 38.8175C36.6236 37.99 37.2977 37.0972 38.0936 36.3081C38.6367 35.7404 39.142 35.1379 39.6065 34.5043C40.1043 33.897 40.6502 33.3308 41.2389 32.8111C41.7502 32.3467 42.2147 31.8332 42.6255 31.2779C43.1883 30.529 43.8201 29.8345 44.5126 29.2036C45.1115 28.6047 45.6682 27.9651 46.1788 27.2894C46.4832 26.9129 46.8101 26.5567 47.1258 26.1914C47.6601 25.5781 48.3591 25.1385 48.8281 24.444C49.2965 23.8143 49.8009 23.212 50.3387 22.6403C50.5168 22.4351 50.7107 22.2412 50.9069 22.0518C52.0342 20.9583 53.051 19.7521 54.0792 18.5616C54.3046 18.3114 54.5481 18.0904 54.7691 17.8424C55.5717 16.9405 56.3586 16.0229 57.1703 15.1368C57.7813 14.4604 58.4307 13.8336 59.0439 13.1685C59.6572 12.5034 60.2028 11.8518 60.7958 11.2047C61.8374 10.0773 62.7979 8.86434 63.8847 7.76858C64.649 6.99974 65.3119 6.12944 66.0401 5.32453C66.7165 4.585 67.3929 3.86802 68.0919 3.15329C68.251 2.99065 68.4434 2.86434 68.6558 2.78301C68.8683 2.70167 69.0959 2.66724 69.3229 2.68207C70.563 2.70461 71.803 2.68207 73.0476 2.68207H86.4921C86.7965 2.68207 87.0986 2.68206 87.394 2.70686C87.739 2.74068 87.8878 3.00673 87.7029 3.28406C87.4273 3.75403 87.0796 4.17781 86.6725 4.5399C86.3941 4.77169 86.1389 5.02992 85.9104 5.31099C85.2341 6.11591 84.5238 6.90278 83.8159 7.68741C82.8238 8.78543 81.7867 9.82708 80.8465 10.9815C80.3615 11.5997 79.8301 12.1801 79.2569 12.7176C78.6031 13.315 78.1567 14.0816 77.5254 14.6926C77.3743 14.8392 77.2503 15.0128 77.0947 15.1571C76.1614 16.0588 75.2948 17.0271 74.5019 18.0543C74.2131 18.4025 73.9012 18.7309 73.5684 19.0374C72.9057 19.7025 72.2781 20.4016 71.6881 21.1319C71.0117 21.9121 70.2902 22.6381 69.5845 23.3866C69.1761 23.7896 68.8097 24.233 68.4909 24.7101C68.2731 25.0381 68.0088 25.3328 67.7063 25.5849C67.048 26.1643 66.4978 26.8452 65.9026 27.472C65.5315 27.8298 65.2059 28.2319 64.9331 28.6693C64.817 28.846 64.6816 29.0094 64.5295 29.1563C64.1958 29.508 63.8712 29.8642 63.5172 30.1934C62.3402 31.2847 61.4722 32.6533 60.3043 33.7535C59.9323 34.1053 59.6144 34.5133 59.2468 34.8696C58.9763 35.1104 58.7477 35.3947 58.5704 35.7106C58.3717 36.052 58.1101 36.3527 57.7993 36.5966C57.1092 37.2234 56.4678 37.9017 55.8806 38.6258C54.9788 39.7194 53.9822 40.7385 53.0127 41.7824C52.8339 41.9844 52.6121 42.1438 52.3635 42.2488C52.1149 42.3538 51.846 42.4016 51.5765 42.3889C48.6454 42.3686 45.7008 42.3889 42.763 42.3889L42.7495 42.3686Z" fill="#33669A"/>
<path d="M10.2783 42.352C7.39905 42.352 4.52211 42.352 1.64517 42.352C1.32275 42.352 0.867305 42.4986 0.718498 42.1852C0.547144 41.829 0.957496 41.5494 1.18071 41.2833C1.9518 40.3927 2.75897 39.5337 3.52555 38.6476C4.04187 38.0547 4.72503 37.615 5.15567 36.9521C5.58631 36.2893 6.15673 35.7414 6.67756 35.1484C6.79411 35.0093 6.9191 34.8776 7.05184 34.7538C7.85224 34.0571 8.49257 33.2139 9.19151 32.4248C9.43276 32.152 9.66048 31.8701 9.90624 31.6041C10.8081 30.6278 11.7686 29.6989 12.6118 28.673C13.6805 27.3586 14.9544 26.229 15.9623 24.8626C16.3297 24.382 16.7452 23.9401 17.2023 23.5437C17.8787 22.9327 18.3747 22.1638 18.9835 21.4942C19.4232 21.0117 19.7546 20.4074 20.3769 20.0895C20.5009 20.0264 20.5798 19.8641 20.679 19.7626C21.3689 18.9983 22.0318 18.2182 22.6563 17.3952C22.9374 17.0379 23.2547 16.7107 23.6033 16.4189C24.4037 15.72 25.0327 14.8677 25.7182 14.0673C26.1354 13.5516 26.5874 13.0649 27.071 12.6108C27.3709 12.3565 27.6402 12.0683 27.8736 11.7518C28.798 10.4351 30.0426 9.40696 31.0707 8.18719C31.4608 7.72498 31.8441 7.25827 32.2386 6.80057C32.4656 6.51703 32.7127 6.25028 32.9782 6.00242C33.7213 5.33413 34.3794 4.57688 34.9375 3.74776C35.0044 3.64609 35.0798 3.5503 35.1629 3.46142C35.3836 3.21306 35.6539 3.01385 35.9565 2.87674C36.2591 2.73962 36.5871 2.66767 36.9193 2.66553C42.7341 2.68807 48.5511 2.67905 54.3659 2.67905C54.4876 2.67905 54.6094 2.67905 54.7289 2.67905C54.9092 2.69484 55.1076 2.69258 55.2046 2.87972C55.3286 3.12096 55.1302 3.25399 55.0175 3.43211C54.3411 4.48504 53.3783 5.28544 52.6478 6.28651C52.1969 6.53001 52.0345 7.0328 51.6806 7.34169C51.3356 7.6341 51.0095 7.94814 50.7043 8.28188C50.6361 8.34138 50.5728 8.40622 50.5149 8.47578C49.8926 9.41372 49.0561 10.1623 48.3099 10.992L44.9279 14.7685C44.041 15.7576 43.1542 16.7474 42.2674 17.7379C42.1073 17.916 41.9201 18.0716 41.7443 18.2385C41.6361 18.3422 41.4895 18.4279 41.4264 18.5541C41.1445 19.1088 40.6711 19.4988 40.2585 19.9362C39.2416 20.9763 38.2784 22.0675 37.3725 23.2055C37.3177 23.2783 37.2566 23.3462 37.1899 23.4084C36.3895 24.1457 35.7897 25.0701 34.9532 25.7758C34.7575 25.965 34.5787 26.171 34.4189 26.3913C34.3242 26.5063 34.2543 26.6483 34.1483 26.7543C33.2577 27.6562 32.5182 28.7023 31.5735 29.5568C31.3666 29.7326 31.1838 29.935 31.0301 30.1588C30.8591 30.4076 30.6692 30.6428 30.462 30.8623C28.9626 32.524 27.4948 34.2127 25.9526 35.8225C25.1793 36.6275 24.5277 37.5406 23.6799 38.2824C23.1591 38.7333 22.7488 39.315 22.2843 39.8336C21.7026 40.4852 21.0961 41.1142 20.573 41.8177C20.4493 41.992 20.283 42.1317 20.0901 42.2237C19.8971 42.3156 19.6838 42.3567 19.4705 42.343C19.0782 42.3317 18.6836 42.343 18.2891 42.343L10.2783 42.352Z" fill="#03A7E0"/>
<path d="M88.0674 30.3941C88.0674 33.8151 88.0674 37.2355 88.0674 40.655C88.0761 40.9871 88.0611 41.3194 88.0223 41.6493C87.9479 42.1544 87.7473 42.3257 87.2422 42.3573C87.001 42.3753 86.7575 42.3686 86.5162 42.3686H68.0799C67.7785 42.3681 67.4774 42.3508 67.178 42.3167C67.1336 42.3082 67.0917 42.2895 67.0559 42.2618C67.02 42.2342 66.9912 42.1986 66.9716 42.1578C66.9521 42.1169 66.9424 42.0721 66.9434 42.0269C66.9444 41.9816 66.956 41.9373 66.9773 41.8973C67.0717 41.7441 67.1828 41.602 67.3088 41.4735C67.9153 40.8399 68.5263 40.2154 69.135 39.5863C69.2177 39.4978 69.2931 39.4028 69.3605 39.3022C70.1268 38.2509 71.0129 37.2922 72.0007 36.4456C72.2637 36.1975 72.496 35.919 72.6929 35.6159C73.3204 34.728 74.0465 33.9141 74.8574 33.1898C75.5473 32.516 76.1871 31.7925 76.7716 31.0254C77.3791 30.2729 78.0513 29.575 78.7805 28.9398C78.9033 28.8523 79.0114 28.7457 79.1006 28.6242C79.6666 27.6456 80.5143 26.9016 81.2493 26.0674C81.6078 25.6593 82.0182 25.2985 82.406 24.9175C82.4509 24.8767 82.4931 24.833 82.5322 24.7867C83.5604 23.3618 84.8974 22.2074 85.9864 20.8343C86.3246 20.4104 86.7011 20.0136 87.0776 19.6213C87.2486 19.451 87.4376 19.2998 87.6413 19.1704C87.6855 19.1404 87.737 19.1229 87.7903 19.1197C87.8437 19.1165 87.8969 19.1277 87.9444 19.1521C87.9919 19.1766 88.032 19.2134 88.0604 19.2586C88.0887 19.3039 88.1044 19.3559 88.1058 19.4094C88.1058 19.8603 88.0719 20.3112 88.0719 20.7622C88.0659 23.9758 88.0644 27.1864 88.0674 30.3941Z" fill="#33669A"/>
</svg>
