<svg width="101" height="22" viewBox="0 0 101 22" fill="none" xmlns="http://www.w3.org/2000/svg">
<path d="M89.2421 16.6961C89.2234 16.8481 89.2986 17.0114 89.1855 17.1527V16.7006C89.2053 16.6757 89.2223 16.6752 89.2421 16.6961Z" fill="white"/>
<path d="M89.1875 17.3789C89.3005 17.5202 89.2225 17.6835 89.244 17.8355C89.2242 17.8564 89.2061 17.8558 89.1875 17.831V17.3789Z" fill="white"/>
<path d="M89.2421 16.6961C89.224 16.6961 89.2065 16.7 89.1855 16.7006V16.3052C89.3065 16.4216 89.2183 16.5667 89.2421 16.6961Z" fill="white"/>
<path d="M89.1875 17.831C89.2056 17.831 89.2231 17.831 89.244 17.8355C89.2203 17.9655 89.3084 18.1102 89.1875 18.2266V17.831Z" fill="white"/>
<path d="M80.9375 21.448C81.0147 21.4031 81.1024 21.3794 81.1918 21.3794C81.2811 21.3794 81.3689 21.4031 81.4461 21.448H80.9375Z" fill="white"/>
<path d="M43.6918 19.3221C43.4369 19.7177 43.1877 20.0771 42.8758 20.3896C42.0971 21.1705 41.176 21.5073 40.0792 21.2757C39.5779 21.17 39.201 20.8614 38.8851 20.4749C38.1217 19.5425 37.6171 18.4615 37.1334 17.3715C36.1094 15.0603 35.4381 12.6451 35.0629 10.1497C34.9131 9.1551 34.8092 8.14811 34.9838 7.14226C35.1307 6.29463 35.5489 5.97931 36.3722 6.20195C37.6719 6.55457 38.6597 7.28014 38.9716 8.68834C39.04 9.02997 39.0711 9.37804 39.0643 9.7264C39.0643 10.9696 39.0897 12.2128 39.1677 13.456C39.2502 14.7653 39.5395 16.0362 39.8695 17.2986C39.9927 17.7699 40.1178 18.2408 40.2447 18.7113C40.3397 19.0605 40.3442 19.0611 40.651 18.8469C41.3348 18.3688 41.7021 17.6902 41.888 16.8957C42.0496 16.2063 42.0355 15.4931 42.1706 14.8048C42.2683 14.3138 42.4531 13.851 42.8035 13.4763C43.3431 12.8971 44.0732 12.9022 44.5976 13.5001C45.0135 13.9742 45.1983 14.5494 45.2701 15.1688C45.3537 15.8859 45.374 16.6131 45.6091 17.3059C45.8318 17.9558 46.2047 18.4926 46.7788 18.8848C46.9715 19.017 47.0546 19.0249 47.1315 18.7718C47.9226 16.1458 48.3746 13.4718 48.3181 10.721C48.3068 10.1197 48.2916 9.51732 48.3746 8.91607C48.4679 8.22779 48.742 7.63784 49.2522 7.16712C49.8009 6.65854 50.4304 6.3031 51.1735 6.17031C51.7623 6.0652 52.1607 6.30762 52.337 6.88006C52.4618 7.3154 52.5084 7.76939 52.4749 8.22101C52.2562 12.2535 51.1097 16.0192 49.1556 19.5403C48.9923 19.8347 48.7804 20.1054 48.5837 20.3777C47.7655 21.5169 46.4517 21.5548 45.4334 21.0745C44.7468 20.7501 44.2648 20.202 43.8545 19.5815L43.6918 19.3221Z" fill="white"/>
<path d="M33.6418 8.19446C33.513 10.8357 33.3373 13.4746 33.3508 16.1209C33.3565 17.2296 33.452 18.3129 33.9425 19.3312C34.0684 19.5948 34.1364 19.8822 34.1419 20.1743C34.1499 20.4879 33.9978 20.6716 33.7187 20.7614C33.4321 20.8566 33.1282 20.8884 32.8281 20.8547C32.6021 20.8275 32.3902 20.8643 32.2173 21.0084C31.8217 21.3367 31.399 21.474 30.9176 21.2344C30.4163 20.9858 30.335 20.4998 30.3027 20.0166C30.2462 19.169 30.3316 18.3214 30.3802 17.4783C30.5118 15.2044 30.6164 12.9293 30.5689 10.6503C30.5531 9.86485 30.4152 9.10481 30.0863 8.3815C29.9394 8.05884 29.8111 7.72261 29.793 7.36039C29.7738 6.97443 29.8891 6.80999 30.2558 6.69302C30.5344 6.60394 30.8286 6.57467 31.1193 6.60713C31.3451 6.63194 31.5719 6.57014 31.7539 6.43421C32.6846 5.78606 33.5249 6.18331 33.6226 7.32027C33.6564 7.61042 33.6629 7.9031 33.6418 8.19446Z" fill="white"/>
<path d="M29.6037 3.31483C29.598 1.6693 31.2532 0.521608 32.797 1.10082C34.1266 1.59979 34.4742 3.34704 33.4632 4.45349C32.7891 5.19149 31.5809 5.45143 30.6627 5.05643C29.9846 4.76428 29.6065 4.14551 29.6037 3.31483Z" fill="white"/>
<path d="M95.9436 19.9104C94.8185 17.7517 93.8917 15.5123 93.3515 13.1327C93.1068 12.0539 92.9559 10.9537 92.7423 9.86819C92.5604 8.95558 92.3123 8.05991 91.7879 7.27218C91.4155 6.71105 90.9154 6.34939 90.2447 6.23807C89.5875 6.12844 88.9325 6.17196 88.2798 6.27932C87.9374 6.33583 87.6017 6.40986 87.2904 6.5839C87.1254 6.67658 87.0559 6.75795 87.1807 6.94839C87.3446 7.19872 87.4633 7.48013 87.621 7.73273C87.7215 7.89039 87.7131 8.00227 87.621 8.16332C86.3687 10.3542 85.1012 12.5371 83.923 14.7698C83.8473 14.9127 83.7575 14.9585 83.597 14.9704C83.1229 15.0054 82.6228 14.9562 82.2046 15.2433C81.6347 15.6337 81.1671 16.1555 80.841 16.7645C80.619 17.1753 80.745 17.4957 81.1648 17.7252C81.3835 17.8444 81.6293 17.889 81.8876 17.9755C81.5757 18.4072 81.2762 18.8158 80.9834 19.2289C80.6681 19.6725 80.3415 20.1115 80.1177 20.6111C79.9556 20.975 80.0833 21.2157 80.463 21.3496C80.563 21.3852 80.689 21.34 80.7653 21.4496H80.9349C81.1014 21.4044 81.2769 21.4044 81.4434 21.4496H81.5564C81.5779 21.3705 81.6446 21.3971 81.6949 21.3931C82.7906 21.3366 83.6552 20.8772 84.27 19.9544C84.636 19.3968 84.9631 18.8145 85.2487 18.2117C85.2956 18.1139 85.3307 18.0139 85.4866 18.0201C86.1455 18.0467 86.8084 18.0201 87.4644 18.0834C88.3968 18.1767 89.2823 18.0523 90.1299 17.6675C90.3419 17.5715 90.4125 17.6206 90.4803 17.8314C90.7323 18.6457 90.9996 19.4566 91.4042 20.211C91.9252 21.1818 92.861 21.5728 93.9296 21.2892C94.6422 21.0999 95.2383 20.6919 95.8509 20.3076C96.0311 20.1912 96.0419 20.1002 95.9436 19.9104ZM89.4575 15.1195C88.5454 15.1122 87.6334 15.1162 86.6756 15.1162L88.7161 10.8028C88.863 11.4668 88.9986 12.0624 89.1264 12.6592C89.2885 13.4096 89.4383 14.1629 89.6095 14.9116C89.6468 15.0738 89.6372 15.1207 89.4575 15.1195Z" fill="white"/>
<path d="M99.985 5.05609C99.7539 3.70666 98.4887 2.68838 97.1268 2.75449C95.3677 2.84039 94.1319 4.36442 94.4506 6.1015C94.6636 7.26219 95.3796 8.02788 96.5177 8.31269C97.6557 8.59749 98.6333 8.26974 99.407 7.37521C99.746 6.9836 99.8878 6.49819 100.04 6.019V5.17137C99.9799 5.15216 99.9924 5.0996 99.985 5.05609ZM97.2195 7.93521C96.6054 7.92924 96.0181 7.68265 95.5838 7.24842C95.1495 6.81418 94.9028 6.22694 94.8967 5.61282C94.8907 4.9987 95.1257 4.40669 95.5513 3.96396C95.977 3.52123 96.5593 3.26309 97.1732 3.24499C98.5113 3.23482 99.5465 4.24915 99.5567 5.57597C99.5589 5.88456 99.5002 6.19055 99.3838 6.47636C99.2674 6.76216 99.0957 7.02215 98.8785 7.24138C98.6613 7.46062 98.4029 7.63477 98.1182 7.75384C97.8335 7.87291 97.5281 7.93455 97.2195 7.93521Z" fill="white"/>
<path d="M23.1041 10.5417C22.3559 9.53363 21.4089 8.7572 20.3013 8.17742C18.25 7.10376 16.0434 6.58275 13.7463 6.40644C11.133 6.19663 8.50513 6.54924 6.03962 7.44055C4.30367 8.06497 2.76664 8.99058 1.61781 10.4796C0.125984 12.4144 0.127114 14.6132 1.6229 16.5486C2.42702 17.5884 3.4357 18.3761 4.60487 18.9565C7.04096 20.1657 9.63979 20.6602 11.7543 20.6721C14.5329 20.6721 16.5011 20.3466 18.5083 19.634C20.2544 19.0124 21.8135 18.1083 22.99 16.6323C24.5327 14.6968 24.5767 12.5241 23.1041 10.5417ZM4.76648 15.5269C4.36583 16.0067 4.13641 16.5441 4.23869 17.1894C4.27203 17.3968 4.37148 17.5731 4.44381 17.7726C3.15485 16.9346 2.05915 15.9355 1.68562 14.3612C1.37822 13.0654 1.75004 11.9262 2.54399 10.9062C3.49616 9.68282 4.78004 8.91486 6.1888 8.33734C7.78348 7.68354 9.45105 7.35579 11.1667 7.24277C13.5219 7.09245 15.8173 7.36709 18.0443 8.1633C18.2545 8.23506 18.4554 8.33162 18.6428 8.45092C18.0907 8.45092 17.5374 8.46562 16.9854 8.44471C16.7249 8.4351 16.5604 8.51591 16.3943 8.71878C15.2641 10.0942 14.1232 11.4578 12.984 12.8241C12.9569 12.8569 12.9382 12.9106 12.8568 12.897C12.7985 12.5912 12.714 12.291 12.6042 11.9997C11.6091 9.55454 8.84697 9.33981 7.2766 10.6435C6.85693 10.9919 6.43688 11.3406 6.01645 11.6894C5.92773 11.7629 5.8085 11.8426 5.96785 11.9398C6.09783 12.0195 6.09613 12.3545 6.38037 12.1522C6.99405 11.7154 7.62356 11.3154 8.37626 11.1441C9.48326 10.8921 10.362 11.2713 10.9259 12.2557C11.0763 12.5364 11.198 12.8315 11.2893 13.1366C11.3458 13.3062 11.3136 13.3706 11.1101 13.3706C9.8161 13.3706 8.54183 13.522 7.30711 13.93C6.33177 14.2555 5.4395 14.72 4.76648 15.5269ZM16.9667 9.98909C16.5553 11.0718 16.1422 12.1539 15.7371 13.2389C15.6947 13.3519 15.6342 13.3711 15.5303 13.37C15.1081 13.3661 14.6826 13.37 14.1904 13.37L16.8995 9.91959C16.9565 9.90828 16.9871 9.92297 16.9667 9.98909ZM11.6057 14.4589C11.239 14.9669 10.8013 15.4196 10.306 15.8033C9.659 16.3198 9.00633 16.8289 8.1683 17.008C7.88181 17.0696 7.56931 17.1267 7.35458 16.8617C7.12854 16.5859 7.2054 16.2666 7.35175 15.9835C7.65803 15.3919 8.17791 15.05 8.7899 14.8325C9.68161 14.5143 10.6123 14.4866 11.6057 14.4589ZM21.2495 17.0431C19.9334 18.1732 18.3856 18.8553 16.7209 19.2695C13.2111 20.142 9.74377 20.0233 6.33855 18.7451C6.22553 18.7027 6.11252 18.6541 5.9995 18.6084C6.02662 18.4886 6.10574 18.5519 6.16903 18.5598C8.15135 18.6847 9.74829 17.8195 11.2045 16.5972C11.9088 15.9993 12.558 15.3395 13.1445 14.6256C13.1845 14.5697 13.238 14.5249 13.3001 14.4952C13.3621 14.4656 13.4307 14.4521 13.4993 14.4561C14.0452 14.4657 14.5911 14.4646 15.1381 14.4561C15.3138 14.4561 15.3421 14.4917 15.2788 14.6629C14.903 15.6801 14.547 16.708 14.1667 17.7246C14.0819 17.9506 14.1255 17.9879 14.3487 17.9834C14.9793 17.9717 15.6101 17.9717 16.2411 17.9834C16.4395 17.9873 16.5378 17.932 16.6056 17.7376C16.9582 16.7306 17.3318 15.7309 17.6832 14.7234C17.7522 14.5256 17.8347 14.4493 18.0545 14.4516C19.2502 14.464 20.4459 14.4516 21.6411 14.4589C22.1463 14.4589 22.6323 14.4092 23.0617 14.0323C22.8476 15.3071 22.1695 16.2525 21.2495 17.0431ZM22.9448 13.37C21.3557 13.3655 19.7673 13.3672 18.1511 13.3672C18.4806 12.4348 18.801 11.5267 19.1225 10.6192C19.3005 10.1168 19.487 9.6167 19.6577 9.11151C19.7057 8.96967 19.7435 8.93012 19.8871 9.01488C20.9105 9.62122 21.8231 10.3468 22.4582 11.3741C22.8029 11.9324 23.0301 12.532 23.0736 13.1937C23.0815 13.2954 23.0956 13.3711 22.9459 13.3706L22.9448 13.37Z" fill="white"/>
<path d="M6.17054 18.5592L6.00102 18.6078L5.83827 18.5553C5.81171 18.5033 5.8298 18.4869 5.88348 18.4988C5.98067 18.5067 6.08069 18.5056 6.17054 18.5592Z" fill="white"/>
<path d="M16.968 9.9893L16.9004 9.91776C16.907 9.88553 16.9225 9.85581 16.9452 9.832C16.9679 9.8082 16.9968 9.79128 17.0287 9.78319C17.0402 9.8197 17.0405 9.85878 17.0297 9.89548C17.0188 9.93217 16.9974 9.96483 16.968 9.9893Z" fill="white"/>
<path d="M5.88435 18.4998L5.83893 18.5566L5.68164 18.4941C5.76795 18.4214 5.827 18.4532 5.88435 18.4998Z" fill="white"/>
<path d="M66.9283 19.8974C66.0789 18.279 65.3661 16.5926 64.7974 14.8557C64.269 13.2632 64.0735 11.6002 63.748 9.96426C63.557 9.00644 63.3123 8.06387 62.7591 7.23263C62.4031 6.69806 61.9233 6.35279 61.2955 6.21547C60.6875 6.08098 60.0761 6.13467 59.4697 6.21547C59.0533 6.27198 58.6368 6.34601 58.2593 6.55905C58.0937 6.65285 58.0333 6.73309 58.1559 6.91957C58.3169 7.16086 58.4288 7.4338 58.5848 7.67792C58.6939 7.84745 58.691 7.97628 58.5882 8.15542C57.3343 10.3316 56.0798 12.5105 54.9044 14.7319C54.8145 14.9014 54.714 14.9545 54.5326 14.9512C54.1184 14.9438 53.6849 14.9297 53.3199 15.1405C52.64 15.5356 52.1003 16.1329 51.7761 16.8493C51.6303 17.1606 51.7292 17.4065 52.0106 17.6082C52.1942 17.7425 52.4073 17.8307 52.6322 17.8653C52.8955 17.9037 52.8328 17.9992 52.7265 18.1416C52.557 18.3677 52.3931 18.5971 52.2287 18.826C51.8331 19.3758 51.4189 19.9121 51.1206 20.5212C50.9149 20.9416 51.0708 21.2276 51.528 21.3321C51.8546 21.4067 52.1846 21.3943 52.5124 21.3773C53.5408 21.3253 54.4427 21.0044 55.0869 20.1409C55.539 19.5357 55.8922 18.8751 56.2126 18.1953C56.2883 18.036 56.3759 17.9834 56.5516 17.9885C57.05 18.0026 57.549 17.9936 57.8592 17.9936C59.1024 18.1405 60.1348 18.0936 61.1119 17.637C61.3113 17.5438 61.3803 17.576 61.4509 17.7851C61.7159 18.6044 61.9753 19.4278 62.3918 20.1884C62.9004 21.1134 63.7621 21.5039 64.7872 21.2807C65.558 21.1112 66.1914 20.6732 66.8419 20.2635C67.0091 20.1567 67.0232 20.0771 66.9283 19.8974ZM60.466 15.0732C59.5449 15.0681 58.6232 15.0732 57.6586 15.0732C58.3367 13.6435 58.9962 12.2478 59.6573 10.8458L59.7138 10.8639C60.0032 12.1915 60.2912 13.5188 60.5779 14.846C60.5971 14.928 60.6835 15.0743 60.466 15.0732Z" fill="white"/>
<path d="M79.5105 14.5132C79.4986 12.328 79.4958 10.1429 79.4766 7.95823C79.467 6.86761 78.7544 6.15843 77.6802 6.19572C76.7031 6.22963 75.725 6.28896 74.7536 6.41102C72.5989 6.68113 70.8087 7.69038 69.2773 9.18334C68.5473 9.87839 68.0961 10.8159 68.0081 11.82C67.8912 13.0853 68.4252 14.0612 69.3977 14.8274C70.091 15.3733 70.8856 15.7316 71.7309 16.0452C71.406 16.2238 71.1155 16.3775 70.8313 16.5402C69.652 17.2149 68.5246 17.9608 67.5804 18.9514C67.0085 19.5521 67.078 20.3336 67.7386 20.836C68.3574 21.3067 69.1264 21.2632 69.7768 20.7094C71.745 19.0328 73.9382 17.767 76.4251 17.0234C76.7003 16.9409 76.7133 17.0234 76.7026 17.2494C76.6585 18.1535 76.6246 19.0577 76.5929 19.9618C76.576 20.4495 76.7664 20.8428 77.1784 21.1106C77.7028 21.4497 78.2616 21.4757 78.8126 21.2016C79.3455 20.936 79.5557 20.4794 79.5472 19.8821C79.5223 18.0925 79.5195 16.3023 79.5105 14.5132ZM76.502 14.0493C75.2203 14.055 73.9432 14.0239 72.7159 13.5972C72.1361 13.3966 71.6518 13.0525 71.2206 12.6191C70.9618 12.3597 70.92 12.0777 71.02 11.7437C71.193 11.1651 71.5851 10.7526 72.0372 10.3926C73.2341 9.44215 74.6038 8.97482 76.1301 8.95448C76.6387 8.9477 76.6387 8.94374 76.6387 9.46306V11.4974C76.6387 12.2787 76.6387 13.0604 76.6387 13.8425C76.641 13.9419 76.6766 14.0487 76.502 14.0493Z" fill="white"/>
<path d="M97.5489 5.80631C97.6145 5.78088 97.6733 5.75771 97.7332 5.73567C98.1163 5.59327 98.3683 5.23162 98.331 4.87561C98.2903 4.48627 98.0191 4.21898 97.5964 4.14495C97.1008 4.05906 96.6019 4.12066 96.1046 4.09975C95.9774 4.0941 95.9746 4.16756 95.9746 4.2608C95.9746 5.1721 95.9746 6.08377 95.9746 6.99582C95.9746 7.09641 95.9944 7.14161 96.1114 7.15122C96.4708 7.18173 96.4798 7.17947 96.4798 6.80764C96.4798 6.62908 96.473 6.44995 96.4798 6.27194C96.4871 6.13463 96.4063 5.93007 96.5233 5.87638C96.6844 5.80066 96.8974 5.83909 97.0692 5.92385C97.168 5.97783 97.2528 6.05429 97.3167 6.14706C97.4523 6.33693 97.5778 6.53584 97.6947 6.73814C97.9569 7.19021 97.9541 7.19304 98.5271 7.11957C98.2112 6.66637 97.9987 6.15892 97.5489 5.80631ZM96.6318 5.43448C96.5035 5.44239 96.4668 5.38476 96.4764 5.26835C96.4826 5.19376 96.4764 5.11803 96.4764 5.04231C96.4764 4.53091 96.4764 4.53091 96.985 4.53373C97.126 4.53084 97.2671 4.53821 97.4071 4.55577C97.6292 4.59872 97.7812 4.7253 97.784 4.9745C97.7868 5.2237 97.6427 5.36554 97.4156 5.39493C97.1596 5.42657 96.8946 5.41697 96.6318 5.43448Z" fill="white"/>
</svg>
