<svg width="84" height="37" viewBox="0 0 84 37" fill="none" xmlns="http://www.w3.org/2000/svg">
<path d="M0.5 17.5273H0.570636C0.704562 17.846 0.727165 18.1619 0.553118 18.4744H0.5V17.5273Z" fill="white"/>
<path d="M80.3521 0C80.1922 0.127145 80.0131 0.0429466 79.8379 0.0565087C79.8423 0.0379685 79.845 0.0190457 79.8458 0H80.3521Z" fill="white"/>
<path d="M70.142 12.0899C70.142 10.267 70.142 8.44361 70.142 6.61989C70.142 5.85024 70.1561 5.08059 70.1499 4.31151C70.1499 4.11655 70.2064 4.06287 70.3991 4.064C71.77 4.07229 73.1406 4.07229 74.5107 4.064C74.7254 4.064 74.7729 4.13238 74.7718 4.33581C74.739 11.3467 74.7117 18.3579 74.6898 25.3695C74.6898 25.6125 74.6169 25.6628 74.3869 25.6611C73.0168 25.6505 71.6463 25.6505 70.2754 25.6611C70.0567 25.6611 69.9708 25.5921 69.903 25.3887C69.029 22.7637 68.1486 20.1405 67.2618 17.5193C67.2363 17.4243 67.188 17.337 67.1211 17.265V17.586C67.1132 20.169 67.1013 22.752 67.103 25.335C67.103 25.6 67.0267 25.665 66.7673 25.6622C65.4488 25.6483 64.1302 25.6483 62.8117 25.6622C62.5591 25.6622 62.4727 25.617 62.4727 25.3407C62.4922 22.8543 62.5002 20.3662 62.4964 17.8764C62.4964 17.6182 62.5998 17.5673 62.8095 17.5295C63.4836 17.4091 64.138 17.2215 64.746 16.8971C65.063 16.7276 65.3569 16.5281 65.5936 16.2077C64.7183 15.9681 63.8628 15.733 63.0061 15.5002C62.5037 15.364 62.5009 15.3663 62.5049 14.8538C62.5088 14.3045 62.7609 13.8191 62.9366 13.319C63.0276 13.0585 63.309 13.1336 63.522 13.189C64.3131 13.3958 65.1043 13.6168 65.8954 13.8197C66.0485 13.8592 66.2395 14.0186 66.3588 13.8818C66.4899 13.7309 66.3588 13.5213 66.2977 13.3461C66.2658 13.2574 66.2192 13.1747 66.1599 13.1014C65.4586 12.2482 64.6573 11.5073 63.687 10.9677C63.3745 10.7942 63.0457 10.6377 62.6699 10.6806C62.5003 10.6998 62.5066 10.6117 62.5071 10.497C62.51 9.9912 62.5071 9.48488 62.5105 8.97913C62.5139 7.43983 62.5229 5.90053 62.5156 4.36124C62.5156 4.12051 62.5851 4.06231 62.8191 4.064C64.2419 4.07455 65.6652 4.07455 67.0889 4.064C67.2906 4.064 67.3759 4.12051 67.4415 4.31829C68.2752 6.82426 69.1152 9.32835 69.9618 11.8306C69.9906 11.9176 70.0183 12.004 70.0505 12.0905L70.142 12.0899Z" fill="white"/>
<path d="M38.8096 12.9388C38.1834 13.1298 37.7653 13.487 37.5845 14.0724C37.2533 15.1421 38.0433 16.183 39.1825 16.1819C39.7408 16.1819 40.2997 16.1649 40.858 16.1412C41.0547 16.1327 41.1276 16.1728 41.1276 16.3921C41.1298 18.3111 41.1407 20.2302 41.1603 22.1492C41.1649 22.2215 41.153 22.2938 41.1256 22.3609C41.0982 22.4279 41.056 22.4879 41.0021 22.5363C39.9985 23.5003 39.0002 24.4689 38.0071 25.442C37.9539 25.4983 37.8891 25.5426 37.8173 25.5718C37.7454 25.6011 37.6682 25.6146 37.5907 25.6115C35.788 25.6058 33.985 25.6058 32.1817 25.6115C32.1094 25.6147 32.0373 25.601 31.9712 25.5716C31.9051 25.5422 31.8468 25.4978 31.8008 25.442C30.9343 24.4926 30.0626 23.547 29.1856 22.6052C29.1339 22.5545 29.0934 22.4936 29.0665 22.4264C29.0397 22.3592 29.0271 22.2871 29.0296 22.2147C29.0403 21.2541 29.0449 20.2934 29.0358 19.3368C29.0358 19.1373 29.0923 19.0938 29.2822 19.0949C30.6633 19.1032 32.0445 19.1032 33.426 19.0949C33.6006 19.0949 33.6644 19.135 33.6577 19.3209C33.6435 19.7317 33.6577 20.1437 33.6475 20.5545C33.6413 20.7387 33.6791 20.8122 33.886 20.8088C34.6873 20.7956 35.4886 20.7956 36.2898 20.8088C36.4899 20.8088 36.5368 20.7483 36.534 20.5573C36.5204 19.4503 36.5136 18.3428 36.5198 17.2358C36.5198 17.025 36.4599 16.9724 36.2548 16.9741C34.863 16.9826 33.4712 16.9741 32.0794 16.982C31.997 16.9867 31.9145 16.9732 31.8379 16.9425C31.7613 16.9118 31.6923 16.8648 31.6358 16.8046C30.8337 15.995 30.0275 15.1907 29.2172 14.3917C29.1596 14.3404 29.1141 14.2771 29.0839 14.2061C29.0537 14.1352 29.0396 14.0585 29.0426 13.9814C29.0607 11.7881 29.0727 9.59503 29.0788 7.40211C29.0767 7.32462 29.0919 7.24764 29.1232 7.17671C29.1544 7.10578 29.201 7.04265 29.2596 6.99186C30.2123 6.06625 31.1611 5.1363 32.1059 4.20203C32.1624 4.14127 32.2313 4.09338 32.308 4.0616C32.3846 4.02981 32.4672 4.01488 32.5501 4.01781C34.3207 4.02421 36.0913 4.02421 37.8619 4.01781C37.9397 4.01376 38.0174 4.02685 38.0896 4.05614C38.1617 4.08543 38.2266 4.13022 38.2795 4.18733C39.152 5.07452 40.0288 5.957 40.91 6.83477C40.9643 6.88257 41.0075 6.94158 41.0368 7.00772C41.0661 7.07387 41.0807 7.14557 41.0795 7.2179C41.0795 8.19889 41.0869 9.17931 41.1072 10.1597C41.1117 10.3813 41.0507 10.4423 40.8247 10.4423C39.4643 10.4321 38.1041 10.4321 36.7442 10.4423C36.534 10.4423 36.4746 10.3858 36.482 10.1778C36.495 9.79921 36.4741 9.41891 36.482 9.03974C36.482 8.8753 36.4317 8.81935 36.2644 8.82105C35.4733 8.82821 34.6822 8.82821 33.891 8.82105C33.7215 8.82105 33.6769 8.88151 33.6769 9.04143C33.6769 10.0117 33.6769 10.9819 33.6565 11.9516C33.6526 12.1703 33.747 12.185 33.9193 12.1839C35.1427 12.1765 36.3661 12.1839 37.589 12.1692C37.884 12.1652 38.1117 12.2257 38.3032 12.4608C38.4445 12.6275 38.6236 12.7637 38.8096 12.9388Z" fill="white"/>
<path d="M0.552734 18.477L0.570252 17.5299C2.04626 17.5299 3.52227 17.5299 4.99827 17.5181C5.22035 17.5181 5.2503 17.5949 5.24804 17.7865C5.24013 18.7036 5.25143 19.6207 5.2407 20.5379C5.23787 20.7436 5.28986 20.8057 5.50064 20.8023C6.28046 20.7899 7.06084 20.7877 7.84066 20.8023C8.07856 20.8074 8.1119 20.717 8.11021 20.5113C8.1006 19.3518 8.10343 18.1916 8.10286 17.0321C8.09985 12.815 8.09457 8.59797 8.08704 4.38091C8.08704 4.0639 8.17689 4.00795 8.47017 4.01191C9.78795 4.0283 11.1057 4.02604 12.4258 4.01191C12.671 4.01191 12.7168 4.08254 12.7162 4.31253C12.7095 10.2271 12.7081 16.1417 12.7123 22.0563C12.7166 22.1283 12.7056 22.2004 12.6801 22.2679C12.6546 22.3354 12.6151 22.3967 12.5642 22.4479C11.6126 23.4338 10.6655 24.4244 9.72297 25.4197C9.66963 25.4824 9.60276 25.5321 9.52738 25.5652C9.45201 25.5983 9.37011 25.6139 9.28785 25.6107C7.50632 25.6035 5.7246 25.6035 3.94269 25.6107C3.86054 25.6163 3.77821 25.6027 3.70221 25.571C3.6262 25.5393 3.55861 25.4904 3.50475 25.4281C2.58705 24.4245 1.66407 23.4262 0.735823 22.4332C0.67801 22.3745 0.633075 22.3043 0.603886 22.2273C0.574697 22.1502 0.561895 22.0679 0.566297 21.9856C0.564602 20.817 0.557255 19.6467 0.552734 18.477Z" fill="white"/>
<path d="M47.2364 16.0568C47.4116 16.0534 47.4851 16.102 47.5495 16.271C48.3576 18.4064 50.3026 19.6389 52.5663 19.3479C54.4096 19.1111 55.667 18.0386 56.3569 16.3162C56.4417 16.106 56.5016 16.054 56.7316 16.1252C57.9149 16.4931 58.9247 17.1729 59.9322 17.8606C59.9582 17.8781 60.004 17.899 60.004 17.9171C60.008 18.3477 60.3555 18.3737 60.646 18.4646C60.7025 18.4827 60.7398 18.5121 60.7313 18.5737C60.6748 19.0201 60.7618 19.4903 60.3521 19.8559C59.4909 20.625 58.5269 21.2437 57.5527 21.8495C55.8753 22.8911 54.1454 23.8455 52.3697 24.7089C52.275 24.7607 52.1696 24.7898 52.0617 24.7939C51.9538 24.7981 51.8465 24.7771 51.7481 24.7326C49.2176 23.7346 46.9222 22.3231 44.7145 20.7566C44.268 20.4396 43.834 20.1057 43.3865 19.7898C43.3152 19.7469 43.2564 19.6862 43.2158 19.6137C43.1751 19.5412 43.1541 19.4593 43.1548 19.3761C43.1277 18.3748 43.0983 17.374 43.0497 16.3738C43.0395 16.1529 43.1175 16.1127 43.3125 16.1156C43.9663 16.1263 46.5809 16.0681 47.2364 16.0568Z" fill="white"/>
<path d="M51.9662 9.91681C51.0345 9.91347 50.1233 10.1901 49.3507 10.7108C48.5781 11.2315 47.9797 11.9723 47.6331 12.8372C47.5473 13.0491 47.4495 13.1141 47.2235 13.1073C45.9494 13.0696 44.6743 13.0453 43.3984 13.0344C43.1723 13.0344 43.1254 12.9649 43.1362 12.7462C43.1803 11.8517 43.2532 10.96 43.3255 10.0677C43.3526 9.73372 43.5074 9.49355 43.721 9.27204C44.2296 8.74651 44.8365 8.3436 45.4513 7.95652C47.471 6.68451 49.6121 5.63514 51.7317 4.54622C51.8323 4.49479 51.9142 4.47276 52.025 4.52983C54.6843 5.90356 57.3685 7.23434 59.7729 9.04488C59.8989 9.13925 60.0091 9.25509 60.1329 9.35285C60.5171 9.65686 60.6663 10.062 60.6748 10.5395C60.6811 10.8231 60.7037 11.1062 60.7426 11.3872C60.7675 11.5742 60.7076 11.6669 60.5369 11.7471C59.2892 12.3303 58.0155 12.8344 56.6632 13.1242C56.4847 13.1627 56.4169 13.1378 56.3434 12.9581C55.6465 11.2538 54.3871 10.2504 52.5652 9.94788C52.3686 9.9185 52.1657 9.92754 51.9662 9.91681Z" fill="white"/>
<path d="M51.612 36.4216C51.169 37.0205 50.3846 36.9867 49.8653 36.7985C49.2595 36.5775 49.0397 36.0463 49.0357 35.4349C49.0256 33.9702 49.0357 32.5049 49.0256 31.0397C49.0256 30.8639 49.0691 30.8136 49.2516 30.8102C50.0326 30.8006 50.0326 30.7944 50.0326 31.5607C50.0326 32.7511 50.0326 33.9421 50.0326 35.1337C50.0326 35.3112 50.0213 35.4886 50.0851 35.6638C50.1733 35.9034 50.3304 36.0164 50.5858 36.0096C50.8508 36.0028 50.9955 35.8474 51.0497 35.6141C51.0881 35.4282 51.1055 35.2387 51.1017 35.049C51.1062 33.7312 51.1113 32.4134 51.0978 31.0934C51.0978 30.8498 51.1633 30.8001 51.3939 30.8046C52.1013 30.817 52.1019 30.8046 52.1019 31.5019C52.1019 32.6822 52.1019 33.8627 52.1019 35.0433C52.0978 35.2119 52.1082 35.3806 52.133 35.5474C52.1822 35.8231 52.3279 36.0062 52.6416 36.0045C52.9552 36.0028 53.0936 35.8124 53.1422 35.5389C53.1651 35.3717 53.1738 35.2029 53.1682 35.0343C53.1682 33.7278 53.1761 32.4202 53.1626 31.1137C53.1626 30.8622 53.2298 30.7989 53.4756 30.804C54.1684 30.8193 54.169 30.8074 54.169 31.5115C54.169 32.7236 54.169 33.9357 54.169 35.1479C54.169 35.3999 54.169 35.6508 54.0995 35.8994C53.9153 36.5391 53.4728 36.8685 52.81 36.8889C52.3336 36.9092 51.8996 36.8646 51.612 36.4216Z" fill="white"/>
<path d="M35.2333 31.0879C35.508 30.8336 35.7877 30.6895 36.1301 30.7172C36.8715 30.7737 37.2965 31.1885 37.3168 31.9655C37.3507 33.1454 37.3394 34.3264 37.3462 35.5063C37.3462 35.8753 37.3405 36.2443 37.3496 36.6133C37.353 36.767 37.3219 36.8269 37.1456 36.8314C36.3511 36.8535 36.3511 36.8608 36.3511 36.068C36.3511 34.9192 36.3511 33.7698 36.3511 32.621C36.3538 32.442 36.3411 32.2632 36.3132 32.0864C36.2674 31.8236 36.1222 31.6473 35.8312 31.6343C35.5487 31.6213 35.3791 31.7473 35.2842 32.0129C35.2277 32.1678 35.2345 32.3237 35.2339 32.4803C35.2339 33.8404 35.2277 35.2 35.239 36.5596C35.239 36.7857 35.1751 36.8354 34.9564 36.8326C34.2264 36.8241 34.2264 36.8326 34.2264 36.0979C34.2264 33.7472 34.2297 31.3964 34.2207 29.0462C34.2207 28.8044 34.271 28.7241 34.5281 28.7298C35.2305 28.7467 35.2311 28.7337 35.2311 29.4378L35.2333 31.0879Z" fill="white"/>
<path d="M27.9498 34.3646C27.9498 33.6164 27.9187 32.8671 27.9577 32.1212C28.0068 31.1747 28.5765 30.6836 29.5281 30.696C30.4412 30.7079 31.0284 31.2368 31.0464 32.1562C31.0758 33.652 31.0555 35.1512 31.0606 36.6447C31.0606 36.7764 31.0301 36.821 30.8877 36.8301C30.0462 36.8866 30.0468 36.8899 30.0468 36.0525C30.0468 34.8726 30.0468 33.6927 30.0468 32.5122C30.0515 32.333 30.0289 32.154 29.9796 31.9816C29.9106 31.7624 29.7677 31.6296 29.519 31.6239C29.2704 31.6183 29.1014 31.7217 29.0104 31.963C28.9421 32.1477 28.9539 32.337 28.9539 32.5247C28.9539 33.8628 28.946 35.2015 28.9585 36.5368C28.9585 36.7769 28.8974 36.834 28.6623 36.8301C27.9277 36.8176 27.9277 36.83 27.9277 36.1011V34.3646H27.9498Z" fill="white"/>
<path d="M20.306 32.8055C20.306 31.5414 20.3116 30.2779 20.3009 29.0138C20.3009 28.8019 20.3614 28.7527 20.5642 28.7527C21.3079 28.7527 21.3079 28.7454 21.3079 29.4828C21.3079 31.8415 21.3039 34.2007 21.3135 36.5599C21.3135 36.808 21.2762 36.9047 20.9965 36.899C20.3065 36.8775 20.306 36.8933 20.306 36.1887V32.8055Z" fill="white"/>
<path d="M10.4961 33.158C10.4961 31.999 10.5007 30.8411 10.4922 29.681C10.4922 29.4775 10.5137 29.3883 10.7555 29.3922C11.4958 29.403 11.4963 29.3922 11.4963 30.1268V30.1585C11.4963 30.7801 11.4963 30.788 12.1083 30.8089C12.2615 30.8145 12.3225 30.8552 12.3005 31.0061C12.2988 31.0272 12.2988 31.0483 12.3005 31.0694C12.3089 31.6774 12.3089 31.691 11.6992 31.7006C11.4511 31.7046 11.4963 31.847 11.4963 31.9882C11.4963 33.514 11.4913 35.0437 11.5009 36.5716C11.5009 36.8067 11.4613 36.8983 11.1969 36.8921C10.4967 36.874 10.4961 36.8881 10.4961 36.1908V33.158Z" fill="white"/>
<path d="M22.9008 33.691C22.9274 33.1452 22.85 32.5965 22.9636 32.0523C23.1382 31.2193 23.9869 30.6396 24.8108 30.7995C24.821 30.7995 24.8368 30.7967 24.8414 30.7995C25.0171 31.0182 24.8871 31.2725 24.9205 31.5081C24.9318 31.5889 24.9572 31.6742 24.8041 31.7082C24.1011 31.8652 23.935 32.0755 23.922 32.8157C23.909 33.5842 23.9259 34.3539 23.909 35.123C23.8835 36.243 23.206 36.8634 22.086 36.8267C21.9419 36.8222 21.8679 36.7968 21.8882 36.6368C21.8984 36.5529 21.8984 36.4681 21.8882 36.3842C21.8526 36.0842 21.8786 35.8796 22.2792 35.8621C22.6013 35.848 22.7714 35.5796 22.8443 35.2631C22.9602 34.7438 22.8658 34.2154 22.9008 33.691Z" fill="white"/>
<path d="M59.0949 34.4286C59.1362 33.764 59.0209 32.9503 59.1554 32.1434C59.1894 31.9265 59.2672 31.7188 59.3841 31.533C59.501 31.3472 59.6545 31.1872 59.8353 31.0627C60.0161 30.9382 60.2204 30.8519 60.4357 30.809C60.6509 30.7661 60.8727 30.7675 61.0874 30.8131C61.0976 30.8131 61.1129 30.8097 61.1179 30.8131C61.3242 31.0234 61.1688 31.2827 61.2123 31.5161C61.2332 31.6291 61.2123 31.7145 61.0547 31.7184C60.3828 31.7342 60.107 32.1174 60.1047 32.8678C60.1008 34.1014 60.0985 35.335 60.1087 36.5686C60.1087 36.7731 60.0595 36.8308 59.851 36.8296C59.0949 36.8245 59.0949 36.8336 59.0949 36.0899V34.4286Z" fill="white"/>
<path d="M42.2673 34.4364C42.3057 33.7933 42.2074 33.0033 42.3192 32.2162C42.4848 31.0566 43.3364 30.7735 44.2485 30.8125C44.2694 30.8125 44.3004 30.808 44.3095 30.8193C44.4954 31.0453 44.3496 31.3149 44.3931 31.5612C44.4169 31.6912 44.3366 31.7144 44.2236 31.72C43.4641 31.7613 43.2884 32.2151 43.2816 32.8434C43.2692 34.0749 43.2692 35.3065 43.2816 36.538C43.2816 36.768 43.2364 36.838 42.9934 36.8329C42.2656 36.8177 42.2656 36.8329 42.2656 36.0983L42.2673 34.4364Z" fill="white"/>
<path d="M38.2773 14.5703C38.2824 14.0522 38.7249 13.6165 39.2487 13.6046C39.3108 13.599 39.3733 13.6082 39.4311 13.6314C39.489 13.6546 39.5405 13.6911 39.5816 13.738C39.7411 13.9205 39.9131 14.0918 40.0964 14.2505C40.3128 14.4279 40.3224 14.6257 40.2422 14.8681C40.166 15.0943 40.0131 15.2866 39.81 15.4118C39.6068 15.537 39.3663 15.5872 39.1301 15.5536C38.894 15.5183 38.6784 15.3998 38.522 15.2195C38.3657 15.0392 38.2789 14.809 38.2773 14.5703Z" fill="white"/>
<path d="M80.8822 0.107366C80.7285 0.0762864 80.5488 0.127145 80.416 0H80.3521C80.1877 0.0808074 80.0046 -0.00960648 79.8379 0.0565087C79.7434 0.0590271 79.6486 0.0663828 79.5548 0.0785471C77.7765 0.388215 76.5746 2.12416 76.882 3.93583C77.173 5.6537 78.8892 6.8935 80.6144 6.63299C82.1401 6.40244 83.3624 5.08861 83.4551 3.63803C83.5828 1.66362 82.1763 0.370132 80.8822 0.107366ZM80.1256 5.82209C79.4719 5.81627 78.8473 5.55108 78.3891 5.08482C77.9308 4.61856 77.6766 3.98941 77.6821 3.33571C77.6821 1.94899 78.779 0.867974 80.1725 0.875885C80.8261 0.879174 81.4518 1.14149 81.9124 1.60535C82.373 2.0692 82.6308 2.69673 82.6295 3.3504C82.6228 4.00944 82.3558 4.6391 81.8867 5.1021C81.4177 5.56511 80.7846 5.82392 80.1256 5.82209Z" fill="white"/>
<path d="M27.6864 25.253C27.539 24.4472 27.4039 23.6391 27.2615 22.8316C26.9157 20.8214 26.5698 18.8125 26.224 16.8049C25.8533 14.6614 25.4824 12.518 25.1113 10.3748C24.7599 8.34558 24.4005 6.31748 24.0614 4.28599C24.0207 4.04244 23.9213 4.01588 23.7156 4.01645C21.8175 4.02266 19.9193 4.02944 18.0218 4.01079C17.7144 4.00797 17.6381 4.11986 17.5923 4.38488C17.1301 7.05586 16.6616 9.7259 16.1869 12.395C15.4184 16.719 14.6461 21.0425 13.8701 25.3654C13.8401 25.531 13.8492 25.6129 14.0577 25.6112C15.4497 25.6033 16.8415 25.6033 18.2331 25.6112C18.4094 25.6112 18.4591 25.5497 18.4863 25.3852C18.64 24.4737 18.8168 23.5656 18.9672 22.6536C18.9999 22.4558 19.0621 22.3953 19.2644 22.397C20.3712 22.4072 21.4782 22.4072 22.5854 22.397C22.7826 22.397 22.8623 22.4535 22.8934 22.6428C23.0392 23.5238 23.2059 24.402 23.3353 25.2852C23.3748 25.5553 23.4686 25.6242 23.7308 25.6169C24.3315 25.5954 24.9328 25.6101 25.534 25.6101C26.1556 25.6101 26.7772 25.5881 27.3988 25.6192C27.7311 25.6327 27.7339 25.4982 27.6864 25.253ZM21.8197 17.6966C21.2298 17.6876 20.6404 17.6899 20.0504 17.6966C19.899 17.6966 19.8515 17.6656 19.8809 17.4989C20.2199 15.6194 20.55 13.7382 20.8845 11.8576C20.9081 11.7605 20.9368 11.6647 20.9704 11.5705L22.0005 17.4763C22.0299 17.643 21.9971 17.6989 21.8197 17.6966Z" fill="white"/>
<path d="M47.2893 28.7313C47.0672 28.7313 47.0276 28.8098 47.0304 29.0053C47.0395 29.6789 47.0338 30.3525 47.0338 31.073C46.2461 30.3949 44.9724 30.7147 44.8707 31.8641C44.7577 33.1339 44.7791 34.4115 44.8645 35.6841C44.885 35.9655 44.997 36.2325 45.1834 36.4444C45.3698 36.6563 45.6204 36.8015 45.8969 36.8578C46.1387 36.9103 46.3992 36.8883 46.6513 36.8883C47.2796 36.8883 47.7752 36.5063 47.9572 35.9016C48.0346 35.644 48.0318 35.3818 48.0318 35.1196C48.0318 33.2333 48.0318 31.347 48.0318 29.4608C48.0329 28.7228 48.0329 28.733 47.2893 28.7313ZM47.0231 35.3366C47.0101 35.7621 46.8027 35.9887 46.458 36.0045C46.0992 36.0203 45.8522 35.8044 45.8325 35.3648C45.8019 34.6811 45.8155 33.995 45.8155 33.3096C45.8155 32.9519 45.8042 32.5914 45.8392 32.2359C45.8822 31.8053 46.0969 31.6194 46.4608 31.6335C46.7937 31.6465 47.0028 31.8647 47.0163 32.2693C47.0338 32.7852 47.0203 33.3022 47.0203 33.8187H47.0237C47.0265 34.3251 47.0383 34.8314 47.0231 35.3366Z" fill="white"/>
<path d="M15.8219 32.1167C15.7727 31.264 15.3167 30.817 14.477 30.7153C13.4909 30.5961 12.5879 31.0611 12.5879 32.3185C12.5879 32.8135 12.5879 33.3085 12.5879 33.8035C12.5879 34.3309 12.5879 34.8583 12.5879 35.3857C12.5879 35.4067 12.5879 35.4276 12.5879 35.449C12.615 36.1616 13.0247 36.716 13.6734 36.8618C13.9147 36.9154 14.1752 36.8917 14.4272 36.8917C15.1517 36.8917 15.7411 36.4046 15.8044 35.6858C15.9095 34.4957 15.8908 33.3034 15.8219 32.1167ZM14.8143 35.3564C14.8002 35.7768 14.5883 35.9966 14.2368 36.0056C13.8701 36.0147 13.6152 35.7909 13.6073 35.3682C13.5885 34.3251 13.5894 33.2817 13.6101 32.2382C13.6186 31.8285 13.8656 31.6211 14.2255 31.6245C14.5855 31.6279 14.7985 31.837 14.8132 32.2586C14.8313 32.7739 14.8177 33.291 14.8177 33.8075C14.8177 34.3239 14.8313 34.8427 14.8143 35.3564Z" fill="white"/>
<path d="M64.8501 34.9898C64.8337 34.9181 64.8128 34.8734 64.7371 34.8768C64.4545 34.8847 64.1516 34.8344 63.8973 34.922C63.7634 34.9683 63.8708 35.2695 63.8408 35.4532C63.8373 35.4845 63.832 35.5157 63.825 35.5464C63.7408 35.8216 63.5854 36.0098 63.2695 36.0109C62.9536 36.0121 62.7768 35.8634 62.688 35.5453C62.627 35.3266 62.6587 35.1051 62.6394 34.8864C62.6231 34.7039 62.6892 34.6112 62.8581 34.5332C63.4571 34.2552 64.0448 33.9518 64.6416 33.6703C64.7924 33.5991 64.8676 33.5257 64.8563 33.346C64.8388 32.999 64.8563 32.6509 64.8501 32.3034C64.8393 31.323 64.294 30.7596 63.3159 30.7144C62.4072 30.6726 61.8003 31.1664 61.6771 32.0548C61.5952 32.6413 61.6675 33.233 61.6426 33.7161C61.6426 34.0642 61.6426 34.3061 61.6426 34.5485C61.6426 34.7909 61.6353 35.0333 61.6426 35.2752C61.6963 36.7682 62.67 37.0835 63.8431 36.8314C64.58 36.6704 65.0258 35.7747 64.8501 34.9898ZM62.6462 32.3458C62.6581 32.0813 62.7101 31.8197 62.9949 31.6863C63.3758 31.5089 63.7741 31.7247 63.8301 32.1644C63.8595 32.3904 63.8403 32.6278 63.8437 32.8594C63.8488 32.8956 63.8423 32.9324 63.8248 32.9645C63.8074 32.9965 63.7801 33.0221 63.747 33.0374C63.3859 33.2211 63.0282 33.4127 62.6417 33.6155C62.6423 33.1635 62.6281 32.7538 62.6462 32.3458Z" fill="white"/>
<path d="M19.6696 33.9658C19.6696 33.3204 19.6742 32.8045 19.6696 32.2886C19.66 31.3884 19.1995 30.8374 18.3134 30.7171C17.4438 30.599 16.4871 30.9601 16.4283 32.1157C16.3684 33.3023 16.3441 34.4935 16.4498 35.6802C16.4735 35.9666 16.5904 36.2373 16.7825 36.4509C16.9747 36.6645 17.2316 36.8092 17.5138 36.863C17.7472 36.9099 17.9959 36.8878 18.2372 36.8884C18.9407 36.8884 19.4628 36.477 19.6109 35.7882C19.7482 35.1428 19.6295 34.4868 19.6696 33.9658ZM18.661 35.1564C18.6652 35.2934 18.6486 35.4301 18.6118 35.5621C18.5124 35.8831 18.3084 36.0306 17.98 36.0063C17.6918 35.9854 17.485 35.7938 17.4545 35.4762C17.4299 35.1823 17.4203 34.8873 17.4257 34.5924C17.4257 33.7911 17.4206 32.9899 17.4534 32.1897C17.4709 31.7523 17.8196 31.5314 18.227 31.641C18.483 31.7099 18.6497 31.9648 18.6576 32.3417C18.6672 32.8265 18.6576 33.3114 18.6576 33.7962C18.6598 34.2502 18.661 34.7036 18.661 35.1564Z" fill="white"/>
<path d="M41.308 36.3736C41.2995 36.247 41.2967 36.1204 41.295 35.9939C41.2786 34.7292 41.278 33.4634 41.2424 32.1987C41.2102 31.0527 40.4338 30.4894 39.316 30.7657C38.5967 30.9488 37.9536 32.0224 38.2599 32.6695C38.3887 32.9424 38.8137 32.726 39.1013 32.77C39.281 32.7966 39.2234 32.6452 39.2313 32.5531C39.2392 32.4609 39.2279 32.3615 39.2437 32.2705C39.268 32.127 39.2765 31.9772 39.3567 31.8473C39.463 31.6777 39.6172 31.6178 39.8128 31.6269C39.9738 31.6342 40.0953 31.6902 40.1705 31.8388C40.3965 32.2699 40.2439 32.9543 39.8416 33.2283C39.6076 33.3877 39.3516 33.5137 39.107 33.6572C38.2531 34.1579 37.9265 34.8603 38.0926 35.8362C38.2056 36.5036 38.6577 36.8748 39.3285 36.8974C39.7348 36.911 40.0331 36.7432 40.3626 36.3793C40.3021 36.8002 40.4756 36.8754 40.7519 36.8285C40.7939 36.8259 40.836 36.8259 40.8779 36.8285L41.3481 36.8065C41.3357 36.6612 41.3181 36.5188 41.308 36.3736ZM40.2343 35.3728C40.2202 35.7396 39.997 35.982 39.7014 36.0103C39.3935 36.0396 39.1793 35.9102 39.1211 35.6085C39.0335 35.1564 39.0906 34.7326 39.4873 34.415C39.7133 34.2325 39.9885 34.1172 40.2388 33.8499C40.2394 34.4128 40.253 34.8948 40.2349 35.3751L40.2343 35.3728Z" fill="white"/>
<path d="M58.0917 35.1303C58.0821 34.1612 58.0917 33.1921 58.0742 32.2235C58.0584 31.4324 57.6956 30.8803 57.1074 30.7673C55.7811 30.5113 54.9713 31.2194 55.0821 32.6163C55.1098 32.9649 55.5748 32.6993 55.8297 32.7688C55.958 32.8033 56.0891 32.7852 56.0557 32.5874C56.0484 32.5351 56.0484 32.4821 56.0557 32.4298C56.0755 32.2738 56.08 32.1122 56.1269 31.9641C56.2015 31.7296 56.3705 31.6166 56.6304 31.6223C56.8904 31.6279 57.0011 31.7918 57.0559 32.0077C57.2029 32.5891 57.0107 33.0373 56.4874 33.343C56.3179 33.4436 56.1377 33.5345 55.9653 33.6334C55.0759 34.142 54.7487 34.8404 54.921 35.852C55.034 36.5018 55.4861 36.8691 56.1371 36.8957C56.5519 36.9132 56.8542 36.7374 57.1695 36.4035C57.113 36.8776 57.3922 36.8369 57.6555 36.8267C57.8329 36.8199 58.0104 36.8267 58.1884 36.8267C58.0985 36.2458 58.0974 35.6875 58.0917 35.1303ZM56.9226 35.7796C56.7756 35.9989 56.5564 36.0492 56.314 36.0057C56.0908 35.9633 55.9704 35.7966 55.9393 35.5897C55.8647 35.0947 55.9467 34.6517 56.4044 34.3466C56.6186 34.2036 56.8525 34.0883 57.0729 33.838C57.0729 34.3805 57.0729 34.8308 57.0729 35.2812C57.0742 35.4589 57.0218 35.6323 56.9226 35.7796Z" fill="white"/>
<path d="M80.6929 3.50871C81.319 3.33918 81.5518 3.01934 81.4908 2.44917C81.4416 1.99088 81.1212 1.72755 80.5567 1.70891C80.0515 1.69195 79.5452 1.69986 79.04 1.68969C78.8981 1.6863 78.8343 1.71738 78.836 1.87956C78.8428 2.84021 78.836 3.7969 78.8399 4.75529C78.8399 4.83327 78.8151 4.91238 78.9467 4.93951C79.3932 5.03218 79.5203 4.93951 79.5203 4.49083C79.5203 4.30096 79.5203 4.11166 79.5203 3.92179C79.5203 3.59347 79.6401 3.50758 79.9537 3.62116C80.0722 3.66826 80.1728 3.75175 80.2408 3.85963C80.3945 4.08566 80.551 4.3117 80.7036 4.53773C80.9957 4.97228 81.2042 5.04631 81.74 4.88244C81.415 4.41737 81.1986 3.87658 80.6929 3.50871ZM79.7672 3.05212C79.5875 3.06455 79.5124 3.02838 79.5135 2.8193C79.5186 2.25421 79.5062 2.25421 80.0628 2.26608C80.1888 2.26608 80.3142 2.26213 80.4403 2.26608C80.6787 2.27456 80.8064 2.39436 80.8081 2.6396C80.8081 2.89672 80.6782 3.02838 80.4273 3.03856C80.2074 3.04816 79.9865 3.03629 79.7672 3.05212Z" fill="white"/>
</svg>
