<svg width="21" height="20" viewBox="0 0 21 20" fill="none" xmlns="http://www.w3.org/2000/svg">
<g clip-path="url(#clip0_1941_3649)">
<path d="M17.2285 2.91006C16.3117 1.98399 15.2197 1.24973 14.0161 0.750111C12.8126 0.250494 11.5216 -0.00448012 10.2185 5.95697e-05C4.75851 5.95697e-05 0.308516 4.45006 0.308516 9.91006C0.308516 11.6601 0.768516 13.3601 1.62851 14.8601L0.228516 20.0001L5.47851 18.6201C6.92851 19.4101 8.55851 19.8301 10.2185 19.8301C15.6785 19.8301 20.1285 15.3801 20.1285 9.92006C20.1285 7.27006 19.0985 4.78006 17.2285 2.91006ZM10.2185 18.1501C8.73851 18.1501 7.28851 17.7501 6.01851 17.0001L5.71851 16.8201L2.59851 17.6401L3.42851 14.6001L3.22851 14.2901C2.40626 12.977 1.96965 11.4593 1.96851 9.91006C1.96851 5.37006 5.66851 1.67006 10.2085 1.67006C12.4085 1.67006 14.4785 2.53006 16.0285 4.09006C16.796 4.85402 17.4042 5.76272 17.8179 6.76348C18.2316 7.76425 18.4425 8.83717 18.4385 9.92006C18.4585 14.4601 14.7585 18.1501 10.2185 18.1501ZM14.7385 11.9901C14.4885 11.8701 13.2685 11.2701 13.0485 11.1801C12.8185 11.1001 12.6585 11.0601 12.4885 11.3001C12.3185 11.5501 11.8485 12.1101 11.7085 12.2701C11.5685 12.4401 11.4185 12.4601 11.1685 12.3301C10.9185 12.2101 10.1185 11.9401 9.17851 11.1001C8.43851 10.4401 7.94851 9.63006 7.79851 9.38006C7.65851 9.13006 7.77851 9.00006 7.90851 8.87006C8.01851 8.76006 8.15851 8.58006 8.27851 8.44006C8.39851 8.30006 8.44851 8.19006 8.52851 8.03006C8.60851 7.86006 8.56851 7.72006 8.50851 7.60006C8.44851 7.48006 7.94851 6.26006 7.74851 5.76006C7.54851 5.28006 7.33851 5.34006 7.18851 5.33006H6.70851C6.53851 5.33006 6.27851 5.39006 6.04851 5.64006C5.82851 5.89006 5.18851 6.49006 5.18851 7.71006C5.18851 8.93006 6.07851 10.1101 6.19851 10.2701C6.31851 10.4401 7.94851 12.9401 10.4285 14.0101C11.0185 14.2701 11.4785 14.4201 11.8385 14.5301C12.4285 14.7201 12.9685 14.6901 13.3985 14.6301C13.8785 14.5601 14.8685 14.0301 15.0685 13.4501C15.2785 12.8701 15.2785 12.3801 15.2085 12.2701C15.1385 12.1601 14.9885 12.1101 14.7385 11.9901Z" fill="white"/>
</g>
<defs>
<clipPath id="clip0_1941_3649">
<rect width="20" height="20" fill="white" transform="translate(0.177734)"/>
</clipPath>
</defs>
</svg>
