<svg width="15" height="20" viewBox="0 0 15 20" fill="none" xmlns="http://www.w3.org/2000/svg">
<path fill-rule="evenodd" clip-rule="evenodd" d="M7.32059 1.42857C5.80506 1.42857 4.35161 2.03061 3.27998 3.10225C2.20834 4.17388 1.6063 5.62733 1.6063 7.14286C1.6063 7.86483 1.94686 8.94616 2.54496 10.2414C3.13044 11.5093 3.91728 12.8884 4.7133 14.1717C5.50782 15.4527 6.30351 16.6255 6.90118 17.4788C7.05548 17.6991 7.19643 17.8979 7.32059 18.0716C7.44474 17.8979 7.5857 17.6991 7.73999 17.4788C8.33767 16.6255 9.13335 15.4527 9.92787 14.1717C10.7239 12.8884 11.5107 11.5093 12.0962 10.2414C12.6943 8.94616 13.0348 7.86483 13.0348 7.14286C13.0348 5.62733 12.4328 4.17388 11.3612 3.10225C10.2895 2.03061 8.83611 1.42857 7.32059 1.42857ZM7.32059 19.2857C6.74882 19.7138 6.74866 19.7136 6.74866 19.7136L6.74348 19.7067L6.72901 19.6873L6.67382 19.6128C6.62576 19.5477 6.55566 19.4523 6.46668 19.33C6.28874 19.0853 6.03514 18.7325 5.73106 18.2984C5.12338 17.4308 4.31193 16.2348 3.4993 14.9247C2.68818 13.617 1.86787 12.1827 1.248 10.8403C0.64075 9.52527 0.177734 8.19946 0.177734 7.14286C0.177734 5.24845 0.930283 3.43164 2.26982 2.09209C3.60937 0.752549 5.42618 0 7.32059 0C9.21499 0 11.0318 0.752549 12.3713 2.09209C13.7109 3.43164 14.4634 5.24845 14.4634 7.14286C14.4634 8.19946 14.0004 9.52527 13.3931 10.8403C12.7733 12.1827 11.953 13.617 11.1418 14.9247C10.3292 16.2348 9.51779 17.4308 8.91011 18.2984C8.60604 18.7325 8.35244 19.0853 8.1745 19.33C8.08551 19.4523 8.01542 19.5477 7.96735 19.6128L7.91216 19.6873L7.89769 19.7067L7.89282 19.7132C7.89282 19.7132 7.89236 19.7138 7.32059 19.2857ZM7.32059 19.2857L7.89282 19.7132C7.75795 19.8933 7.54561 20 7.32059 20C7.09556 20 6.88353 19.8937 6.74866 19.7136L7.32059 19.2857ZM7.32059 5.71429C6.53161 5.71429 5.89202 6.35388 5.89202 7.14286C5.89202 7.93184 6.53161 8.57143 7.32059 8.57143C8.10957 8.57143 8.74916 7.93184 8.74916 7.14286C8.74916 6.35388 8.10957 5.71429 7.32059 5.71429ZM4.46344 7.14286C4.46344 5.5649 5.74263 4.28571 7.32059 4.28571C8.89854 4.28571 10.1777 5.5649 10.1777 7.14286C10.1777 8.72081 8.89854 10 7.32059 10C5.74263 10 4.46344 8.72081 4.46344 7.14286Z" fill="white"/>
</svg>
