<svg width="21" height="20" viewBox="0 0 21 20" fill="none" xmlns="http://www.w3.org/2000/svg">
<g clip-path="url(#clip0_1941_3641)">
<path d="M15.5177 3.46C15.2804 3.46 15.0484 3.53038 14.851 3.66224C14.6537 3.79409 14.4999 3.98151 14.409 4.20078C14.3182 4.42005 14.2945 4.66133 14.3408 4.89411C14.3871 5.12689 14.5013 5.34071 14.6692 5.50853C14.837 5.67635 15.0508 5.79064 15.2836 5.83694C15.5164 5.88324 15.7576 5.85948 15.9769 5.76866C16.1962 5.67783 16.3836 5.52402 16.5155 5.32668C16.6473 5.12935 16.7177 4.89734 16.7177 4.66C16.7177 4.34174 16.5913 4.03652 16.3662 3.81147C16.1412 3.58643 15.836 3.46 15.5177 3.46ZM20.1177 5.88C20.0983 5.0503 19.9429 4.2294 19.6577 3.45C19.4034 2.78313 19.0077 2.17928 18.4977 1.68C18.0025 1.16743 17.3973 0.774176 16.7277 0.53C15.9504 0.236161 15.1285 0.07721 14.2977 0.0599999C13.2377 -5.58794e-08 12.8977 0 10.1777 0C7.45773 0 7.11773 -5.58794e-08 6.05773 0.0599999C5.22688 0.07721 4.40507 0.236161 3.62773 0.53C2.95941 0.776649 2.35466 1.16956 1.85773 1.68C1.34516 2.17518 0.95191 2.78044 0.707734 3.45C0.413895 4.22734 0.254944 5.04915 0.237734 5.88C0.177734 6.94 0.177734 7.28 0.177734 10C0.177734 12.72 0.177734 13.06 0.237734 14.12C0.254944 14.9508 0.413895 15.7727 0.707734 16.55C0.95191 17.2196 1.34516 17.8248 1.85773 18.32C2.35466 18.8304 2.95941 19.2234 3.62773 19.47C4.40507 19.7638 5.22688 19.9228 6.05773 19.94C7.11773 20 7.45773 20 10.1777 20C12.8977 20 13.2377 20 14.2977 19.94C15.1285 19.9228 15.9504 19.7638 16.7277 19.47C17.3973 19.2258 18.0025 18.8326 18.4977 18.32C19.0099 17.8226 19.406 17.2182 19.6577 16.55C19.9429 15.7706 20.0983 14.9497 20.1177 14.12C20.1177 13.06 20.1777 12.72 20.1777 10C20.1777 7.28 20.1777 6.94 20.1177 5.88ZM18.3177 14C18.3104 14.6348 18.1955 15.2637 17.9777 15.86C17.818 16.2952 17.5616 16.6884 17.2277 17.01C16.9033 17.3405 16.5109 17.5964 16.0777 17.76C15.4814 17.9778 14.8525 18.0927 14.2177 18.1C13.2177 18.15 12.8477 18.16 10.2177 18.16C7.58773 18.16 7.21773 18.16 6.21773 18.1C5.55862 18.1123 4.90232 18.0109 4.27773 17.8C3.86351 17.6281 3.48909 17.3728 3.17773 17.05C2.84582 16.7287 2.59257 16.3352 2.43773 15.9C2.19359 15.2952 2.05817 14.6519 2.03773 14C2.03773 13 1.97773 12.63 1.97773 10C1.97773 7.37 1.97773 7 2.03773 6C2.04221 5.35106 2.16068 4.70795 2.38773 4.1C2.56378 3.67791 2.83399 3.30166 3.17773 3C3.48154 2.65617 3.85702 2.3831 4.27773 2.2C4.88728 1.98004 5.52973 1.86508 6.17773 1.86C7.17773 1.86 7.54773 1.8 10.1777 1.8C12.8077 1.8 13.1777 1.8 14.1777 1.86C14.8125 1.86728 15.4414 1.98225 16.0377 2.2C16.4921 2.36865 16.9 2.64285 17.2277 3C17.5554 3.30718 17.8115 3.68273 17.9777 4.1C18.2 4.70893 18.315 5.35178 18.3177 6C18.3677 7 18.3777 7.37 18.3777 10C18.3777 12.63 18.3677 13 18.3177 14ZM10.1777 4.87C9.16354 4.87198 8.17269 5.17453 7.33038 5.73942C6.48808 6.30431 5.83211 7.1062 5.44536 8.04375C5.05862 8.98131 4.95845 10.0125 5.15752 11.0069C5.35659 12.0014 5.84597 12.9145 6.56381 13.631C7.28165 14.3474 8.19574 14.835 9.19059 15.0321C10.1854 15.2293 11.2164 15.1271 12.1532 14.7385C13.09 14.35 13.8906 13.6924 14.4538 12.849C15.0171 12.0056 15.3177 11.0142 15.3177 10C15.319 9.3251 15.1869 8.65661 14.9289 8.03296C14.671 7.40931 14.2923 6.84281 13.8146 6.36605C13.3369 5.88929 12.7696 5.51168 12.1455 5.25493C11.5213 4.99818 10.8526 4.86736 10.1777 4.87ZM10.1777 13.33C9.51912 13.33 8.8753 13.1347 8.32768 12.7688C7.78007 12.4029 7.35325 11.8828 7.10121 11.2743C6.84917 10.6659 6.78323 9.99631 6.91171 9.35035C7.0402 8.70439 7.35736 8.11104 7.82306 7.64533C8.28877 7.17963 8.88212 6.86247 9.52808 6.73398C10.174 6.6055 10.8436 6.67144 11.452 6.92348C12.0605 7.17552 12.5806 7.60234 12.9465 8.14995C13.3124 8.69757 13.5077 9.34139 13.5077 10C13.5077 10.4373 13.4216 10.8703 13.2542 11.2743C13.0869 11.6784 12.8416 12.0454 12.5324 12.3547C12.2231 12.6639 11.8561 12.9092 11.452 13.0765C11.048 13.2439 10.615 13.33 10.1777 13.33Z" fill="white"/>
</g>
<defs>
<clipPath id="clip0_1941_3641">
<rect width="20" height="20" fill="white" transform="translate(0.177734)"/>
</clipPath>
</defs>
</svg>
