<svg width="32" height="32" viewBox="0 0 32 32" fill="none" xmlns="http://www.w3.org/2000/svg">
<path d="M22.8093 18.7506C22.4172 18.5521 20.5076 17.6203 20.1507 17.4873C19.7939 17.3602 19.5347 17.2937 19.2747 17.6858C19.0204 18.0681 18.2715 18.9432 18.0427 19.1984C17.8139 19.4536 17.589 19.4731 17.2028 19.3001C16.8107 19.1016 15.5582 18.6939 14.071 17.3602C12.9094 16.3267 12.136 15.0537 11.9062 14.6616C11.6774 14.2744 11.8808 14.0554 12.0744 13.8618C12.2524 13.6838 12.4665 13.4139 12.665 13.1793C12.8537 12.9446 12.9143 12.7872 13.0522 12.533C13.1793 12.2582 13.1138 12.0441 13.017 11.8505C12.9202 11.6569 12.1409 9.73755 11.8153 8.97294C11.5044 8.2142 11.1788 8.31099 10.9392 8.31099C10.7153 8.29046 10.4552 8.29046 10.1961 8.29046C9.93702 8.29046 9.51364 8.38726 9.15676 8.75881C8.79988 9.15089 7.7918 10.0876 7.7918 11.9825C7.7918 13.8823 9.18707 15.7205 9.38067 15.9952C9.57915 16.2495 12.1253 20.1605 16.0314 21.8413C16.9632 22.2334 17.6868 22.468 18.2519 22.6616C19.1837 22.9569 20.0344 22.9159 20.7061 22.8191C21.4492 22.6968 23.0078 21.8765 23.3343 20.9603C23.6658 20.0383 23.6658 19.2747 23.569 19.1016C23.4722 18.9236 23.218 18.8268 22.8259 18.6538L22.8093 18.7506ZM15.7254 28.3552H15.7048C13.3924 28.3552 11.1064 27.7284 9.10983 26.557L8.64148 26.2774L3.75266 27.5505L5.06677 22.7936L4.75096 22.3048C3.46226 20.2524 2.77489 17.8843 2.77489 15.4506C2.77489 8.35206 8.58575 2.56174 15.7352 2.56174C19.1984 2.56174 22.4475 3.91106 24.8919 6.35547C27.3363 8.77934 28.6856 12.0285 28.6856 15.4712C28.6759 22.5648 22.8699 28.3552 15.7303 28.3552H15.7254ZM26.7506 4.49674C23.7763 1.62407 19.8652 0 15.7048 0C7.12399 0 0.136887 6.95679 0.131998 15.5064C0.131998 18.2363 0.844788 20.8997 2.20975 23.2571L0 31.2884L8.26015 29.1344C10.5364 30.3615 13.0981 31.0186 15.7058 31.0235H15.7107C24.2965 31.0235 31.2836 24.0667 31.2884 15.5112C31.2884 11.3714 29.6742 7.47501 26.7311 4.5466L26.7506 4.49674Z" fill="white"/>
</svg>
