<svg width="1239" height="350" viewBox="0 0 1239 350" fill="none" xmlns="http://www.w3.org/2000/svg">
<path d="M10 218.277H11.1392C13.2991 223.417 13.6636 228.512 10.8567 233.552H10.4283H10V218.277Z" fill="#FFD100"/>
<path d="M1163.69 130.592C1163.69 101.192 1163.69 71.7859 1163.69 42.3734C1163.69 29.9608 1163.92 17.5482 1163.82 5.14465C1163.82 2.00048 1164.73 1.13469 1167.84 1.15292C1189.94 1.28658 1212.05 1.28658 1234.15 1.15292C1237.61 1.15292 1238.37 2.25565 1238.36 5.53653C1237.83 118.605 1237.39 231.68 1237.03 344.761C1237.03 348.679 1235.86 349.49 1232.15 349.463C1210.05 349.293 1187.95 349.293 1165.84 349.463C1162.31 349.463 1160.93 348.351 1159.83 345.07C1145.74 302.735 1131.54 260.43 1117.24 218.155C1116.83 216.624 1116.05 215.216 1114.97 214.054V219.231C1114.84 260.889 1114.65 302.547 1114.68 344.205C1114.68 348.479 1113.45 349.527 1109.26 349.481C1088 349.257 1066.73 349.257 1045.47 349.481C1041.39 349.481 1040 348.752 1040 344.296C1040.32 304.196 1040.44 264.069 1040.38 223.915C1040.38 219.75 1042.05 218.93 1045.43 218.319C1056.3 216.378 1066.86 213.352 1076.66 208.121C1081.78 205.387 1086.52 202.17 1090.33 197.003C1076.22 193.139 1062.42 189.347 1048.6 185.593C1040.5 183.396 1040.46 183.433 1040.52 175.167C1040.58 166.308 1044.65 158.48 1047.48 150.414C1048.95 146.213 1053.49 147.425 1056.92 148.318C1069.68 151.654 1082.44 155.217 1095.2 158.489C1097.67 159.127 1100.75 161.697 1102.67 159.491C1104.79 157.058 1102.67 153.677 1101.69 150.852C1101.17 149.421 1100.42 148.087 1099.47 146.906C1088.16 133.144 1075.23 121.196 1059.58 112.493C1054.55 109.695 1049.24 107.171 1043.18 107.863C1040.45 108.173 1040.55 106.751 1040.56 104.901C1040.6 96.7448 1040.56 88.5791 1040.61 80.4224C1040.67 55.5972 1040.81 30.7719 1040.69 5.94665C1040.69 2.06428 1041.81 1.12558 1045.59 1.15292C1068.53 1.32304 1091.49 1.32304 1114.45 1.15292C1117.7 1.15292 1119.08 2.06427 1120.14 5.25401C1133.58 45.6695 1147.13 86.0546 1160.78 126.409C1161.25 127.813 1161.69 129.207 1162.21 130.602L1163.69 130.592Z" fill="#FFD100"/>
<path d="M650.733 144.5C640.635 147.581 633.891 153.34 630.975 162.782C625.634 180.034 638.375 196.821 656.748 196.803C665.752 196.803 674.765 196.529 683.769 196.147C686.941 196.01 688.117 196.657 688.117 200.193C688.153 231.143 688.329 262.092 688.645 293.042C688.719 294.207 688.527 295.375 688.085 296.456C687.643 297.537 686.962 298.504 686.093 299.284C669.908 314.832 653.807 330.453 637.792 346.146C636.932 347.055 635.888 347.77 634.73 348.241C633.571 348.713 632.325 348.931 631.075 348.88C602.003 348.789 572.925 348.789 543.84 348.88C542.675 348.932 541.513 348.712 540.447 348.237C539.381 347.763 538.44 347.047 537.698 346.146C523.724 330.836 509.664 315.586 495.52 300.396C494.687 299.578 494.034 298.596 493.601 297.512C493.168 296.428 492.965 295.266 493.005 294.099C493.178 278.606 493.251 263.113 493.105 247.684C493.105 244.467 494.017 243.765 497.079 243.783C519.352 243.917 541.629 243.917 563.908 243.783C566.724 243.783 567.754 244.43 567.645 247.428C567.417 254.054 567.645 260.698 567.481 267.323C567.381 270.294 567.991 271.479 571.327 271.424C584.25 271.212 597.173 271.212 610.096 271.424C613.322 271.424 614.078 270.449 614.033 267.369C613.814 249.515 613.705 231.653 613.805 213.8C613.805 210.4 612.839 209.553 609.531 209.58C587.084 209.717 564.637 209.58 542.191 209.708C540.862 209.782 539.532 209.564 538.296 209.07C537.06 208.576 535.948 207.816 535.037 206.846C522.101 193.789 509.099 180.818 496.031 167.931C495.102 167.105 494.368 166.083 493.881 164.939C493.394 163.795 493.166 162.557 493.215 161.315C493.506 125.942 493.701 90.5724 493.798 55.2058C493.765 53.9561 494.01 52.7146 494.514 51.5706C495.018 50.4266 495.77 49.4085 496.714 48.5894C512.08 33.6614 527.381 18.6636 542.619 3.59587C543.53 2.61608 544.642 1.8437 545.877 1.33108C547.113 0.818469 548.445 0.577627 549.782 0.624873C578.338 0.72816 606.894 0.72816 635.45 0.624873C636.704 0.559594 637.957 0.770617 639.121 1.24306C640.285 1.7155 641.33 2.43782 642.184 3.35893C656.256 17.6672 670.397 31.8995 684.608 46.0558C685.483 46.8268 686.181 47.7785 686.653 48.8452C687.125 49.912 687.36 51.0684 687.342 52.2348C687.342 68.0559 687.46 83.8679 687.789 99.6798C687.861 103.252 686.877 104.237 683.232 104.237C661.292 104.073 639.356 104.073 617.423 104.237C614.033 104.237 613.076 103.325 613.194 99.9715C613.404 93.8654 613.067 87.732 613.194 81.6168C613.194 78.9648 612.383 78.0626 609.686 78.0899C596.927 78.2053 584.168 78.2053 571.409 78.0899C568.675 78.0899 567.955 79.065 567.955 81.6442C567.955 97.2921 567.955 112.94 567.627 128.579C567.563 132.106 569.085 132.343 571.864 132.325C591.595 132.206 611.326 132.325 631.048 132.088C635.805 132.024 639.478 132.999 642.567 136.79C644.846 139.479 647.735 141.675 650.733 144.5Z" fill="#FFD100"/>
<path d="M0 233.6L0.282517 218.326C24.0871 218.326 47.8916 218.326 71.6962 218.134C75.2778 218.134 75.7608 219.374 75.7244 222.463C75.5968 237.254 75.779 252.046 75.6059 266.837C75.5603 270.154 76.3988 271.157 79.7981 271.102C92.3748 270.902 104.961 270.865 117.537 271.102C121.374 271.184 121.912 269.726 121.884 266.409C121.729 247.708 121.775 228.998 121.766 210.297C121.717 142.285 121.632 74.274 121.511 6.26278C121.511 1.15009 122.96 0.247851 127.69 0.311645C148.943 0.575938 170.195 0.539484 191.484 0.311645C195.44 0.311645 196.178 1.45084 196.169 5.16005C196.059 100.548 196.038 195.937 196.105 291.325C196.175 292.487 195.998 293.65 195.586 294.738C195.175 295.827 194.538 296.816 193.717 297.641C178.37 313.541 163.096 329.517 147.894 345.569C147.034 346.58 145.956 347.383 144.74 347.916C143.525 348.45 142.204 348.701 140.877 348.649C112.145 348.534 83.4101 348.534 54.6721 348.649C53.3472 348.739 52.0194 348.521 50.7937 348.01C49.5679 347.499 48.4777 346.71 47.6091 345.705C32.8087 329.52 17.9233 313.419 2.95279 297.404C2.02041 296.457 1.29571 295.326 0.824955 294.083C0.354201 292.84 0.147737 291.513 0.21873 290.186C0.191389 271.339 0.0729083 252.465 0 233.6Z" fill="#FFD100"/>
<path d="M792.536 194.585C795.362 194.53 796.546 195.314 797.585 198.039C810.618 232.479 841.986 252.355 878.495 247.662C908.223 243.843 928.501 226.546 939.629 198.768C940.996 195.378 941.962 194.539 945.671 195.687C964.755 201.62 981.041 212.584 997.29 223.675C997.709 223.958 998.447 224.295 998.447 224.586C998.511 231.531 1004.12 231.95 1008.8 233.417C1009.71 233.709 1010.31 234.183 1010.18 235.176C1009.27 242.376 1010.67 249.959 1004.06 255.855C990.172 268.258 974.625 278.238 958.913 288.007C931.862 304.806 903.961 320.198 875.324 334.122C873.797 334.958 872.096 335.428 870.356 335.494C868.617 335.561 866.885 335.222 865.299 334.505C824.488 318.41 787.469 295.645 751.863 270.382C744.663 265.269 737.664 259.883 730.446 254.789C729.297 254.098 728.348 253.119 727.692 251.949C727.037 250.779 726.698 249.458 726.709 248.118C726.272 231.968 725.798 215.828 725.014 199.697C724.85 196.134 726.108 195.487 729.252 195.532C739.796 195.706 781.965 194.767 792.536 194.585Z" fill="#FFD100"/>
<path d="M868.812 95.5562C853.786 95.5024 839.09 99.9636 826.629 108.362C814.169 116.76 804.519 128.707 798.929 142.655C797.544 146.073 795.967 147.121 792.322 147.011C771.774 146.404 751.211 146.012 730.632 145.836C726.987 145.836 726.231 144.715 726.404 141.188C727.115 126.761 728.29 112.38 729.457 97.9895C729.894 92.6034 732.391 88.7302 735.836 85.1577C744.038 76.6821 753.826 70.1841 763.742 63.9414C796.314 43.4268 830.845 26.503 865.03 8.94117C866.652 8.11184 867.973 7.75643 869.76 8.6769C912.648 30.8319 955.937 52.2943 994.715 81.494C996.747 83.016 998.525 84.8842 1000.52 86.4609C1006.72 91.364 1009.12 97.8984 1009.26 105.599C1009.36 110.173 1009.73 114.738 1010.35 119.27C1010.76 122.286 1009.79 123.781 1007.04 125.075C986.914 134.48 966.372 142.609 944.563 147.285C941.684 147.904 940.59 147.503 939.405 144.605C928.165 117.119 907.854 100.936 878.472 96.0574C875.301 95.5835 872.029 95.7294 868.812 95.5562Z" fill="#FFD100"/>
<path d="M634.158 170.577C634.24 162.22 641.376 155.193 649.824 155.002C650.825 154.912 651.833 155.06 652.766 155.434C653.699 155.808 654.53 156.397 655.192 157.153C657.765 160.097 660.54 162.859 663.495 165.419C666.985 168.28 667.14 171.47 665.846 175.38C664.618 179.027 662.152 182.129 658.876 184.148C655.6 186.167 651.721 186.976 647.911 186.435C644.104 185.865 640.626 183.954 638.105 181.047C635.583 178.139 634.183 174.426 634.158 170.577Z" fill="#FFD100"/>
<path d="M455.03 343.201C452.651 330.205 450.473 317.173 448.176 304.149C442.599 271.73 437.021 239.331 431.444 206.954C425.466 172.383 419.484 137.815 413.499 103.251C407.831 70.5241 402.035 37.8156 396.566 5.05244C395.91 1.1245 394.306 0.696149 390.989 0.705263C360.377 0.805512 329.764 0.914868 299.161 0.614122C294.203 0.568554 292.973 2.37306 292.235 6.6473C284.78 49.7239 277.225 92.7854 269.569 135.832C257.175 205.568 244.72 275.296 232.204 345.015C231.721 347.685 231.867 349.006 235.23 348.979C257.679 348.851 280.126 348.851 302.57 348.979C305.413 348.979 306.215 347.986 306.652 345.334C309.131 330.633 311.984 315.988 314.408 301.279C314.937 298.089 315.939 297.114 319.202 297.141C337.052 297.305 354.905 297.305 372.762 297.141C375.943 297.141 377.228 298.053 377.729 301.106C380.08 315.314 382.769 329.476 384.856 343.72C385.494 348.077 387.006 349.189 391.235 349.07C400.923 348.724 410.62 348.961 420.316 348.961C430.341 348.961 440.366 348.605 450.391 349.107C455.75 349.325 455.795 347.156 455.03 343.201ZM360.413 221.335C350.899 221.189 341.393 221.225 331.879 221.335C329.436 221.335 328.671 220.834 329.145 218.145C334.613 187.833 339.935 157.494 345.33 127.165C345.711 125.598 346.173 124.053 346.716 122.535L363.329 217.781C363.803 220.469 363.275 221.371 360.413 221.335Z" fill="#FFD100"/>
</svg>
