<svg width="32" height="34" viewBox="0 0 32 34" fill="none" xmlns="http://www.w3.org/2000/svg">
<path fill-rule="evenodd" clip-rule="evenodd" d="M15.6442 2.5369C13.635 2.5369 11.8854 3.65885 10.9915 5.31206C12.8401 5.52262 14.1411 5.91944 15.6442 6.62385C17.1473 5.91944 18.4483 5.52262 20.2969 5.31206C19.4033 3.65948 17.6539 2.5369 15.6442 2.5369ZM15.6442 0C12.2674 0 9.3933 2.13882 8.29693 5.133C6.53928 5.0738 4.32584 5.0738 1.3805 5.0738H1.26845C0.932036 5.0738 0.609401 5.20744 0.37152 5.44532C0.13364 5.6832 0 6.00584 0 6.34225V32.5569C0 32.8933 0.13364 33.2159 0.37152 33.4538C0.609401 33.6917 0.932036 33.8253 1.26845 33.8253H20.718C26.5559 33.8253 31.2884 29.0928 31.2884 23.2549V6.34225C31.2884 6.00584 31.1548 5.6832 30.9169 5.44532C30.679 5.20744 30.3564 5.0738 30.02 5.0738H29.9077C26.9626 5.0738 24.7492 5.0738 22.9915 5.133C21.8947 2.13797 19.0204 0 15.6442 0ZM2.5369 7.61091V31.2884H20.718C25.1549 31.2884 28.7515 27.6918 28.7515 23.2549V7.61091C24.8401 7.61282 22.4892 7.63163 20.7451 7.81514C18.9075 8.00857 17.7856 8.38108 16.2114 9.16815C16.0353 9.2562 15.8411 9.30203 15.6442 9.30203C15.4473 9.30203 15.2531 9.2562 15.077 9.16815C13.5029 8.38108 12.3809 8.00857 10.5434 7.81514C8.79924 7.63163 6.44838 7.61282 2.5369 7.61091ZM5.91944 16.9127C5.91944 14.8111 7.62318 13.1073 9.72479 13.1073C11.8264 13.1073 13.5301 14.8111 13.5301 16.9127C13.5301 19.0143 11.8264 20.718 9.72479 20.718C7.62318 20.718 5.91944 19.0143 5.91944 16.9127ZM9.72479 10.5704C6.22196 10.5704 3.38253 13.4098 3.38253 16.9127C3.38253 20.4155 6.22196 23.2549 9.72479 23.2549C9.96283 23.2549 10.1979 23.2418 10.4292 23.2162L14.7472 27.5345C14.865 27.6523 15.0048 27.7457 15.1588 27.8095C15.3127 27.8732 15.4776 27.9061 15.6442 27.9061C15.8108 27.9061 15.9758 27.8732 16.1297 27.8095C16.2836 27.7457 16.4234 27.6523 16.5412 27.5345L20.8592 23.2162C21.0905 23.2418 21.3256 23.2549 21.5637 23.2549C25.0665 23.2549 27.9059 20.4155 27.9059 16.9127C27.9059 13.4098 25.0665 10.5704 21.5637 10.5704C18.8652 10.5704 16.5605 12.2556 15.6442 14.6309C14.728 12.2556 12.4232 10.5704 9.72479 10.5704ZM18.1985 22.2894C17.0355 21.5602 16.1395 20.4746 15.6442 19.1944C15.1489 20.4746 14.2529 21.5602 13.09 22.2894L15.6442 24.8437L18.1985 22.2894ZM21.5637 13.1073C19.462 13.1073 17.7583 14.8111 17.7583 16.9127C17.7583 19.0143 19.462 20.718 21.5637 20.718C23.6653 20.718 25.369 19.0143 25.369 16.9127C25.369 14.8111 23.6653 13.1073 21.5637 13.1073ZM11.4161 16.9127C11.4161 17.3612 11.2379 17.7914 10.9207 18.1086C10.6035 18.4258 10.1733 18.6039 9.72479 18.6039C9.27624 18.6039 8.84606 18.4258 8.52888 18.1086C8.21171 17.7914 8.03352 17.3612 8.03352 16.9127C8.03352 16.4641 8.21171 16.0339 8.52888 15.7168C8.84606 15.3996 9.27624 15.2214 9.72479 15.2214C10.1733 15.2214 10.6035 15.3996 10.9207 15.7168C11.2379 16.0339 11.4161 16.4641 11.4161 16.9127ZM21.5637 18.6039C22.0122 18.6039 22.4424 18.4258 22.7596 18.1086C23.0767 17.7914 23.2549 17.3612 23.2549 16.9127C23.2549 16.4641 23.0767 16.0339 22.7596 15.7168C22.4424 15.3996 22.0122 15.2214 21.5637 15.2214C21.1151 15.2214 20.6849 15.3996 20.3678 15.7168C20.0506 16.0339 19.8724 16.4641 19.8724 16.9127C19.8724 17.3612 20.0506 17.7914 20.3678 18.1086C20.6849 18.4258 21.1151 18.6039 21.5637 18.6039Z" fill="white"/>
</svg>
