<svg width="32" height="36" viewBox="0 0 32 36" fill="none" xmlns="http://www.w3.org/2000/svg">
<path d="M1 8.55078L2.63789 31.4906C2.70619 32.4435 3.13294 33.3352 3.83221 33.9861C4.53149 34.637 5.45138 34.9988 6.40672 34.9988H25.8195C26.7749 34.9988 27.6948 34.637 28.394 33.9861C29.0933 33.3352 29.5201 32.4435 29.5884 31.4906L31.2263 8.55078H1Z" stroke="white" stroke-width="1.5" stroke-linecap="round" stroke-linejoin="round"/>
<path d="M9.5 8.55657C9.5 5.43381 12.3337 1 16.112 1C19.8903 1 22.724 5.43381 22.724 8.55657" stroke="white" stroke-width="1.5" stroke-linecap="round" stroke-linejoin="round"/>
<path d="M11.3906 27.4506C12.1708 28.3233 13.2798 29.3397 16.1135 29.3397C18.9472 29.3397 20.8363 27.6451 20.8363 25.5614C20.8363 23.4777 18.9472 22.7277 16.1135 21.7831C13.2798 20.8386 12.3352 19.0061 12.3352 18.0048C12.3352 15.9192 14.2243 14.2266 16.1135 14.2266C18.0026 14.2266 18.9472 14.2266 20.8363 16.1157" stroke="white" stroke-width="1.5" stroke-linecap="round" stroke-linejoin="round"/>
</svg>
