<svg width="25" height="26" viewBox="0 0 25 26" fill="none" xmlns="http://www.w3.org/2000/svg">
<path d="M0 0.248047H25V25.248H0V0.248047Z" fill="white" fill-opacity="0.01"/>
<path d="M8.85315 4.25195C9.23154 4.25195 9.58018 4.45717 9.76388 4.78803L11.038 7.08324C11.2049 7.38376 11.2127 7.74725 11.059 8.0547L9.83149 10.5097C9.83149 10.5097 10.1872 12.3386 11.676 13.8274C13.1648 15.3161 14.9875 15.6657 14.9875 15.6657L17.4421 14.4384C17.7498 14.2845 18.1135 14.2925 18.4141 14.4596L20.7159 15.7393C21.0464 15.9231 21.2514 16.2716 21.2514 16.6497V19.2922C21.2514 20.6379 20.0014 21.6098 18.7264 21.1795C16.1077 20.2959 12.0427 18.6136 9.46628 16.037C6.88982 13.4606 5.20739 9.39564 4.32377 6.77694C3.89355 5.50189 4.86548 4.25195 6.21112 4.25195H8.85315Z" fill="black"/>
</svg>
