<svg width="111" height="54" viewBox="0 0 111 54" fill="none" xmlns="http://www.w3.org/2000/svg">
<path d="M0 25.4082H0.0945071C0.273693 25.8662 0.303935 26.3201 0.0710695 26.7692H0.0355348H0V25.4082Z" fill="#EAE9E8"/>
<path d="M106.836 0.220703C106.622 0.401686 106.383 0.281835 106.148 0.30114C106.154 0.274749 106.158 0.247814 106.159 0.220703H106.836Z" fill="#7E7B7B"/>
<path d="M93.1753 17.5941C93.1753 14.9744 93.1753 12.3542 93.1753 9.73349C93.1753 8.62748 93.1942 7.52147 93.1858 6.41628C93.1858 6.13612 93.2615 6.05897 93.5193 6.0606C95.3535 6.07251 97.1872 6.07251 99.0203 6.0606C99.3076 6.0606 99.3712 6.15886 99.3696 6.45119C99.3258 16.526 99.2893 26.6013 99.26 36.6772C99.26 37.0264 99.1625 37.0987 98.8548 37.0962C97.0216 37.0811 95.1879 37.0811 93.3537 37.0962C93.0611 37.0962 92.9462 36.9971 92.8555 36.7048C91.6861 32.9326 90.5081 29.1631 89.3216 25.3962C89.2875 25.2598 89.2229 25.1344 89.1334 25.0308V25.4921C89.1228 29.2039 89.1069 32.9158 89.1092 36.6277C89.1092 37.0085 89.0071 37.1019 88.6601 37.0978C86.896 37.0778 85.1318 37.0778 83.3677 37.0978C83.0297 37.0978 82.9141 37.0329 82.9141 36.6358C82.9403 33.0628 82.9509 29.4873 82.9458 25.9095C82.9458 25.5384 83.0842 25.4653 83.3647 25.4109C84.2667 25.2379 85.1422 24.9683 85.9557 24.5022C86.3798 24.2586 86.773 23.9719 87.0898 23.5115C85.9186 23.1672 84.774 22.8294 83.6278 22.4948C82.9557 22.2991 82.9519 22.3023 82.9572 21.5658C82.9625 20.7765 83.2997 20.079 83.5348 19.3603C83.6565 18.9859 84.033 19.094 84.3181 19.1735C85.3765 19.4707 86.435 19.7883 87.4935 20.0798C87.6984 20.1366 87.9539 20.3656 88.1135 20.1691C88.2889 19.9523 88.1135 19.651 88.0318 19.3993C87.9891 19.2718 87.9267 19.153 87.8473 19.0477C86.9091 17.8215 85.837 16.7569 84.5388 15.9814C84.1207 15.7321 83.6807 15.5071 83.1779 15.5689C82.9511 15.5965 82.9594 15.4698 82.9602 15.3049C82.964 14.5782 82.9602 13.8506 82.9647 13.1238C82.9693 10.9118 82.9814 8.69975 82.9715 6.48774C82.9715 6.1418 83.0645 6.05816 83.3775 6.0606C85.2813 6.07576 87.1855 6.07576 89.0903 6.0606C89.3602 6.0606 89.4744 6.1418 89.5621 6.42602C90.6775 10.0272 91.8015 13.6256 92.9341 17.2214C92.9726 17.3464 93.0097 17.4707 93.0528 17.5949L93.1753 17.5941Z" fill="#010101"/>
<path d="M51.2554 18.815C50.4177 19.0894 49.8582 19.6026 49.6163 20.4439C49.1732 21.9811 50.2302 23.4769 51.7544 23.4753C52.5014 23.4753 53.2491 23.4509 53.9961 23.4168C54.2592 23.4046 54.3568 23.4623 54.3568 23.7774C54.3598 26.5351 54.3744 29.2928 54.4006 32.0505C54.4067 32.1544 54.3908 32.2584 54.3542 32.3547C54.3175 32.451 54.261 32.5372 54.1889 32.6068C52.8462 33.9921 51.5105 35.384 50.1818 36.7823C50.1105 36.8633 50.0239 36.9269 49.9278 36.969C49.8317 37.011 49.7283 37.0304 49.6246 37.0259C47.2128 37.0178 44.8004 37.0178 42.3876 37.0259C42.2909 37.0305 42.1945 37.0109 42.1061 36.9686C42.0177 36.9263 41.9396 36.8626 41.878 36.7823C40.7187 35.4181 39.5524 34.0592 38.379 32.7058C38.3099 32.6329 38.2557 32.5454 38.2198 32.4488C38.1838 32.3522 38.167 32.2487 38.1703 32.1447C38.1847 30.7642 38.1907 29.3837 38.1787 28.009C38.1787 27.7223 38.2543 27.6598 38.5083 27.6614C40.3561 27.6733 42.2041 27.6733 44.0525 27.6614C44.2861 27.6614 44.3715 27.719 44.3624 27.9862C44.3435 28.5766 44.3624 29.1686 44.3488 29.7589C44.3405 30.0236 44.3912 30.1292 44.6679 30.1243C45.74 30.1054 46.8121 30.1054 47.8842 30.1243C48.1518 30.1243 48.2145 30.0374 48.2108 29.763C48.1926 28.1722 48.1835 26.5806 48.1919 24.9898C48.1919 24.6869 48.1117 24.6113 47.8373 24.6138C45.9751 24.626 44.1129 24.6138 42.2508 24.6252C42.1405 24.6318 42.0302 24.6124 41.9277 24.5683C41.8252 24.5243 41.7329 24.4566 41.6573 24.3702C40.5842 23.2068 39.5055 22.051 38.4213 20.9027C38.3443 20.8291 38.2834 20.738 38.243 20.6361C38.2026 20.5342 38.1837 20.4239 38.1877 20.3132C38.2119 17.1614 38.228 14.0098 38.2361 10.8585C38.2334 10.7472 38.2537 10.6365 38.2955 10.5346C38.3374 10.4327 38.3997 10.342 38.478 10.269C39.7528 8.93884 41.0222 7.60248 42.2863 6.2599C42.3619 6.1726 42.4541 6.10377 42.5566 6.0581C42.6592 6.01242 42.7696 5.99096 42.8806 5.99517C45.2495 6.00438 47.6185 6.00438 49.9875 5.99517C50.0916 5.98936 50.1955 6.00816 50.2921 6.05026C50.3886 6.09235 50.4754 6.15671 50.5462 6.23879C51.7136 7.5137 52.8867 8.78185 54.0657 10.0432C54.1383 10.1119 54.1962 10.1967 54.2353 10.2918C54.2745 10.3868 54.294 10.4899 54.2925 10.5938C54.2925 12.0035 54.3023 13.4124 54.3295 14.8213C54.3356 15.1396 54.2539 15.2273 53.9515 15.2273C52.1314 15.2127 50.3116 15.2127 48.492 15.2273C48.2108 15.2273 48.1314 15.1461 48.1412 14.8473C48.1586 14.3032 48.1306 13.7567 48.1412 13.2118C48.1412 12.9755 48.0739 12.8951 47.8501 12.8976C46.7916 12.9079 45.7332 12.9079 44.6747 12.8976C44.4479 12.8976 44.3881 12.9845 44.3881 13.2143C44.3881 14.6086 44.3881 16.0028 44.3609 17.3963C44.3556 17.7106 44.4819 17.7317 44.7125 17.7301C46.3494 17.7195 47.9862 17.7301 49.6223 17.7089C50.017 17.7033 50.3217 17.7902 50.578 18.128C50.767 18.3675 51.0067 18.5632 51.2554 18.815Z" fill="#010101"/>
<path d="M0.0703125 26.7734L0.0937501 25.4124C2.06857 25.4124 4.04339 25.4124 6.01821 25.3953C6.31534 25.3953 6.35541 25.5058 6.35239 25.7811C6.3418 27.099 6.35693 28.417 6.34256 29.7349C6.33878 30.0305 6.40834 30.1198 6.69035 30.115C7.7337 30.0971 8.77782 30.0938 9.82118 30.115C10.1395 30.1223 10.1841 29.9923 10.1818 29.6967C10.169 28.0304 10.1727 26.3633 10.172 24.697C10.168 18.6369 10.1609 12.5769 10.1508 6.51687C10.1508 6.06131 10.271 5.98092 10.6634 5.9866C12.4265 6.01015 14.1897 6.0069 15.9558 5.9866C16.2839 5.9866 16.3452 6.08811 16.3444 6.41861C16.3354 14.918 16.3336 23.4175 16.3391 31.9169C16.3449 32.0204 16.3302 32.124 16.2961 32.221C16.262 32.318 16.2091 32.4061 16.1411 32.4796C14.8679 33.8964 13.6007 35.3199 12.3396 36.7502C12.2682 36.8403 12.1788 36.9118 12.0779 36.9594C11.9771 37.0069 11.8675 37.0292 11.7574 37.0247C9.37384 37.0144 6.99 37.0144 4.6059 37.0247C4.49598 37.0327 4.38583 37.0132 4.28414 36.9677C4.18245 36.9222 4.09201 36.8519 4.01995 36.7624C2.79212 35.3202 1.55722 33.8856 0.315275 32.4585C0.237925 32.3741 0.177804 32.2734 0.138751 32.1626C0.0996969 32.0519 0.0825688 31.9336 0.0884583 31.8154C0.0861901 30.1361 0.076361 28.4543 0.0703125 26.7734Z" fill="#010101"/>
<path d="M62.5325 23.2952C62.7669 23.2903 62.8652 23.3601 62.9513 23.6029C64.0325 26.6716 66.6348 28.4427 69.6636 28.0245C72.1299 27.6843 73.8121 26.143 74.7352 23.6679C74.8487 23.3658 74.9288 23.2911 75.2365 23.3934C76.8197 23.9221 78.1708 24.899 79.5188 25.8872C79.5536 25.9124 79.6148 25.9424 79.6148 25.9684C79.6201 26.5872 80.0851 26.6245 80.4737 26.7553C80.5493 26.7813 80.5992 26.8235 80.5879 26.912C80.5123 27.5535 80.6287 28.2292 80.0806 28.7545C78.9283 29.8597 77.6385 30.7489 76.3351 31.6194C74.0909 33.1163 71.7763 34.4878 69.4005 35.7284C69.2738 35.8029 69.1327 35.8448 68.9884 35.8507C68.8441 35.8566 68.7005 35.8264 68.5688 35.7625C65.1832 34.3284 62.1121 32.2999 59.1582 30.049C58.5609 29.5934 57.9803 29.1135 57.3815 28.6595C57.2861 28.598 57.2074 28.5108 57.153 28.4065C57.0987 28.3023 57.0706 28.1846 57.0715 28.0651C57.0352 26.6262 56.9959 25.188 56.9309 23.7507C56.9172 23.4332 57.0216 23.3756 57.2824 23.3796C58.1572 23.395 61.6555 23.3114 62.5325 23.2952Z" fill="#010101"/>
<path d="M68.859 14.4714C67.6124 14.4666 66.3933 14.8641 65.3596 15.6124C64.3258 16.3607 63.5253 17.4252 63.0616 18.668C62.9466 18.9725 62.8158 19.0659 62.5134 19.0562C60.8088 19.002 59.1028 18.9671 57.3957 18.9514C57.0932 18.9514 57.0305 18.8515 57.0449 18.5373C57.1038 17.2518 57.2014 15.9704 57.2981 14.6882C57.3344 14.2083 57.5416 13.8631 57.8274 13.5448C58.5078 12.7896 59.3198 12.2106 60.1424 11.6544C62.8446 9.82645 65.7093 8.31848 68.5452 6.75367C68.6798 6.67977 68.7894 6.6481 68.9376 6.73012C72.4956 8.70421 76.0869 10.6166 79.3039 13.2184C79.4725 13.354 79.62 13.5205 79.7855 13.6609C80.2997 14.0978 80.4993 14.6801 80.5106 15.3662C80.519 15.7738 80.5493 16.1805 80.6013 16.5843C80.6346 16.8531 80.5544 16.9863 80.3261 17.1016C78.6567 17.9396 76.9526 18.664 75.1434 19.0805C74.9044 19.1358 74.8137 19.1 74.7154 18.8418C73.783 16.3927 72.098 14.9507 69.6604 14.516C69.3973 14.4738 69.1259 14.4868 68.859 14.4714Z" fill="#010101"/>
<path d="M68.3843 52.5593C67.7916 53.4201 66.7421 53.3713 66.0473 53.1009C65.2368 52.7834 64.9427 52.0201 64.9374 51.1415C64.9238 49.0366 64.9374 46.931 64.9238 44.8253C64.9238 44.5728 64.982 44.5005 65.2263 44.4957C66.2711 44.4819 66.2711 44.4729 66.2711 45.5741C66.2711 47.2848 66.2711 48.9963 66.2711 50.7086C66.2711 50.9636 66.256 51.2186 66.3414 51.4703C66.4594 51.8146 66.6696 51.977 67.0113 51.9673C67.3659 51.9576 67.5594 51.7342 67.632 51.3989C67.6833 51.1318 67.7067 50.8594 67.7016 50.5868C67.7076 48.6931 67.7144 46.7994 67.6963 44.9025C67.6963 44.5525 67.784 44.481 68.0925 44.4875C69.039 44.5054 69.0398 44.4875 69.0398 45.4896C69.0398 47.1857 69.0398 48.8821 69.0398 50.5787C69.0343 50.821 69.0482 51.0633 69.0814 51.303C69.1472 51.6993 69.3422 51.9624 69.7618 51.96C70.1814 51.9576 70.3667 51.6839 70.4317 51.2909C70.4623 51.0506 70.4739 50.808 70.4665 50.5657C70.4665 48.6883 70.4771 46.8092 70.4589 44.9317C70.4589 44.5704 70.5489 44.4794 70.8778 44.4867C71.8047 44.5087 71.8055 44.4916 71.8055 45.5034C71.8055 47.2453 71.8055 48.9871 71.8055 50.7289C71.8055 51.0911 71.8055 51.4517 71.7125 51.809C71.466 52.7282 70.874 53.2016 69.9871 53.2308C69.3498 53.2601 68.7691 53.1959 68.3843 52.5593Z" fill="#020201"/>
<path d="M46.472 44.8949C46.8395 44.5295 47.2137 44.3224 47.6719 44.3622C48.6638 44.4434 49.2324 45.0395 49.2596 46.156C49.305 47.8516 49.2899 49.5488 49.2989 51.2443C49.2989 51.7746 49.2914 52.3049 49.3035 52.8351C49.308 53.056 49.2664 53.1421 49.0305 53.1486C47.9675 53.1802 47.9675 53.1908 47.9675 52.0515C47.9675 50.4006 47.9675 48.7489 47.9675 47.098C47.9711 46.8409 47.9542 46.5839 47.9169 46.3298C47.8556 45.9522 47.6613 45.6989 47.2719 45.6802C46.8939 45.6615 46.6671 45.8426 46.5401 46.2243C46.4645 46.4468 46.4736 46.6709 46.4728 46.8958C46.4728 48.8504 46.4645 50.8042 46.4796 52.758C46.4796 53.0828 46.3942 53.1543 46.1016 53.1502C45.1247 53.138 45.1247 53.1502 45.1247 52.0945C45.1247 48.7164 45.1293 45.3383 45.1172 41.961C45.1172 41.6134 45.1845 41.4981 45.5285 41.5063C46.4683 41.5306 46.469 41.5119 46.469 42.5238L46.472 44.8949Z" fill="#010101"/>
<path d="M36.7268 49.6042C36.7268 48.529 36.6852 47.4522 36.7373 46.3803C36.8031 45.0202 37.5652 44.3145 38.8384 44.3324C40.0602 44.3494 40.8457 45.1095 40.8699 46.4307C40.9093 48.5802 40.882 50.7345 40.8888 52.8808C40.8888 53.07 40.848 53.1341 40.6575 53.1471C39.5317 53.2283 39.5325 53.2332 39.5325 52.0298C39.5325 50.3342 39.5325 48.6386 39.5325 46.9423C39.5388 46.6847 39.5085 46.4275 39.4425 46.1798C39.3503 45.8647 39.159 45.6739 38.8263 45.6657C38.4937 45.6576 38.2676 45.8062 38.1459 46.153C38.0544 46.4185 38.0703 46.6905 38.0703 46.9601C38.0703 48.8831 38.0597 50.8068 38.0763 52.7257C38.0763 53.0708 37.9947 53.1528 37.6801 53.1471C36.6973 53.1293 36.6973 53.1471 36.6973 52.0996V49.6042H36.7268Z" fill="#020201"/>
<path d="M26.499 47.3631C26.499 45.5465 26.5066 43.7308 26.4922 41.9142C26.4922 41.6097 26.5731 41.5391 26.8445 41.5391C27.8395 41.5391 27.8395 41.5285 27.8395 42.5882C27.8395 45.9777 27.8342 49.368 27.847 52.7583C27.847 53.1148 27.7971 53.2537 27.4229 53.2455C26.4997 53.2147 26.499 53.2374 26.499 52.2248V47.3631Z" fill="#020202"/>
<path d="M13.3744 47.8706C13.3744 46.2051 13.3805 44.5413 13.3691 42.8741C13.3691 42.5818 13.3979 42.4535 13.7215 42.4592C14.7119 42.4746 14.7127 42.4592 14.7127 43.5148V43.5603C14.7127 44.4536 14.7127 44.4649 15.5315 44.495C15.7364 44.5031 15.818 44.5616 15.7885 44.7784C15.7863 44.8086 15.7863 44.8391 15.7885 44.8693C15.7999 45.7431 15.7999 45.7626 14.9841 45.7764C14.6522 45.7821 14.7127 45.9867 14.7127 46.1897C14.7127 48.3822 14.7058 50.5804 14.7187 52.7762C14.7187 53.114 14.6658 53.2456 14.3119 53.2366C13.3752 53.2107 13.3744 53.231 13.3744 52.2289V47.8706Z" fill="#020202"/>
<path d="M29.9718 48.6349C30.0073 47.8504 29.9037 47.0619 30.0557 46.2799C30.2893 45.083 31.4249 44.2498 32.5272 44.4796C32.5409 44.4796 32.562 44.4755 32.5681 44.4796C32.8032 44.7939 32.6293 45.1593 32.6739 45.4979C32.689 45.614 32.7231 45.7367 32.5182 45.7854C31.5776 46.0111 31.3554 46.3132 31.338 47.377C31.3206 48.4814 31.3433 49.5874 31.3206 50.6926C31.2866 52.3021 30.38 53.1937 28.8815 53.1409C28.6887 53.1344 28.5897 53.0979 28.6169 52.868C28.6305 52.7475 28.6305 52.6256 28.6169 52.5051C28.5693 52.0739 28.6041 51.7799 29.1401 51.7547C29.5711 51.7344 29.7986 51.3487 29.8962 50.894C30.0512 50.1477 29.9249 49.3884 29.9718 48.6349Z" fill="#010101"/>
<path d="M78.3981 49.6954C78.4533 48.7405 78.299 47.5711 78.479 46.4115C78.5244 46.0999 78.6286 45.8014 78.785 45.5345C78.9414 45.2675 79.1468 45.0375 79.3887 44.8586C79.6306 44.6797 79.9039 44.5557 80.1919 44.494C80.48 44.4323 80.7767 44.4344 81.0639 44.5C81.0776 44.5 81.098 44.4951 81.1048 44.5C81.3807 44.802 81.1728 45.1748 81.231 45.5101C81.259 45.6726 81.231 45.7952 81.0201 45.8009C80.1211 45.8236 79.7522 46.3742 79.7492 47.4526C79.7439 49.2253 79.7408 50.998 79.7545 52.7707C79.7545 53.0646 79.6887 53.1474 79.4097 53.1458C78.3981 53.1385 78.3981 53.1515 78.3981 52.0829V49.6954Z" fill="#020202"/>
<path d="M55.8837 49.7067C55.9351 48.7826 55.8036 47.6474 55.9533 46.5162C56.1748 44.8499 57.3142 44.443 58.5344 44.4991C58.5624 44.4991 58.604 44.4926 58.6161 44.5088C58.8648 44.8336 58.6698 45.221 58.728 45.575C58.7597 45.7618 58.6524 45.7951 58.5012 45.8032C57.485 45.8625 57.2499 46.5146 57.2408 47.4176C57.2242 49.1873 57.2242 50.957 57.2408 52.7267C57.2408 53.0572 57.1803 53.1579 56.8552 53.1506C55.8814 53.1287 55.8814 53.1506 55.8814 52.0949L55.8837 49.7067Z" fill="#020202"/>
<path d="M50.543 21.1596C50.5498 20.4149 51.1418 19.7888 51.8426 19.7718C51.9257 19.7638 52.0093 19.777 52.0867 19.8103C52.1641 19.8436 52.233 19.8961 52.2879 19.9634C52.5014 20.2257 52.7316 20.4718 52.9767 20.7C53.2663 20.9549 53.2791 21.2392 53.1718 21.5875C53.0699 21.9125 52.8653 22.1889 52.5935 22.3688C52.3218 22.5487 51.9999 22.6208 51.6839 22.5725C51.3681 22.5218 51.0796 22.3516 50.8704 22.0925C50.6612 21.8334 50.545 21.5025 50.543 21.1596Z" fill="#020202"/>
<path d="M107.547 0.374992C107.342 0.330329 107.101 0.403414 106.923 0.220703H106.837C106.617 0.336826 106.372 0.206898 106.149 0.301908C106.023 0.305527 105.897 0.316097 105.771 0.333578C103.392 0.778579 101.784 3.27319 102.195 5.87661C102.584 8.34523 104.881 10.1269 107.189 9.75251C109.23 9.42119 110.866 7.53318 110.99 5.44866C111.16 2.61137 109.279 0.752593 107.547 0.374992ZM106.535 8.58722C105.66 8.57886 104.825 8.19776 104.211 7.52773C103.598 6.8577 103.258 5.9536 103.266 5.01421C103.266 3.02145 104.733 1.46801 106.598 1.47938C107.472 1.4841 108.309 1.86106 108.926 2.52763C109.542 3.1942 109.887 4.09599 109.885 5.03533C109.876 5.98238 109.519 6.88722 108.891 7.55258C108.264 8.21793 107.417 8.58984 106.535 8.58722Z" fill="#010101"/>
<path d="M36.3736 36.5101C36.1763 35.3521 35.9956 34.1909 35.805 33.0305C35.3423 30.1418 34.8796 27.2549 34.4169 24.37C33.921 21.2896 33.4247 18.2095 32.9282 15.1297C32.458 12.2137 31.9771 9.29923 31.5235 6.37992C31.4691 6.02993 31.336 5.99176 31.0608 5.99257C28.5212 6.0015 25.9816 6.01125 23.4428 5.98445C23.0315 5.98039 22.9294 6.14118 22.8682 6.52203C22.2497 10.3603 21.6229 14.1972 20.9878 18.0328C19.9596 24.2466 18.9263 30.4595 17.888 36.6717C17.8479 36.9096 17.86 37.0274 18.139 37.0249C20.0014 37.0136 21.8636 37.0136 23.7255 37.0249C23.9614 37.0249 24.0279 36.9364 24.0642 36.7001C24.2699 35.3903 24.5065 34.0853 24.7076 32.7747C24.7515 32.4905 24.8347 32.4036 25.1053 32.406C26.5862 32.4206 28.0673 32.4206 29.5487 32.406C29.8125 32.406 29.9191 32.4872 29.9607 32.7593C30.1558 34.0252 30.3788 35.2872 30.552 36.5564C30.6049 36.9445 30.7304 37.0436 31.0812 37.0331C31.8849 37.0022 32.6893 37.0233 33.4938 37.0233C34.3254 37.0233 35.1571 36.9916 35.9888 37.0363C36.4333 37.0558 36.4371 36.8625 36.3736 36.5101ZM28.5242 25.6514C27.7349 25.6384 26.9463 25.6417 26.157 25.6514C25.9544 25.6514 25.8909 25.6067 25.9302 25.3672C26.3838 22.6663 26.8254 19.963 27.2729 17.2605C27.3045 17.121 27.3429 16.9833 27.3879 16.848L28.7662 25.3347C28.8055 25.5743 28.7616 25.6547 28.5242 25.6514Z" fill="#010101"/>
<path d="M62.6015 41.5078C62.3043 41.5078 62.2514 41.6207 62.2552 41.9017C62.2673 42.8696 62.2597 43.8376 62.2597 44.8729C61.2058 43.8985 59.5016 44.3581 59.3655 46.0098C59.2143 47.8345 59.2431 49.6705 59.3572 51.4992C59.3848 51.9037 59.5346 52.2874 59.784 52.5919C60.0334 52.8964 60.3686 53.1049 60.7385 53.1859C61.0621 53.2614 61.4107 53.2297 61.7479 53.2297C62.5886 53.2297 63.2517 52.6808 63.4951 51.8119C63.5987 51.4416 63.5949 51.0648 63.5949 50.688C63.5949 47.9774 63.5949 45.2668 63.5949 42.5562C63.5964 41.4956 63.5964 41.5102 62.6015 41.5078ZM62.2454 50.9998C62.228 51.6113 61.9505 51.9369 61.4893 51.9597C61.0092 51.9824 60.6788 51.6722 60.6523 51.0404C60.6115 50.0579 60.6297 49.072 60.6297 48.087C60.6297 47.573 60.6145 47.0549 60.6614 46.5441C60.7189 45.9253 61.0062 45.6582 61.4931 45.6785C61.9384 45.6972 62.2181 46.0106 62.2363 46.592C62.2597 47.3334 62.2416 48.0765 62.2416 48.8187H62.2461C62.2499 49.5463 62.2658 50.2739 62.2454 50.9998Z" fill="#020201"/>
<path d="M20.4988 46.3738C20.433 45.1484 19.8229 44.5061 18.6994 44.3599C17.3801 44.1886 16.1719 44.8569 16.1719 46.6637C16.1719 47.375 16.1719 48.0864 16.1719 48.7977C16.1719 49.5556 16.1719 50.3136 16.1719 51.0715C16.1719 51.1015 16.1719 51.1316 16.1719 51.1624C16.2082 52.1864 16.7563 52.983 17.6243 53.1925C17.9471 53.2697 18.2956 53.2356 18.6328 53.2356C19.6021 53.2356 20.3907 52.5356 20.4753 51.5027C20.616 49.7925 20.591 48.0791 20.4988 46.3738ZM19.1507 51.0292C19.1318 51.6334 18.8483 51.9493 18.378 51.9623C17.8874 51.9753 17.5464 51.6537 17.5358 51.0463C17.5106 49.5473 17.5119 48.0479 17.5396 46.5484C17.5509 45.9596 17.8813 45.6616 18.3629 45.6665C18.8445 45.6714 19.1296 45.9718 19.1492 46.5776C19.1734 47.3182 19.1553 48.0612 19.1553 48.8034C19.1553 49.5456 19.1734 50.2911 19.1507 51.0292Z" fill="#020202"/>
<path d="M86.0981 50.5029C86.0762 50.3998 86.0482 50.3357 85.9469 50.3405C85.5689 50.3519 85.1636 50.2796 84.8234 50.4055C84.6442 50.4721 84.7879 50.9049 84.7478 51.1688C84.7431 51.2139 84.736 51.2586 84.7266 51.3028C84.614 51.6983 84.4061 51.9687 83.9834 51.9703C83.5608 51.9719 83.3242 51.7584 83.2055 51.3012C83.1238 50.9869 83.1661 50.6686 83.1404 50.3543C83.1185 50.0921 83.207 49.9589 83.433 49.8468C84.2344 49.4473 85.0207 49.0112 85.8191 48.6068C86.021 48.5045 86.1216 48.3989 86.1064 48.1407C86.083 47.6421 86.1064 47.1419 86.0981 46.6425C86.0838 45.2336 85.3542 44.424 84.0454 44.359C82.8297 44.2989 82.0177 45.0086 81.8529 46.2852C81.7432 47.1281 81.84 47.9783 81.8068 48.6726C81.8068 49.1728 81.8068 49.5204 81.8068 49.8687C81.8068 50.2171 81.7969 50.5655 81.8068 50.913C81.8786 53.0585 83.1813 53.5116 84.7508 53.1494C85.7367 52.918 86.3333 51.6309 86.0981 50.5029ZM83.1495 46.7034C83.1654 46.3233 83.2349 45.9474 83.616 45.7557C84.1256 45.5007 84.6586 45.8109 84.7334 46.4427C84.7728 46.7675 84.7471 47.1086 84.7516 47.4415C84.7585 47.4934 84.7497 47.5464 84.7264 47.5924C84.7031 47.6385 84.6666 47.6753 84.6223 47.6973C84.1392 47.9612 83.6606 48.2365 83.1435 48.528C83.1442 47.8784 83.1261 47.2897 83.1503 46.7034H83.1495Z" fill="#010201"/>
<path d="M25.6476 49.0311C25.6476 48.1037 25.6537 47.3623 25.6476 46.6209C25.6348 45.3273 25.0186 44.5356 23.8331 44.3626C22.6695 44.1929 21.3895 44.7118 21.3109 46.3724C21.2308 48.0777 21.1982 49.7895 21.3396 51.4948C21.3714 51.9063 21.5277 52.2953 21.7849 52.6022C22.042 52.9092 22.3856 53.1172 22.7633 53.1944C23.0755 53.2618 23.4082 53.2302 23.731 53.231C24.6723 53.231 25.3709 52.6398 25.569 51.6499C25.7527 50.7226 25.594 49.7798 25.6476 49.0311ZM24.2981 50.742C24.3037 50.9388 24.2815 51.1354 24.2323 51.3251C24.0992 51.7863 23.8263 51.9983 23.387 51.9634C23.0014 51.9333 22.7247 51.658 22.6839 51.2017C22.651 50.7793 22.6381 50.3554 22.6453 49.9316C22.6453 48.7801 22.6385 47.6287 22.6824 46.4788C22.7058 45.8503 23.1723 45.5328 23.7174 45.6903C24.0599 45.7894 24.283 46.1556 24.2935 46.6972C24.3064 47.394 24.2935 48.0907 24.2935 48.7874C24.2966 49.4398 24.2981 50.0913 24.2981 50.742Z" fill="#010101"/>
<path d="M54.6001 52.4905C54.5888 52.3086 54.585 52.1267 54.5827 51.9448C54.5608 50.1274 54.5601 48.3085 54.5124 46.4911C54.4693 44.8443 53.4305 44.0347 51.935 44.4317C50.9726 44.6948 50.1122 46.2377 50.522 47.1675C50.6944 47.5598 51.2629 47.2487 51.6477 47.3121C51.8882 47.3502 51.811 47.1326 51.8216 47.0003C51.8322 46.8679 51.8171 46.725 51.8383 46.5942C51.8708 46.388 51.8821 46.1728 51.9895 45.986C52.1316 45.7424 52.338 45.6563 52.5996 45.6693C52.8151 45.6799 52.9776 45.7603 53.0782 45.9738C53.3806 46.5934 53.1765 47.5768 52.6382 47.9706C52.3252 48.1996 51.9827 48.3807 51.6553 48.587C50.5129 49.3065 50.0759 50.3158 50.2982 51.7182C50.4494 52.6773 51.0542 53.2108 51.9517 53.2433C52.4953 53.2628 52.8945 53.0216 53.3353 52.4986C53.2544 53.1036 53.4865 53.2116 53.8562 53.1442C53.9123 53.1405 53.9686 53.1405 54.0248 53.1442L54.6538 53.1125C54.6372 52.9038 54.6137 52.6992 54.6001 52.4905ZM53.1636 51.0524C53.1447 51.5794 52.8461 51.9278 52.4507 51.9684C52.0386 52.0106 51.7521 51.8246 51.6742 51.391C51.557 50.7414 51.6334 50.1323 52.1641 49.6759C52.4665 49.4137 52.8347 49.248 53.1697 48.8639C53.1704 49.6727 53.1886 50.3654 53.1644 51.0556L53.1636 51.0524Z" fill="#010101"/>
<path d="M77.0554 50.7034C77.0425 49.3107 77.0554 47.9181 77.032 46.5262C77.0108 45.3894 76.5254 44.596 75.7383 44.4336C73.9639 44.0657 72.8804 45.0832 73.0286 47.0906C73.0657 47.5916 73.6879 47.21 74.0289 47.3099C74.2005 47.3594 74.3759 47.3334 74.3313 47.0492C74.3215 46.974 74.3215 46.8978 74.3313 46.8226C74.3578 46.5985 74.3638 46.3663 74.4266 46.1535C74.5264 45.8165 74.7524 45.6541 75.1002 45.6622C75.448 45.6703 75.5962 45.9058 75.6695 46.216C75.8661 47.0516 75.609 47.6956 74.9089 48.1349C74.6821 48.2794 74.4409 48.4102 74.2103 48.5523C73.0203 49.2831 72.5826 50.2868 72.8132 51.7404C72.9644 52.6742 73.5692 53.2021 74.4402 53.2402C74.9951 53.2654 75.3996 53.0129 75.8215 52.5329C75.7459 53.2143 76.1194 53.1558 76.4717 53.1412C76.7091 53.1314 76.9465 53.1412 77.1847 53.1412C77.0645 52.3064 77.0629 51.5041 77.0554 50.7034ZM75.4911 51.6364C75.2945 51.9515 75.0012 52.0238 74.6768 51.9613C74.3782 51.9004 74.2172 51.6608 74.1756 51.3636C74.0758 50.6522 74.1854 50.0156 74.7978 49.5771C75.0843 49.3716 75.3974 49.206 75.6922 48.8463C75.6922 49.6258 75.6922 50.273 75.6922 50.9202C75.694 51.1755 75.6239 51.4255 75.4911 51.6373V51.6364Z" fill="#010101"/>
<path d="M107.295 5.26276C108.133 5.01915 108.444 4.55953 108.363 3.74017C108.297 3.0816 107.868 2.70319 107.113 2.67639C106.437 2.65203 105.759 2.6634 105.084 2.64878C104.894 2.64391 104.808 2.68857 104.811 2.92163C104.82 4.30211 104.811 5.6769 104.816 7.05414C104.816 7.1662 104.783 7.27989 104.959 7.31886C105.556 7.45204 105.726 7.31886 105.726 6.6741C105.726 6.40125 105.726 6.12921 105.726 5.85637C105.726 5.38457 105.886 5.26114 106.306 5.42436C106.465 5.49204 106.599 5.61202 106.69 5.76704C106.896 6.09186 107.105 6.41668 107.309 6.7415C107.7 7.36596 107.979 7.47234 108.696 7.23685C108.261 6.56853 107.972 5.7914 107.295 5.26276ZM106.057 4.60663C105.816 4.62449 105.716 4.57252 105.717 4.27206C105.724 3.46002 105.707 3.46002 106.452 3.47707C106.621 3.47707 106.788 3.47139 106.957 3.47707C107.276 3.48925 107.447 3.6614 107.449 4.01383C107.449 4.38331 107.275 4.57252 106.94 4.58714C106.646 4.60094 106.35 4.58389 106.057 4.60663Z" fill="#020202"/>
</svg>
